<?xml version="1.0" encoding="UTF-8" standalone="no" ?>
<!DOCTYPE svg PUBLIC "-//W3C//DTD SVG 1.1//EN" "http://www.w3.org/Graphics/SVG/1.1/DTD/svg11.dtd">
<svg xmlns="http://www.w3.org/2000/svg" xmlns:xlink="http://www.w3.org/1999/xlink" version="1.1" width="1080" height="1080" viewBox="0 0 1080 1080" xml:space="preserve">
<desc>Created with Fabric.js 5.2.4</desc>
<defs>
</defs>
<rect x="0" y="0" width="100%" height="100%" fill="transparent"></rect>
<g transform="matrix(1 0 0 1 540 540)" id="b12f1a7e-779f-41d9-a192-d31797898605"  >
</g>
<g transform="matrix(1 0 0 1 540 540)" id="783cac7f-28cd-460b-a8a2-d4066004adc7"  >
<rect style="stroke: none; stroke-width: 1; stroke-dasharray: none; stroke-linecap: butt; stroke-dashoffset: 0; stroke-linejoin: miter; stroke-miterlimit: 4; fill: rgb(255,255,255); fill-rule: nonzero; opacity: 1; visibility: hidden;" vector-effect="non-scaling-stroke"  x="-540" y="-540" rx="0" ry="0" width="1080" height="1080" />
</g>
<g transform="matrix(1.33 0 0 1.31 540 540)"  >
<g style="" vector-effect="non-scaling-stroke"   >
		<g transform="matrix(11.73 0 0 11.73 138.63 11.87)"  >
<path style="stroke: none; stroke-width: 1; stroke-dasharray: none; stroke-linecap: butt; stroke-dashoffset: 0; stroke-linejoin: miter; stroke-miterlimit: 4; fill: rgb(215,68,19); fill-rule: nonzero; opacity: 1;" vector-effect="non-scaling-stroke"  transform=" translate(-51.46, -2.36)" d="M 51.459798804525036 -1.6395776556140902 C 49.25065980520186 -1.6395776556140902 47.459798804525036 0.151283345062736 47.459798804525036 2.36042234438591 C 47.459798804525036 4.569561343709084 49.25065980520186 6.36042234438591 51.459798804525036 6.36042234438591 C 53.66893780384821 6.36042234438591 55.459798804525036 4.569561343709084 55.459798804525036 2.36042234438591 C 55.459798804525036 0.151283345062736 53.66893780384821 -1.6395776556140902 51.459798804525036 -1.6395776556140902" stroke-linecap="round" />
</g>
		<g transform="matrix(11.73 0 0 11.73 -95.95 11.87)"  >
<path style="stroke: none; stroke-width: 1; stroke-dasharray: none; stroke-linecap: butt; stroke-dashoffset: 0; stroke-linejoin: miter; stroke-miterlimit: 4; fill: rgb(215,68,19); fill-rule: nonzero; opacity: 1;" vector-effect="non-scaling-stroke"  transform=" translate(-51.46, -2.36)" d="M 51.459798804525036 -1.6395776556140902 C 49.25065980520186 -1.6395776556140902 47.459798804525036 0.151283345062736 47.459798804525036 2.36042234438591 C 47.459798804525036 4.569561343709084 49.25065980520186 6.36042234438591 51.459798804525036 6.36042234438591 C 53.66893780384821 6.36042234438591 55.459798804525036 4.569561343709084 55.459798804525036 2.36042234438591 C 55.459798804525036 0.151283345062736 53.66893780384821 -1.6395776556140902 51.459798804525036 -1.6395776556140902" stroke-linecap="round" />
</g>
		<g transform="matrix(11.73 0 0 11.73 -7.98 246.45)"  >
<path style="stroke: none; stroke-width: 1; stroke-dasharray: none; stroke-linecap: butt; stroke-dashoffset: 0; stroke-linejoin: miter; stroke-miterlimit: 4; fill: rgb(215,68,19); fill-rule: nonzero; opacity: 1;" vector-effect="non-scaling-stroke"  transform=" translate(-99.96, -71.36)" d="M 104.45979880452504 67.3604223443859 L 95.45979880452504 67.3604223443859 C 93.25065980520186 67.3604223443859 91.45979880452504 69.15128334506272 91.45979880452504 71.3604223443859 C 91.45979880452504 73.56956134370907 93.25065980520186 75.3604223443859 95.45979880452504 75.3604223443859 L 104.45979880452504 75.3604223443859 C 106.66893780384821 75.3604223443859 108.45979880452504 73.56956134370907 108.45979880452504 71.3604223443859 C 108.45979880452504 69.15128334506272 106.66893780384821 67.3604223443859 104.45979880452504 67.3604223443859" stroke-linecap="round" />
</g>
		<g transform="matrix(11.73 0 0 11.73 -271.92 246.62)"  >
<path style="stroke: none; stroke-width: 1; stroke-dasharray: none; stroke-linecap: butt; stroke-dashoffset: 0; stroke-linejoin: miter; stroke-miterlimit: 4; fill: rgb(215,68,19); fill-rule: nonzero; opacity: 1;" vector-effect="non-scaling-stroke"  transform=" translate(-77.46, -71.36)" d="M 70.15979880452502 82.6404223443859 C 70.83513331765522 83.61636212664966 71.90897847139044 84.24201661045844 73.09103189171245 84.34824690150045 C 74.27308531203445 84.45447719254246 75.44127692077501 84.03031294065552 76.27979880452503 83.1904223443859 L 83.56979880452502 75.90042234438589 C 84.77586406357209 74.69942422302749 85.45385205993203 73.06747695472795 85.45385205993203 71.36542234438589 C 85.45385205993203 69.66336773404383 84.77586406357209 68.03142046574429 83.56979880452502 66.8304223443859 L 76.27979880452503 59.540422344385895 C 75.4263511110501 58.684478758162825 74.23162334372178 58.26035765016836 73.02950939217214 58.386589325209926 C 71.8273954406225 58.512821000251485 70.74682893672198 59.17586638551553 70.08979880452503 60.190422344385894 C 69.06379133384387 61.81268595568772 69.31408355609814 63.93182677077399 70.68979880452503 65.27042234438589 L 76.78979880452502 71.37042234438589 L 70.78979880452502 77.37042234438589 C 69.34090898320977 78.74757036952673 69.07635946765411 80.9605480631431 70.15979880452502 82.64042234438588" stroke-linecap="round" />
</g>
		<g transform="matrix(11.73 0 0 11.73 23.4 -29.37)"  >
<path style="stroke: none; stroke-width: 1; stroke-dasharray: none; stroke-linecap: butt; stroke-dashoffset: 0; stroke-linejoin: miter; stroke-miterlimit: 4; fill: rgb(215,68,19); fill-rule: nonzero; opacity: 1;" vector-effect="non-scaling-stroke"  transform=" translate(-102.64, -47.83)" d="M 126.85979880452504 23.56042234438591 C 124.53886623924426 20.454285150403205 120.3245866418236 19.459715165411932 116.85979880452504 21.20042234438591 C 114.24151546899424 22.549382765706603 111.84401250788841 24.289342720601958 109.74979880452503 26.360422344385906 C 104.98614373098242 24.967915822392072 99.92345387806763 24.967915822392072 95.15979880452502 26.360422344385917 C 93.06232229724705 24.27350763623943 90.65782249492001 22.51987524183542 88.02979880452503 21.16042234438591 C 84.56501096722647 19.419715165411933 80.35073136980581 20.414285150403206 78.02979880452503 23.52042234438591 C 75.56979880452504 26.81042234438591 72.80979880452503 32.62042234438591 71.81979880452504 48.06042234438591 C 71.67896619331819 50.269561343709086 73.35565980520187 52.17458973317906 75.56479880452504 52.31542234438591 C 77.77393780384821 52.45625495559276 79.67896619331819 50.779561343709084 79.81979880452504 48.57042234438591 C 80.81979880452504 33.46042234438591 83.45979880452504 29.67042234438591 84.45979880452504 28.36042234438591 C 84.45979880452504 28.36042234438591 90.45979880452504 31.36042234438591 92.45979880452504 36.36042234438591 C 98.52909359662323 32.36919237667429 106.39050401242685 32.3691923766743 112.45979880452504 36.36042234438591 C 114.45979880452504 31.36042234438591 120.45979880452504 28.36042234438591 120.45979880452504 28.36042234438591 C 121.66979880452504 29.98042234438591 125.45979880452504 36.36042234438591 125.45979880452504 62.36042234438591 C 125.45979880452504 65.12184609353987 123.221222553679 67.36042234438591 120.45979880452504 67.36042234438591 L 118.45979880452504 67.36042234438591 C 117.32777053553073 67.3550275032023 116.24646713412949 67.82955559337005 115.48402561742054 68.66633515795812 C 114.72158410071158 69.50311472254619 114.34941194008134 70.62377606170799 114.45979880452504 71.7504223443859 C 114.71173846174007 73.848597807862 116.51717073024692 75.41157394438713 118.62979880452505 75.36042234438591 L 120.45979880452504 75.36042234438591 C 127.63979880452504 75.36042234438591 133.45979880452504 69.54042234438592 133.45979880452504 62.36042234438591 C 133.45979880452504 36.65042234438591 129.92979880452503 27.660422344385907 126.85979880452504 23.560422344385913" stroke-linecap="round" />
</g>
		<g transform="matrix(0.98 0 0 0.98 0 -2.08)" id="space-saver"  >
<rect style="stroke: rgb(255,255,255); stroke-opacity: 0; stroke-width: 1; stroke-dasharray: none; stroke-linecap: butt; stroke-dashoffset: 0; stroke-linejoin: miter; stroke-miterlimit: 4; fill: rgb(255,255,255); fill-opacity: 0; fill-rule: nonzero; opacity: 1;" vector-effect="non-scaling-stroke"  x="-402.5" y="-405" rx="0" ry="0" width="805" height="810" />
</g>
</g>
</g>
</svg>