<?xml version="1.0" encoding="UTF-8"?>
<svg version="1.1" xmlns="http://www.w3.org/2000/svg" width="1080" height="1080">
<path d="M0 0 C356.4 0 712.8 0 1080 0 C1080 356.4 1080 712.8 1080 1080 C723.6 1080 367.2 1080 0 1080 C0 723.6 0 367.2 0 0 Z " fill="#915EFF" transform="translate(0,0)"/>
<path d="M0 0 C356.4 0 712.8 0 1080 0 C1080 356.4 1080 712.8 1080 1080 C723.6 1080 367.2 1080 0 1080 C0 723.6 0 367.2 0 0 Z M47 42 C47 370.68 47 699.36 47 1038 C374.03 1038 701.06 1038 1038 1038 C1038 709.32 1038 380.64 1038 42 C710.97 42 383.94 42 47 42 Z " fill="#FEFEFF" transform="translate(0,0)"/>
<path d="M0 0 C1.33514648 -0.01160156 1.33514648 -0.01160156 2.69726562 -0.0234375 C29.63420001 0.05526793 54.01594228 19.46786788 73.40625 36.48828125 C73.9326709 36.94468994 74.4590918 37.40109863 75.00146484 37.87133789 C76.057957 38.80440189 77.09458383 39.76036784 78.11181641 40.73608398 C80.52180964 42.96155607 81.93299136 44.22188074 85.2734375 44.37109375 C86.15257812 44.14550781 87.03171875 43.91992188 87.9375 43.6875 C88.81148437 43.47996094 89.68546875 43.27242187 90.5859375 43.05859375 C91.56820312 42.79175781 92.55046875 42.52492188 93.5625 42.25 C121.41714024 34.68860088 153.20164848 34.72140423 181.1953125 41.5859375 C182.55100342 41.90643066 182.55100342 41.90643066 183.93408203 42.23339844 C185.63504331 42.64860615 187.32768971 43.10026256 189.00732422 43.59472656 C191.36411671 44.17681088 193.14685774 44.52088904 195.5625 44.25 C198.38122346 42.31979115 200.36884001 39.84352199 202.5625 37.25 C204.58440381 35.41419966 206.71924402 33.73805474 208.875 32.0625 C209.76179443 31.37148193 209.76179443 31.37148193 210.66650391 30.66650391 C233.63220433 13.04662588 257.7305619 -3.18999206 287.9140625 0.6796875 C301.21873183 3.30177562 312.17337239 9.57275836 321.5625 19.25 C322.47902344 20.15298828 322.47902344 20.15298828 323.4140625 21.07421875 C343.8608752 42.59472252 353.00362352 76.50343964 358.99755859 104.61035156 C359.58980917 107.37760014 360.21022858 110.13769007 360.83203125 112.8984375 C371.83334419 162.57442635 374.70887932 214.49367725 375.5625 265.25 C375.58501831 266.51884033 375.60753662 267.78768066 375.6307373 269.0949707 C375.77191945 277.19181485 375.87969862 285.28826984 375.94094372 293.3861351 C375.96980418 297.1680944 376.00820208 300.94929813 376.07254028 304.73083496 C376.5298365 332.58976979 372.55867012 357.53372101 353.5625 379.25 C353.03398438 379.90871094 352.50546875 380.56742188 351.9609375 381.24609375 C340.05776111 395.71606885 323.49529948 405.25546305 305.74389648 410.58691406 C304.2521311 411.04037067 302.77217639 411.534096 301.30493164 412.06152344 C292.73226946 414.87310924 284.12141578 414.7738115 275.19213867 414.75097656 C272.50136449 414.75000049 269.81341409 414.79181303 267.12304688 414.8359375 C256.32120688 414.91214504 248.6157467 414.17854981 239.9765625 407.14453125 C233.25716799 399.32479921 229.64075524 391.82233618 230.05859375 381.3359375 C231.50296963 372.49053483 236.22737343 365.80197232 242.828125 359.96875 C252.8324829 353.68029646 262.12966625 353.73523498 273.6875 353.84960938 C285.19245538 353.7466703 294.66289211 350.69366228 303.58984375 343.2734375 C311.3797356 335.28301378 313.87501458 326.23768345 313.828125 315.40625 C313.83089951 314.42975494 313.83367401 313.45325989 313.83653259 312.44717407 C313.8407292 309.21464507 313.82795191 305.98249153 313.8125 302.75 C313.80973053 301.63220154 313.80696106 300.51440308 313.80410767 299.36273193 C316.34517441 176.27162329 316.34517441 176.27162329 277.5625 62.25 C272.78996834 62.79751797 269.22641142 64.97565713 265.25 67.5 C264.55575928 67.93820068 263.86151855 68.37640137 263.14624023 68.82788086 C242.39411794 82.24308763 227.40990558 98.66629569 215.5625 120.25 C212.31933424 119.0488275 209.23967423 117.6192259 206.1484375 116.078125 C194.54949703 110.31340227 183.11535241 105.49527664 170.5625 102.25 C169.56814941 101.98533936 169.56814941 101.98533936 168.55371094 101.71533203 C149.27840587 96.81145336 126.772697 97.23508927 107.5625 102.25 C106.79212402 102.44335938 106.02174805 102.63671875 105.22802734 102.8359375 C91.34032697 106.39928331 77.93760173 111.54943479 65.65234375 119.01953125 C63.5625 120.25 63.5625 120.25 61.5625 120.25 C61.16160156 119.45078125 60.76070312 118.6515625 60.34765625 117.828125 C48.8629144 95.63991626 31.75521551 79.95851246 11 66.5625 C9.98135864 65.89214722 9.98135864 65.89214722 8.94213867 65.20825195 C5.46076249 62.86323819 5.46076249 62.86323819 1.43896484 62.53149414 C-4.60380229 64.84529373 -8.27814598 76.55638924 -10.82910156 82.04248047 C-23.31000682 110.17611972 -26.78345674 141.98218507 -30.4375 172.25 C-30.56091766 173.26235718 -30.56091766 173.26235718 -30.68682861 174.29516602 C-32.08802027 185.79186674 -33.42449668 197.23612704 -33.875 208.8125 C-34.42935593 219.43939866 -37.52608218 227.01532261 -45.4375 234.25 C-53.13005053 240.30846164 -61.72973455 242.39902231 -71.4375 241.25 C-79.0019428 239.41408301 -85.61746292 235.3935352 -90.4375 229.25 C-94.66949653 221.91438634 -96.25718101 215.60005834 -96.0625 207.1875 C-96.05065674 206.10750732 -96.03881348 205.02751465 -96.02661133 203.91479492 C-95.61992421 188.33579636 -93.40078863 172.84463398 -91.36584473 157.41181946 C-90.77114947 152.89481652 -90.21638869 148.38059174 -89.75390625 143.84765625 C-85.03054875 98.9308922 -72.37105245 41.74099822 -36.1875 11.5 C-25.26439941 3.40810586 -13.39598166 -0.1158989 0 0 Z " fill="#FEFEFF" transform="translate(216.4375,506.75)"/>
<path d="M0 0 C0.73927734 -0.03673828 1.47855469 -0.07347656 2.24023438 -0.11132812 C11.42041566 -0.18236994 18.3397674 4.46240692 24.82569885 10.64143372 C27.43192235 13.21552622 29.96987452 15.85139372 32.5 18.5 C34.5511805 20.61797955 36.60914293 22.72929832 38.66796875 24.83984375 C39.41487221 25.60863609 39.41487221 25.60863609 40.17686462 26.39295959 C42.7341456 29.01041817 45.32306286 31.52666781 48.109375 33.8984375 C54.14353153 39.0371479 59.72244347 44.67289287 65.34887695 50.2487793 C66.69606726 51.57941178 68.0486002 52.90465747 69.40649414 54.22436523 C82.50664851 66.95987776 91.95854143 78.642947 92.5625 97.75 C92.27769701 120.85068683 76.57531392 134.48508154 61.38647461 149.61889648 C59.61258997 151.38737219 57.84418223 153.16120044 56.07617188 154.93554688 C50.92338509 160.09085609 45.76363344 165.13757605 40.21069336 169.86499023 C37.94382013 171.89220175 35.84090609 174.04084312 33.7265625 176.2265625 C32.94023437 177.03867187 32.15390625 177.85078125 31.34375 178.6875 C29.73941867 180.35433775 28.14302994 182.02885682 26.5546875 183.7109375 C19.85043691 190.59046262 12.86743552 196.11122607 2.89550781 196.25683594 C2.20811523 196.23395508 1.52072266 196.21107422 0.8125 196.1875 C-0.28433105 196.16864746 -0.28433105 196.16864746 -1.40332031 196.14941406 C-7.70043064 195.87902021 -12.48683749 194.17261784 -17.6875 190.5625 C-18.615625 189.964375 -19.54375 189.36625 -20.5 188.75 C-26.83396777 182.41603223 -29.70221588 175.1086158 -30 166.1875 C-29.62840917 151.07613952 -19.50795357 142.05673224 -9.3449707 132.01416016 C-7.75085909 130.43834922 -6.16494074 128.85463871 -4.58007812 127.26953125 C0.31369565 122.39319123 5.26262219 117.63493268 10.51391602 113.140625 C13.58733055 110.44393007 16.44435364 107.53660313 19.3125 104.625 C19.89644531 104.03654297 20.48039062 103.44808594 21.08203125 102.84179688 C22.49454805 101.41770207 23.9038781 99.9904475 25.3125 98.5625 C21.43692694 93.80108166 17.26735835 89.40733408 12.9375 85.0625 C12.40874268 84.52923096 11.87998535 83.99596191 11.33520508 83.4465332 C8.51869822 80.64028529 5.64249559 77.95319363 2.62890625 75.359375 C-2.37044102 71.02420959 -7.12836967 66.45172783 -11.84301758 61.81201172 C-12.86352206 60.81313705 -13.89024484 59.82057565 -14.9230957 58.83447266 C-22.65291838 51.44904196 -28.45875735 44.47503546 -30.38671875 33.62890625 C-30.35368424 23.75158716 -28.68875629 15.56375629 -21.49609375 8.37109375 C-19.28651837 6.58025347 -17.12746802 5.0224142 -14.6875 3.5625 C-13.78386719 3.01851562 -12.88023438 2.47453125 -11.94921875 1.9140625 C-7.83451177 0.2090462 -4.40998999 0.01124042 0 0 Z " fill="#FEFEFF" transform="translate(132.6875,793.4375)"/>
<path d="M0 0 C49.46859903 0 49.46859903 0 60 10 C60.81210938 10.76957031 60.81210938 10.76957031 61.640625 11.5546875 C72.97687155 23.52072553 74.56523799 41.12911368 74.4375 56.8125 C74.42992676 58.12331543 74.42235352 59.43413086 74.41455078 60.78466797 C74.14151029 76.89007082 71.5841007 93.25449043 60.125 105.5 C43.82123705 120.43995008 20.76034821 115 0 115 C0 77.05 0 39.1 0 0 Z " fill="#FCFBFF" transform="translate(68,317)"/>
<path d="M0 0 C49.46859903 0 49.46859903 0 60 10 C60.81210938 10.76957031 60.81210938 10.76957031 61.640625 11.5546875 C72.97687155 23.52072553 74.56523799 41.12911368 74.4375 56.8125 C74.42992676 58.12331543 74.42235352 59.43413086 74.41455078 60.78466797 C74.14151029 76.89007082 71.5841007 93.25449043 60.125 105.5 C43.82123705 120.43995008 20.76034821 115 0 115 C0 77.05 0 39.1 0 0 Z " fill="#FCFBFF" transform="translate(68,88)"/>
<path d="M0 0 C1.7343807 -0.00015525 3.46876175 -0.0016485 5.20314026 -0.00440979 C8.82674622 -0.00578917 12.44995417 0.00668523 16.07348633 0.02954102 C20.6943415 0.05790292 25.31453515 0.05518788 29.93543911 0.0424509 C33.51391648 0.03546072 37.09224378 0.04332128 40.67070198 0.05570793 C42.37336716 0.06019156 44.07604862 0.06058656 45.77871513 0.05664253 C58.54377151 0.04091303 70.18703781 0.63945401 80.19140625 9.49609375 C87.44995056 18.3089302 89.18786276 26.16928429 88.19140625 37.49609375 C86.17864503 45.6194534 80.62422091 51.77844881 74.19140625 56.87109375 C68.30048423 60.06200985 62.57675339 60.79817711 55.96801758 60.81835938 C55.17672455 60.82828918 54.38543152 60.83821899 53.57015991 60.84844971 C50.97121606 60.87748344 48.3725164 60.89126223 45.7734375 60.90234375 C44.87913214 60.9079985 43.98482677 60.91365326 43.06342125 60.91947937 C38.32929698 60.94938191 33.59529328 60.96789117 28.86108398 60.9765625 C24.00018525 60.98751138 19.14041276 61.03554368 14.27986622 61.09250641 C10.51603595 61.12997525 6.752471 61.14018173 2.98847008 61.14323425 C1.19807476 61.1492414 -0.59231849 61.16514148 -2.38252831 61.19160461 C-14.10498938 61.35250149 -23.75241292 60.69086892 -33.02482605 52.55041504 C-39.0254087 46.48069025 -41.93691676 39.07563991 -42.43359375 30.62109375 C-42.07289385 21.56868983 -38.0085077 14.16574907 -31.49609375 7.99609375 C-22.0435918 -0.21407937 -11.87936612 -0.08689397 0 0 Z " fill="#FEFDFF" transform="translate(312.80859375,860.50390625)"/>
<path d="M0 0 C0.98355469 0.02255859 1.96710938 0.04511719 2.98046875 0.06835938 C5.40429813 0.12719019 7.82734348 0.21686882 10.25 0.3125 C10.25 3.9425 10.25 7.5725 10.25 11.3125 C3.98 11.3125 -2.29 11.3125 -8.75 11.3125 C-6.94995022 17.78390445 -6.94995022 17.78390445 -3.6875 23 C1.4378313 30.05516264 0.87846923 37.88053784 0.25 46.3125 C-0.62299746 49.68113151 -1.890052 52.38354534 -3.75 55.3125 C-4.41 56.364375 -5.07 57.41625 -5.75 58.5 C-10.67629987 64.02857478 -19.67703551 67.99997828 -27.05249023 68.4543457 C-27.87950439 68.46554443 -28.70651855 68.47674316 -29.55859375 68.48828125 C-30.47060547 68.51212891 -31.38261719 68.53597656 -32.32226562 68.56054688 C-34.22828957 68.60342267 -36.13460997 68.63472392 -38.04101562 68.65429688 C-42.36406195 68.78548318 -45.08774529 68.93112695 -48.890625 71.12109375 C-51.11598454 73.31338448 -51.11598454 73.31338448 -51.0625 77.0625 C-50.959375 78.135 -50.85625 79.2075 -50.75 80.3125 C-46.94044137 82.81900156 -43.04610247 82.59174597 -38.65234375 82.5859375 C-37.02929024 82.60624754 -35.40624343 82.62709868 -33.78320312 82.6484375 C-31.24481562 82.67089463 -28.70669468 82.68745536 -26.16821289 82.69335938 C-4.60132151 82.77779469 -4.60132151 82.77779469 4.6875 89.5625 C9.46127927 94.68558019 11.47678726 99.13732444 11.875 106.1875 C11.64235828 112.75132003 9.37345451 117.28016341 5.25 122.3125 C-4.01906716 130.90334274 -19.35184191 131.50859281 -31.3125 131.5625 C-32.98795898 131.5934375 -32.98795898 131.5934375 -34.69726562 131.625 C-45.46440638 131.67493457 -56.17306257 130.3393885 -64.75 123.3125 C-69.37585559 118.33080937 -70.06250403 114.40934274 -69.95703125 107.8125 C-69.60185089 103.52352956 -68.32154749 100.71314635 -65.09765625 97.83984375 C-60.45020891 94.3125 -60.45020891 94.3125 -56.75 94.3125 C-57.98448009 90.60905972 -59.98334341 89.00999018 -62.75 86.3125 C-64.49920449 82.81409103 -64.30363066 79.12997654 -63.75 75.3125 C-60.49449483 69.92056957 -56.46525878 67.72340321 -50.75 65.3125 C-51.306875 64.755625 -51.86375 64.19875 -52.4375 63.625 C-53.200625 62.861875 -53.96375 62.09875 -54.75 61.3125 C-55.595625 60.4875 -56.44125 59.6625 -57.3125 58.8125 C-63.29312146 52.67852927 -65.14380558 47.60167151 -65.125 39 C-65.12338867 38.24106445 -65.12177734 37.48212891 -65.12011719 36.70019531 C-64.99253049 30.89374967 -64.1112608 27.16765449 -60.75 22.3125 C-59.945625 21.013125 -59.945625 21.013125 -59.125 19.6875 C-51.92491449 12.48741449 -43.35919396 9.27036263 -33.3125 9.0625 C-26.94292845 9.15778703 -21.7767962 10.30356793 -15.75 12.3125 C-15.6675 11.260625 -15.585 10.20875 -15.5 9.125 C-13.61632149 -0.45036573 -8.52185325 -0.36878859 0 0 Z " fill="#FBFAFF" transform="translate(823.75,106.6875)"/>
<path d="M0 0 C1.46856445 0.04060547 1.46856445 0.04060547 2.96679688 0.08203125 C5.37464713 0.15250492 7.78135963 0.26011797 10.1875 0.375 C10.1875 4.005 10.1875 7.635 10.1875 11.375 C3.9175 11.375 -2.3525 11.375 -8.8125 11.375 C-8.23481486 17.85783238 -8.23481486 17.85783238 -4.875 22 C-0.16934392 26.7403415 0.60724019 31.52688951 0.625 38.0625 C0.59356225 46.44589962 -1.17365901 52.18923902 -6.76171875 58.6171875 C-15.3503302 67.03618544 -24.00547012 68.56584961 -35.625 68.8125 C-36.53282227 68.803396 -37.44064453 68.79429199 -38.37597656 68.78491211 C-42.78948559 68.82444945 -45.87849264 68.93099651 -49.41796875 71.7421875 C-52.01055558 74.12891381 -52.01055558 74.12891381 -52.3125 77.0625 C-51.99170507 79.55692915 -51.99170507 79.55692915 -49.8125 81.375 C-46.1104383 82.73822785 -42.19707826 82.56255993 -38.30078125 82.62109375 C-36.80533316 82.65405365 -35.3098906 82.68726491 -33.81445312 82.72070312 C-31.47570858 82.76788382 -29.13698286 82.81229758 -26.7980957 82.85180664 C-2.43853219 83.28288083 -2.43853219 83.28288083 6.1875 91.375 C9.90354833 96.47698711 12.02833666 101.79174873 11.6015625 108.1484375 C10.35583569 114.84715714 7.58608173 119.93308403 2.1640625 124.09765625 C-8.04947025 130.69810133 -19.15607804 131.74945093 -31.0625 131.6875 C-32.15989502 131.68331055 -33.25729004 131.67912109 -34.38793945 131.67480469 C-56.01323275 131.37434241 -56.01323275 131.37434241 -63.8125 124.375 C-69.32583732 118.4829994 -70.27482199 114.675315 -70.23046875 106.65625 C-69.70069154 102.49725138 -68.42874428 100.55029417 -65.515625 97.64453125 C-62.5404456 95.42679431 -60.56787305 94.375 -56.8125 94.375 C-56.8125 93.385 -56.8125 92.395 -56.8125 91.375 C-57.410625 91.148125 -58.00875 90.92125 -58.625 90.6875 C-61.61293735 88.89473759 -62.46247474 87.61506063 -63.8125 84.375 C-64.56453786 79.40501068 -64.7375633 75.70477849 -61.8125 71.5 C-58.30659065 69.01664755 -54.73205748 67.11594489 -50.8125 65.375 C-51.51375 64.859375 -52.215 64.34375 -52.9375 63.8125 C-58.2520984 59.30664483 -64.04339535 53.63208752 -65.09716797 46.42919922 C-65.21502948 44.27683562 -65.228954 42.15513155 -65.1875 40 C-65.17734863 39.24412598 -65.16719727 38.48825195 -65.15673828 37.70947266 C-64.93863696 29.89671144 -63.20700729 23.95845133 -57.82421875 18.046875 C-48.54601463 10.33605682 -38.46788039 8.5910058 -26.8125 9.375 C-23.05681641 10.14037628 -19.44360076 11.15250515 -15.8125 12.375 C-15.9671875 11.075625 -15.9671875 11.075625 -16.125 9.75 C-15.79397107 6.17488759 -14.95782225 4.31541096 -12.59301758 1.61865234 C-8.88361469 -0.97228394 -4.33572132 -0.22712308 0 0 Z " fill="#FCFAFF" transform="translate(429.8125,106.625)"/>
<path d="M0 0 C9.40354262 7.56371906 13.9647957 16.52319004 15.875 28.3125 C16.16272071 31.92174742 16.20921742 35.50542926 16.1875 39.125 C16.18012817 40.5785791 16.18012817 40.5785791 16.17260742 42.06152344 C15.96223526 54.92551128 13.07524468 66.97548867 4.1875 76.6875 C-2.97347324 83.2873522 -10.41650042 84.9855305 -20.015625 84.625 C-28.6415333 83.75807454 -34.16379042 80.58390827 -40.125 74.3125 C-41.115 72.9925 -42.105 71.6725 -43.125 70.3125 C-43.455 85.1625 -43.785 100.0125 -44.125 115.3125 C-48.415 115.3125 -52.705 115.3125 -57.125 115.3125 C-57.125 76.3725 -57.125 37.4325 -57.125 -2.6875 C-52.835 -2.6875 -48.545 -2.6875 -44.125 -2.6875 C-43.795 1.2725 -43.465 5.2325 -43.125 9.3125 C-41.97 7.91 -40.815 6.5075 -39.625 5.0625 C-28.99694493 -6.92232806 -13.63088205 -7.36067631 0 0 Z " fill="#FDFCFF" transform="translate(717.125,349.6875)"/>
<path d="M0 0 C9.35812312 7.1916123 12.90235829 16.65485208 14.6875 28 C15.05285198 33.38871319 15.04051245 38.748556 14.98046875 44.14453125 C14.97485673 45.6505236 14.97059425 47.15652152 14.96760559 48.66252136 C14.95628291 52.58012664 14.92692825 56.49738535 14.89349365 60.41485596 C14.86251748 64.43081986 14.84904209 68.44684108 14.83398438 72.46289062 C14.80204302 80.30874983 14.75100421 88.15432592 14.6875 96 C10.7275 96 6.7675 96 2.6875 96 C2.1925 92.04 2.1925 92.04 1.6875 88 C1.006875 89.093125 0.32625 90.18625 -0.375 91.3125 C-3.18392175 95.18849817 -5.61724051 96.69148506 -10.3125 98 C-16.63290745 98.91914422 -21.33173565 98.31449322 -26.5625 94.5390625 C-33.06411029 88.82112845 -35.79836536 81.36098079 -36.6159668 72.83569336 C-36.74990917 69.40621585 -36.77107815 65.99440554 -36.75 62.5625 C-36.76998047 61.41201172 -36.78996094 60.26152344 -36.81054688 59.07617188 C-36.80438777 48.20535657 -34.5101509 39.66606837 -27.09375 31.55859375 C-22.45103963 27.49622217 -18.20571564 27.63361746 -12.2265625 27.75 C-7.10688469 28.18922169 -4.39514312 29.80031438 -1 33.5625 C0.6875 36 0.6875 36 1.6875 38 C2.22526598 28.81814385 1.31618264 18.85339607 -4.69140625 11.4375 C-10.75713484 6.05873344 -18.45622899 5.33675746 -26.26171875 5.62109375 C-33.01253284 6.45954313 -37.80386698 9.49721257 -41.99609375 14.8203125 C-48.3397977 25.3241309 -48.4655953 37.50957396 -48.515625 49.39453125 C-48.52132507 50.46313889 -48.52702515 51.53174652 -48.53289795 52.63273621 C-48.54229641 54.88250758 -48.54886127 57.1322924 -48.55273438 59.38208008 C-48.56244186 62.7920774 -48.59351608 66.20147174 -48.625 69.61132812 C-48.63153157 71.8098923 -48.63678144 74.00846073 -48.640625 76.20703125 C-48.6529718 77.2105513 -48.6653186 78.21407135 -48.67803955 79.2480011 C-48.64552082 89.77026555 -46.87016912 101.86057042 -39.55859375 109.9375 C-30.87633392 118.09304739 -22.2985688 118.4832254 -10.8125 118.6875 C-9.513125 118.72166016 -8.21375 118.75582031 -6.875 118.79101562 C-3.68758629 118.87304465 -0.50043217 118.94234455 2.6875 119 C2.6875 122.3 2.6875 125.6 2.6875 129 C-1.82904375 129.09987254 -6.34497989 129.1719343 -10.86230469 129.21972656 C-12.39464534 129.23967724 -13.92691152 129.26684816 -15.45898438 129.30175781 C-27.0055929 129.55801414 -36.75291696 129.04055155 -45.625 120.75 C-56.6092881 110.16107751 -61.08834457 94.94427744 -61.60302734 79.85180664 C-61.62935929 78.03805115 -61.64403417 76.22409753 -61.6484375 74.41015625 C-61.6584227 72.93415199 -61.6584227 72.93415199 -61.66860962 71.42832947 C-61.67867423 69.35515186 -61.68342857 67.28194225 -61.68310547 65.20874023 C-61.68744556 62.10147901 -61.7237412 58.99567965 -61.76171875 55.88867188 C-61.86674459 37.33173385 -60.71951842 16.87589776 -47.5 2.5 C-34.86644808 -9.14126145 -14.10869444 -8.90064384 0 0 Z " fill="#FCFAFF" transform="translate(913.3125,92)"/>
<path d="M0 0 C8.2867572 6.82292884 12.77372633 15.71204553 15.171875 26.0859375 C15.46657997 29.29942314 15.50561819 32.48535923 15.484375 35.7109375 C15.47700317 37.03218628 15.47700317 37.03218628 15.46948242 38.38012695 C15.27407909 49.34175286 13.31709097 58.87780631 7.171875 68.0859375 C6.594375 68.9728125 6.016875 69.8596875 5.421875 70.7734375 C-2.71808884 79.13951145 -12.20843312 82.32917857 -23.703125 82.5859375 C-34.3996434 82.52329684 -43.17280321 78.88344141 -50.859375 71.43359375 C-60.61218032 59.80376043 -63.06889483 43.82220389 -61.828125 29.0859375 C-60.0393676 17.61847729 -55.20947189 7.06905568 -46.0546875 -0.3515625 C-32.04048531 -9.96130115 -13.88865027 -9.39977711 0 0 Z " fill="#FCFAFF" transform="translate(617.828125,351.9140625)"/>
<path d="M0 0 C8.85916132 6.11441424 13.71566878 13.77000576 17.375 23.75 C18.30907838 30.10173295 18 36.57995219 18 43 C-2.79 43 -23.58 43 -45 43 C-42.88938859 57.79184461 -42.88938859 57.79184461 -33.8125 68.625 C-26.57658713 72.42195578 -17.92331377 72.34844908 -10 71 C-2.93928342 68.54895953 1.21810598 64.30315671 5 58 C7.97 59.65 10.94 61.3 14 63 C14 68.5503378 11.70528399 71.03496414 8 75 C-2.04016355 83.54848211 -13.26818767 85.01821877 -26.015625 84.19824219 C-35.81381756 83.21938732 -42.49380657 78.08832653 -49 71 C-58.4076963 59.46862543 -60.27300169 45.5302563 -59 31 C-56.56228708 18.22638431 -50.66514936 7.59541065 -40 0 C-27.14881423 -7.1052229 -12.95408943 -7.10063695 0 0 Z " fill="#FCFBFF" transform="translate(221,350)"/>
<path d="M0 0 C8.85916132 6.11441424 13.71566878 13.77000576 17.375 23.75 C18.30907838 30.10173295 18 36.57995219 18 43 C-2.79 43 -23.58 43 -45 43 C-42.88938859 57.79184461 -42.88938859 57.79184461 -33.8125 68.625 C-26.57658713 72.42195578 -17.92331377 72.34844908 -10 71 C-2.93928342 68.54895953 1.21810598 64.30315671 5 58 C7.97 59.65 10.94 61.3 14 63 C14 68.5503378 11.70528399 71.03496414 8 75 C-2.04016355 83.54848211 -13.26818767 85.01821877 -26.015625 84.19824219 C-35.81381756 83.21938732 -42.49380657 78.08832653 -49 71 C-58.4076963 59.46862543 -60.27300169 45.5302563 -59 31 C-56.56228708 18.22638431 -50.66514936 7.59541065 -40 0 C-27.14881423 -7.1052229 -12.95408943 -7.10063695 0 0 Z " fill="#FCFBFF" transform="translate(221,121)"/>
<path d="M0 0 C7.69300838 5.93460647 12.00775455 14.52711194 14.32421875 23.79296875 C14.32421875 29.40296875 14.32421875 35.01296875 14.32421875 40.79296875 C-6.13578125 40.79296875 -26.59578125 40.79296875 -47.67578125 40.79296875 C-46.7767012 54.31596393 -46.7767012 54.31596393 -39.23828125 64.16796875 C-32.05778967 70.13227498 -23.48532386 69.47931379 -14.67578125 68.79296875 C-7.83692805 67.21984412 -3.60669444 63.49279287 0.32421875 57.79296875 C0.81921875 56.80296875 0.81921875 56.80296875 1.32421875 55.79296875 C5.31922493 57.16268515 8.12431367 59.05019297 11.32421875 61.79296875 C10.22989952 67.87252005 5.72723584 72.03972748 0.8828125 75.57421875 C-9.82790863 82.24593512 -21.6450684 83.69190001 -33.9453125 81.10546875 C-43.76392317 77.80971132 -51.37365633 71.69847954 -56.67578125 62.79296875 C-62.97105199 50.01166148 -64.63973131 33.17428033 -60.05078125 19.54296875 C-59.30993478 17.93522901 -58.51865287 16.34964726 -57.67578125 14.79296875 C-57.26328125 13.93832031 -56.85078125 13.08367187 -56.42578125 12.203125 C-51.67476918 3.22749141 -44.84556576 -2.44374934 -35.23828125 -5.70703125 C-22.38233217 -9.10208823 -11.19365099 -7.11684247 0 0 Z " fill="#FCFBFF" transform="translate(815.67578125,352.20703125)"/>
<path d="M0 0 C3.04236887 2.05148277 5.52760612 4.2956424 8 7 C8.82951172 7.89332031 8.82951172 7.89332031 9.67578125 8.8046875 C18.29263588 19.11070222 18 29.58692853 18 43 C-2.79 43 -23.58 43 -45 43 C-43.79550614 54.1298156 -43.79550614 54.1298156 -39.0234375 62.51171875 C-38 64 -38 64 -38 66 C-36.68922893 66.710001 -35.3465266 67.36039986 -34 68 C-32.9275 68.53625 -31.855 69.0725 -30.75 69.625 C-23.64726431 72.21023588 -14.28655679 72.40571295 -7.10546875 70.05078125 C-2.77838012 67.77600995 0.28847366 65.12152004 3 61 C3.99 59.515 3.99 59.515 5 58 C8.99500618 59.3697164 11.80009492 61.25722422 15 64 C13.1716011 70.50097388 8.6869761 75.3702524 3.01171875 78.8125 C-7.9648927 84.38792169 -19.37771777 85.97273198 -31.5 83.19921875 C-42.61262465 78.98857582 -49.8732478 71.65564862 -54.84375 60.9921875 C-59.64760086 48.56060048 -60.51586684 32.25843174 -55.9375 19.5625 C-51.59731799 10.39447508 -45.19856972 2.02910112 -35.6328125 -1.99609375 C-33.43388536 -2.74949666 -31.24840278 -3.41254138 -29 -4 C-28.36449219 -4.18175781 -27.72898437 -4.36351562 -27.07421875 -4.55078125 C-17.39653556 -6.64670134 -8.65076294 -4.48977998 0 0 Z " fill="#FCFBFF" transform="translate(418,350)"/>
<path d="M0 0 C3.04236887 2.05148277 5.52760612 4.2956424 8 7 C8.82951172 7.89332031 8.82951172 7.89332031 9.67578125 8.8046875 C18.29263588 19.11070222 18 29.58692853 18 43 C-2.79 43 -23.58 43 -45 43 C-43.79550614 54.1298156 -43.79550614 54.1298156 -39.0234375 62.51171875 C-38 64 -38 64 -38 66 C-36.68922893 66.710001 -35.3465266 67.36039986 -34 68 C-32.9275 68.53625 -31.855 69.0725 -30.75 69.625 C-23.64726431 72.21023588 -14.28655679 72.40571295 -7.10546875 70.05078125 C-2.77838012 67.77600995 0.28847366 65.12152004 3 61 C3.99 59.515 3.99 59.515 5 58 C8.99500618 59.3697164 11.80009492 61.25722422 15 64 C13.1716011 70.50097388 8.6869761 75.3702524 3.01171875 78.8125 C-7.9648927 84.38792169 -19.37771777 85.97273198 -31.5 83.19921875 C-42.61262465 78.98857582 -49.8732478 71.65564862 -54.84375 60.9921875 C-59.64760086 48.56060048 -60.51586684 32.25843174 -55.9375 19.5625 C-51.59731799 10.39447508 -45.19856972 2.02910112 -35.6328125 -1.99609375 C-33.43388536 -2.74949666 -31.24840278 -3.41254138 -29 -4 C-28.36449219 -4.18175781 -27.72898437 -4.36351563 -27.07421875 -4.55078125 C-17.39653556 -6.64670134 -8.65076294 -4.48977998 0 0 Z " fill="#FCFBFF" transform="translate(615,121)"/>
<path d="M0 0 C28.78763298 0 28.78763298 0 37.20703125 7.8984375 C42.13445224 13.67393313 45.06049474 20.72089674 45.19287109 28.30273438 C45.20893402 29.14461304 45.22499695 29.9864917 45.24154663 30.85388184 C45.2865044 34.71637802 45.32710541 38.57870853 45.35009766 42.44140625 C45.36658356 44.46626335 45.39377502 46.49106405 45.43212891 48.515625 C45.67900935 61.63678377 45.66851065 72.4578948 37.6875 83.5 C26.70401984 93.71719084 15.41039999 91 0 91 C0 60.97 0 30.94 0 0 Z " fill="#925FFF" transform="translate(82,329)"/>
<path d="M0 0 C28.78763298 0 28.78763298 0 37.20703125 7.8984375 C42.13445224 13.67393313 45.06049474 20.72089674 45.19287109 28.30273438 C45.20893402 29.14461304 45.22499695 29.9864917 45.24154663 30.85388184 C45.2865044 34.71637802 45.32710541 38.57870853 45.35009766 42.44140625 C45.36658356 44.46626335 45.39377502 46.49106405 45.43212891 48.515625 C45.67900935 61.63678377 45.66851065 72.4578948 37.6875 83.5 C26.70401984 93.71719084 15.41039999 91 0 91 C0 60.97 0 30.94 0 0 Z " fill="#925FFF" transform="translate(82,100)"/>
<path d="M0 0 C4.1796989 2.8497947 7.11864324 5.98092971 8.75 10.875 C9.28625 9.988125 9.8225 9.10125 10.375 8.1875 C13.25811058 3.85770403 16.73905409 0.5453153 21.75 -1.125 C27.7313407 -1.72777077 32.42915337 -1.15057945 37.75 1.875 C42.97901814 6.66826663 44.50724951 13.56720922 45.01132202 20.43585205 C45.09594831 24.60916297 45.08820783 28.7718818 45.04296875 32.9453125 C45.03736188 34.47801291 45.03309695 36.01071876 45.03010559 37.54342651 C45.01874251 41.54491457 44.98935082 45.54606725 44.95599365 49.54742432 C44.92510681 53.64354925 44.91156079 57.73972926 44.89648438 61.8359375 C44.86447121 69.84912813 44.81177505 77.86198349 44.75 85.875 C40.46 85.875 36.17 85.875 31.75 85.875 C31.73541748 83.81096924 31.72083496 81.74693848 31.70581055 79.62036133 C31.65543633 72.79496137 31.58883633 65.96978887 31.51428509 59.14461231 C31.46958889 55.00715399 31.43033125 50.86979397 31.40356445 46.73217773 C31.37752376 42.73789577 31.33711632 38.74399221 31.28681374 34.74994469 C31.27015012 33.22740072 31.25863267 31.7047913 31.25238609 30.18216896 C31.24273912 28.04658114 31.21467507 25.91196025 31.18237305 23.77661133 C31.17126999 22.5619368 31.16016693 21.34726227 31.14872742 20.09577942 C30.71236229 16.57097588 29.92356081 14.66467035 27.75 11.875 C24.14427296 10.67309099 21.5397565 10.54829685 17.75 10.875 C13.70173423 13.30395946 12.1629536 15.44419605 10.75 19.875 C10.42512405 23.0462835 10.42512405 23.0462835 10.43115234 26.5012207 C10.41608391 27.46791939 10.41608391 27.46791939 10.40071106 28.45414734 C10.36999064 30.56968348 10.35287552 32.68509372 10.3359375 34.80078125 C10.31721683 36.27338231 10.29764274 37.74597275 10.2772522 39.21855164 C10.22601977 43.08344242 10.18634672 46.94836795 10.14910889 50.81341553 C10.1090133 54.76176485 10.05794636 58.70997076 10.0078125 62.65820312 C9.91115847 70.39704428 9.82773502 78.13594144 9.75 85.875 C5.79 85.875 1.83 85.875 -2.25 85.875 C-2.26213028 84.61712173 -2.26213028 84.61712173 -2.27450562 83.33383179 C-2.35255235 75.41828503 -2.43987336 67.50290602 -2.53752708 59.58757591 C-2.58740307 55.5185421 -2.63373364 51.44953316 -2.671875 47.38037109 C-2.70883801 43.45099569 -2.75522735 39.52183282 -2.80806351 35.59263992 C-2.82654908 34.09603237 -2.84167844 32.59937935 -2.85334396 31.10270309 C-2.87030698 29.00102883 -2.89936462 26.89983515 -2.93115234 24.79833984 C-2.94447601 23.60365082 -2.95779968 22.40896179 -2.9715271 21.17807007 C-3.25921602 17.76568534 -3.94200589 15.0342851 -5.25 11.875 C-6.96380616 10.83942703 -6.96380616 10.83942703 -9.25 10.875 C-10.384375 10.813125 -11.51875 10.75125 -12.6875 10.6875 C-16.15735589 10.87012399 -18.28195143 11.09417086 -21.25 12.875 C-23.30218394 16.83757401 -23.51963616 20.26398186 -23.56884766 24.68481445 C-23.57889328 25.34878738 -23.5889389 26.01276031 -23.59928894 26.69685364 C-23.6300195 28.87732123 -23.6471274 31.05766661 -23.6640625 33.23828125 C-23.68278235 34.75572249 -23.70235637 36.27315342 -23.7227478 37.79057312 C-23.77398891 41.77383327 -23.81365736 45.75712713 -23.85089111 49.74053955 C-23.89098121 53.80953254 -23.94205067 57.87838623 -23.9921875 61.94726562 C-24.08885174 69.92308179 -24.17328671 77.89896711 -24.25 85.875 C-28.21 85.875 -32.17 85.875 -36.25 85.875 C-36.25 57.825 -36.25 29.775 -36.25 0.875 C-32.29 0.875 -28.33 0.875 -24.25 0.875 C-23.92 3.515 -23.59 6.155 -23.25 8.875 C-22.54875 7.781875 -21.8475 6.68875 -21.125 5.5625 C-15.82251963 -1.75433045 -8.23658997 -2.8511273 0 0 Z " fill="#FCFBFF" transform="translate(492.25,117.125)"/>
<path d="M0 0 C1.9921875 1.12109375 1.9921875 1.12109375 3.875 2.4375 C4.93074219 3.16646484 4.93074219 3.16646484 6.0078125 3.91015625 C11.85799775 8.47589124 16.02036658 13.89706957 17.17333984 21.37158203 C18.17662182 31.2505805 17.22572701 39.41848047 10.875 47.4375 C5.80459203 53.06340721 -1.46990664 57.69066162 -9.125 58.4375 C-9.75792969 58.50066406 -10.39085937 58.56382812 -11.04296875 58.62890625 C-19.83571185 59.11133994 -27.36694613 56.28708579 -34.0625 50.625 C-40.52312417 44.40664924 -44.08369531 37.34508579 -44.5625 28.3125 C-44.384967 20.16817354 -41.45246176 12.4934962 -35.875 6.5 C-34.65515404 5.44331815 -33.40439255 4.4212456 -32.125 3.4375 C-31.52558594 2.9321875 -30.92617188 2.426875 -30.30859375 1.90625 C-22.33626738 -3.71026173 -8.893673 -3.56366688 0 0 Z " fill="#FDFDFF" transform="translate(445.125,712.5625)"/>
<path d="M0 0 C8.08612255 3.78973663 12.97360306 8.49245411 16.7421875 16.5234375 C19.88654581 25.2166634 19.51414125 34.31421985 15.62109375 42.68359375 C10.95862772 50.91916459 4.6148205 54.93057513 -4.1328125 58.2109375 C-12.72578978 59.89884375 -19.76942953 58.92077317 -27.6328125 54.8984375 C-35.03884928 49.81968472 -40.89108343 42.89455271 -42.6328125 33.8984375 C-43.73908033 24.60018636 -41.95625638 17.61688681 -36.6328125 9.8984375 C-26.63738868 -1.16601561 -14.26430176 -4.3253044 0 0 Z " fill="#FDFDFF" transform="translate(290.6328125,712.1015625)"/>
<path d="M0 0 C5.46033476 3.17461323 7.94501583 8.19235428 10 14 C10.64611449 18.68895511 10.61106588 23.27465163 10.5 28 C10.50386719 29.80984375 10.50386719 29.80984375 10.5078125 31.65625 C10.41709547 40.00221684 9.93567712 48.60993092 4.625 55.4375 C-1.93046019 61.83687781 -8.11724183 62.33770798 -16.92114258 62.38720703 C-22.93930145 62.26529599 -26.6710076 61.13122117 -31 57 C-32.3921875 55.700625 -32.3921875 55.700625 -33.8125 54.375 C-39.25936516 47.20124651 -39.53017468 37.13612157 -39.4375 28.5 C-39.42847656 27.49259766 -39.41945313 26.48519531 -39.41015625 25.44726562 C-39.21993015 17.30453188 -38.69742456 10.20688181 -33.12890625 3.87109375 C-23.95223387 -4.7157736 -11.15453678 -5.67867327 0 0 Z " fill="#915FFF" transform="translate(609,360)"/>
<path d="M0 0 C7.92918607 4.8117283 12.14605298 11.42104112 14.8212738 20.13250732 C15.40593848 22.97365341 15.4045794 25.63052974 15.39868164 28.53222656 C15.39856834 30.39370331 15.39856834 30.39370331 15.39845276 32.29278564 C15.39334656 33.64180542 15.38813057 34.99082479 15.3828125 36.33984375 C15.38094649 37.72418161 15.37952345 39.10852013 15.37852478 40.49285889 C15.37471398 44.12933183 15.364896 47.76576457 15.3538208 51.40222168 C15.34357575 55.11579851 15.33902054 58.82938185 15.33398438 62.54296875 C15.3232724 69.82423916 15.30568728 77.10546819 15.28515625 84.38671875 C10.66515625 84.38671875 6.04515625 84.38671875 1.28515625 84.38671875 C1.27581055 82.5452124 1.26646484 80.70370605 1.25683594 78.80639648 C1.22123036 72.70339333 1.16738306 66.60076128 1.10125351 60.4980154 C1.06184299 56.80001052 1.02962347 53.10224144 1.01416016 49.40405273 C0.99895054 45.8311037 0.96443066 42.25880323 0.91684723 38.68614388 C0.90207739 37.32714558 0.89411776 35.96805466 0.8932724 34.60897636 C0.93513708 24.2752552 0.93513708 24.2752552 -3.71484375 15.38671875 C-10.20489769 10.35361569 -15.70836761 9.6341518 -23.71484375 10.38671875 C-29.99636507 11.99646795 -34.03307903 13.90780913 -37.71484375 19.38671875 C-38.32610661 22.50642359 -38.32610661 22.50642359 -38.26074219 25.92114258 C-38.29032013 27.87259941 -38.29032013 27.87259941 -38.32049561 29.86347961 C-38.32215852 31.27356931 -38.32338952 32.68365957 -38.32421875 34.09375 C-38.33920699 35.54393862 -38.3559355 36.99411021 -38.37432861 38.44425964 C-38.41794304 42.25003867 -38.43798779 46.05558746 -38.45306396 49.86157227 C-38.47265663 53.74964987 -38.51462411 57.6374796 -38.5546875 61.52539062 C-38.62992569 69.14579794 -38.67818598 76.76601029 -38.71484375 84.38671875 C-43.33484375 84.38671875 -47.95484375 84.38671875 -52.71484375 84.38671875 C-52.71484375 56.33671875 -52.71484375 28.28671875 -52.71484375 -0.61328125 C-48.09484375 -0.61328125 -43.47484375 -0.61328125 -38.71484375 -0.61328125 C-38.38484375 3.01671875 -38.05484375 6.64671875 -37.71484375 10.38671875 C-37.19921875 9.49984375 -36.68359375 8.61296875 -36.15234375 7.69921875 C-28.30077949 -4.03651157 -12.15359256 -5.63215265 0 0 Z " fill="#F9F7FF" transform="translate(712.71484375,118.61328125)"/>
<path d="M0 0 C5.5664436 4.64850998 8.58474464 10.73255084 9.28588867 17.93798828 C9.40278107 21.27639473 9.40921927 24.59731872 9.375 27.9375 C9.38660156 29.06607422 9.39820313 30.19464844 9.41015625 31.35742188 C9.37523189 41.36324976 7.93956365 48.99243605 0.859375 56.3359375 C-5.21555042 61.7727405 -11.50560568 61.52677302 -19.39453125 61.34765625 C-25.74234975 60.73556974 -29.73779864 58.68138802 -33.9375 53.9375 C-38.56501065 47.34680302 -37.33760147 38.8924747 -37.4050293 31.12329102 C-37.4265752 29.25819342 -37.46063779 27.393196 -37.50756836 25.52856445 C-37.57488135 22.82718158 -37.60207906 20.12788671 -37.62109375 17.42578125 C-37.64892441 16.60153152 -37.67675507 15.7772818 -37.70542908 14.92805481 C-37.68553883 9.26070577 -36.22704778 6.0739167 -32.6934967 1.6627655 C-24.03639062 -6.83724357 -9.83233245 -5.94146293 0 0 Z " fill="#925FFF" transform="translate(710,361)"/>
<path d="M0 0 C14.19 0 28.38 0 43 0 C43 36.63 43 73.26 43 111 C52.57 111 62.14 111 72 111 C72 114.63 72 118.26 72 122 C48.24 122 24.48 122 0 122 C0 118.37 0 114.74 0 111 C9.9 111 19.8 111 30 111 C30 78.33 30 45.66 30 12 C20.1 12 10.2 12 0 12 C0 8.04 0 4.08 0 0 Z " fill="#FDFCFF" transform="translate(460,310)"/>
<path d="M0 0 C6.08433526 4.70749215 9.77182621 11.15810934 11 18.71484375 C11.08500091 20.83041838 11.11776843 22.94839652 11.11352539 25.06567383 C11.11341209 26.95706841 11.11341209 26.95706841 11.11329651 28.88667297 C11.10819069 30.25257406 11.1029747 31.61847473 11.09765625 32.984375 C11.0957897 34.38970387 11.09436692 35.7950334 11.09336853 37.20036316 C11.089562 40.887785 11.07974774 44.57516705 11.06866455 48.26257324 C11.05841025 52.02986106 11.05386232 55.79715535 11.04882812 59.56445312 C11.0381237 66.94793685 11.0205421 74.33137964 11 81.71484375 C6.71 81.71484375 2.42 81.71484375 -2 81.71484375 C-2.00410889 79.94963379 -2.00821777 78.18442383 -2.01245117 76.36572266 C-2.03193791 70.49821813 -2.0743875 64.63111421 -2.13209057 58.76387978 C-2.1662134 55.21050393 -2.19144731 51.65755126 -2.19555664 48.10400391 C-2.20069965 44.0076305 -2.24596063 39.91251485 -2.29296875 35.81640625 C-2.2890361 34.55559235 -2.28510345 33.29477844 -2.28105164 31.99575806 C-2.40819415 24.22543081 -3.49225941 18.1841197 -8 11.71484375 C-14.01533707 6.87323099 -21.59034116 7.03087524 -29 7.71484375 C-34.40425294 9.31868656 -37.87929872 11.9713778 -41 16.71484375 C-42.36682074 19.44848522 -42.16265463 21.66521854 -42.20532227 24.72509766 C-42.22526749 25.98625397 -42.24521271 27.24741028 -42.26576233 28.54678345 C-42.28274665 29.92832312 -42.29962546 31.30986409 -42.31640625 32.69140625 C-42.3369756 34.10102957 -42.35797207 35.51064672 -42.37937927 36.92025757 C-42.43460195 40.6323141 -42.48401031 44.34442632 -42.53222656 48.05657959 C-42.58244018 51.84375978 -42.63812697 55.63085901 -42.69335938 59.41796875 C-42.80094336 66.8501938 -42.90188203 74.2824866 -43 81.71484375 C-47.29 81.71484375 -51.58 81.71484375 -56 81.71484375 C-56 53.66484375 -56 25.61484375 -56 -3.28515625 C-51.71 -3.28515625 -47.42 -3.28515625 -43 -3.28515625 C-42.67 0.67484375 -42.34 4.63484375 -42 8.71484375 C-41.175 7.49796875 -40.35 6.28109375 -39.5 5.02734375 C-29.79035338 -7.94952993 -13.09290785 -8.41321618 0 0 Z " fill="#FDFDFF" transform="translate(322,121.28515625)"/>
<path d="M0 0 C12.54 0 25.08 0 38 0 C38.495 8.91 38.495 8.91 39 18 C39.66 16.824375 40.32 15.64875 41 14.4375 C45.61208211 7.11013575 51.55049218 2.12491129 60 0 C63.34826558 -0.32461288 66.64039369 -0.28813337 70 -0.1875 C71.30517578 -0.16719727 71.30517578 -0.16719727 72.63671875 -0.14648438 C74.75808627 -0.11151678 76.87912974 -0.0577253 79 0 C79 4.29 79 8.58 79 13 C77.60007812 13.02578125 76.20015625 13.0515625 74.7578125 13.078125 C58.91130252 13.27477363 58.91130252 13.27477363 45.125 20.3125 C39.72379289 27.14343841 38.40201849 31.71860286 38.390625 40.30859375 C38.37408875 41.27531509 38.35755249 42.24203644 38.34051514 43.23805237 C38.29220082 46.30460062 38.27070079 49.37065353 38.25 52.4375 C38.2218265 54.52541532 38.19189715 56.61330774 38.16015625 58.70117188 C38.08316234 63.80100547 38.04248815 68.89929707 38 74 C48.89 74 59.78 74 71 74 C71 77.63 71 81.26 71 85 C47.57 85 24.14 85 0 85 C0 81.37 0 77.74 0 74 C8.25 74 16.5 74 25 74 C25 53.21 25 32.42 25 11 C16.75 11 8.5 11 0 11 C0 7.37 0 3.74 0 0 Z " fill="#FDFCFF" transform="translate(854,347)"/>
<path d="M0 0 C4.62 0 9.24 0 14 0 C22.37928808 23.98424281 30.74760366 47.97174796 39 72 C45.02037716 56.51286262 50.21093962 40.7433626 55.48828125 24.99145508 C56.68113483 21.43443196 57.87931866 17.87923922 59.078125 14.32421875 C59.44270813 13.23058517 59.80729126 12.1369516 60.18292236 11.01017761 C60.52377869 10.00094742 60.86463501 8.99171722 61.21582031 7.9519043 C61.51304993 7.0652861 61.81027954 6.17866791 62.11651611 5.2651825 C63 3 63 3 65 0 C68.0390625 -0.29296875 68.0390625 -0.29296875 71.625 -0.1875 C72.81351562 -0.16042969 74.00203125 -0.13335937 75.2265625 -0.10546875 C76.14179688 -0.07066406 77.05703125 -0.03585937 78 0 C75.47319901 7.69168158 72.78254963 15.32128859 70.0703125 22.94921875 C69.5932612 24.29284665 69.11628308 25.63650053 68.63937378 26.98017883 C67.38938337 30.50132252 66.13833949 34.02209101 64.88708496 37.54278564 C63.87773482 40.38337146 62.86912083 43.22421836 61.86055183 46.0650816 C57.25151381 59.04737887 52.63623537 72.02738676 48 85 C42.06 85 36.12 85 30 85 C28.60201172 80.97039062 28.60201172 80.97039062 27.17578125 76.859375 C20.24677533 56.91307042 13.25272325 36.99447651 6.03833008 17.14941406 C5.77984283 16.43797745 5.52135559 15.72654083 5.2550354 14.99354553 C4.56525226 13.09645073 3.87387942 11.19993415 3.18237305 9.3034668 C2.07788459 6.21760405 1.0364576 3.10937281 0 0 Z " fill="#FCFAFF" transform="translate(260,347)"/>
<path d="M0 0 C1.12547241 -0.00855011 1.12547241 -0.00855011 2.27368164 -0.01727295 C3.86749867 -0.02673144 5.46133533 -0.03326029 7.05517578 -0.03710938 C9.46292849 -0.04672692 11.86979472 -0.07770323 14.27734375 -0.109375 C31.38722799 -0.23127069 31.38722799 -0.23127069 37.5 3.203125 C40.69597795 6.85276644 41.03064753 9.2770064 40.84375 14.01953125 C40.30743686 17.42633861 39.07784883 18.95576961 36.5 21.203125 C27.79939243 25.63252522 19.63518596 25.41556664 10.0625 25.453125 C8.09700195 25.4840625 8.09700195 25.4840625 6.09179688 25.515625 C4.19204102 25.52335937 4.19204102 25.52335937 2.25390625 25.53125 C1.10220947 25.5405957 -0.0494873 25.54994141 -1.23608398 25.55957031 C-6.23149947 25.01403163 -9.45911915 23.35653351 -12.8125 19.640625 C-15.61984493 15.58557122 -16.07253253 13.19233702 -15.5 8.203125 C-11.21315106 1.51564065 -7.7590541 0.0455526 0 0 Z " fill="#9260FF" transform="translate(781.5,201.796875)"/>
<path d="M0 0 C0.74844177 -0.00287018 1.49688354 -0.00574036 2.26800537 -0.00869751 C3.84811156 -0.01073304 5.42824323 -0.00523893 7.00830078 0.00732422 C9.40065405 0.02329583 11.79129475 0.0075064 14.18359375 -0.01171875 C23.04164839 -0.02369887 31.0688807 0.03792906 38.734375 5.0859375 C40.83512294 8.46540158 40.77280277 11.58749052 40.171875 15.3984375 C38.46154175 20.10185393 35.5255071 21.5712964 31.20703125 23.6015625 C24.63728883 26.17397604 17.82028766 25.62120655 10.859375 25.6484375 C9.55291016 25.6690625 8.24644531 25.6896875 6.90039062 25.7109375 C-7.06244976 25.76772587 -7.06244976 25.76772587 -13.203125 20.2734375 C-15.4114857 16.36633779 -16.03146683 12.8719578 -15.828125 8.3984375 C-12.97062048 1.09592596 -7.2204217 -0.06162304 0 0 Z " fill="#9260FF" transform="translate(387.828125,201.6015625)"/>
<path d="M0 0 C1.10021484 -0.0299707 1.10021484 -0.0299707 2.22265625 -0.06054688 C8.70069479 -0.05475257 12.14352955 2.20649886 16.84765625 6.66015625 C19.11781853 10.47596094 19.05484512 13.5180891 18.9375 17.875 C18.94458984 18.61298828 18.95167969 19.35097656 18.95898438 20.11132812 C18.90335743 24.925198 18.11148104 28.26412839 15.5 32.4375 C10.4024073 37.03776658 7.02841291 37.66484472 0.3125 37.75 C-0.43064453 37.77900391 -1.17378906 37.80800781 -1.93945312 37.83789062 C-7.61505921 37.90255573 -10.85045157 36.72263434 -15.5 33.4375 C-19.44883236 29.26104071 -19.83726809 23.97346337 -20.0625 18.4375 C-19.8966332 13.1011646 -19.17672961 9.40549037 -16.1796875 4.98828125 C-11.28387607 0.46819489 -6.33177291 -0.06120343 0 0 Z " fill="#9260FF" transform="translate(397.5,126.5625)"/>
<path d="M0 0 C3.87408092 1.70958495 6.79108669 4.12989386 8.69140625 8.0234375 C10.3853165 14.36228403 10.47157027 21.5293921 7.97265625 27.60546875 C5.33710542 31.95877858 2.22554178 34.70997566 -2.6875 36.34765625 C-5.30789714 36.52196838 -7.87812084 36.6245006 -10.5 36.66015625 C-11.54897461 36.70366211 -11.54897461 36.70366211 -12.61914062 36.74804688 C-19.00778505 36.82573853 -22.34856538 34.51449534 -27.0234375 30.18359375 C-29.40974064 26.11679544 -29.34838999 22.60964304 -29.3125 17.97265625 C-29.34472656 17.14765625 -29.37695312 16.32265625 -29.41015625 15.47265625 C-29.41908426 9.84801294 -28.21068042 6.8427508 -24.36865234 2.73583984 C-18.02454095 -2.50270465 -7.66096297 -1.85956514 0 0 Z " fill="#925FFF" transform="translate(801.6875,127.65234375)"/>
<path d="M0 0 C4.31863595 1.70946006 5.98063407 3.88132463 8 8 C8.38818359 11.50170898 8.38818359 11.50170898 8.3984375 15.49609375 C8.40130768 16.20725845 8.40417786 16.91842316 8.40713501 17.65113831 C8.40916907 19.14967651 8.40368529 20.64824167 8.39111328 22.14672852 C8.37507241 24.42720626 8.3909703 26.70590563 8.41015625 28.98632812 C8.40817323 30.44792054 8.40432835 31.90951186 8.3984375 33.37109375 C8.39505371 34.69036865 8.39166992 36.00964355 8.38818359 37.36889648 C7.8747248 42.17183526 6.53642797 45.6032473 2.9375 48.875 C-2.28477659 50.87502082 -7.60112963 50.83438969 -12.875 49 C-17.87578331 44.29338042 -19.24579381 39.25289255 -19.49609375 32.59375 C-19.49741185 30.22908637 -19.47737713 27.86432773 -19.4375 25.5 C-19.44458984 24.31535156 -19.45167969 23.13070312 -19.45898438 21.91015625 C-19.40298855 14.18273248 -18.9896299 7.73703737 -14 1.5 C-9.39688478 -0.80155761 -5.04630792 -0.62318863 0 0 Z " fill="#9260FF" transform="translate(908,130)"/>
<path d="M0 0 C6.95535861 3.5458691 11.15602725 9.061906 13.875 16.3125 C14.24724773 19.29048188 14.125 22.31134282 14.125 25.3125 C-2.045 25.3125 -18.215 25.3125 -34.875 25.3125 C-34.875 16.80266872 -32.90835785 10.52330955 -26.875 4.3125 C-18.58892654 -1.85798024 -9.83855894 -4.0637526 0 0 Z " fill="#9260FF" transform="translate(210.875,357.6875)"/>
<path d="M0 0 C6.95535861 3.5458691 11.15602725 9.061906 13.875 16.3125 C14.24724773 19.29048188 14.125 22.31134282 14.125 25.3125 C-2.045 25.3125 -18.215 25.3125 -34.875 25.3125 C-34.875 16.80266872 -32.90835785 10.52330955 -26.875 4.3125 C-18.58892654 -1.85798024 -9.83855894 -4.0637526 0 0 Z " fill="#9260FF" transform="translate(210.875,128.6875)"/>
<path d="M0 0 C5.96594208 3.34813601 9.25115292 7.86615182 12.0625 14 C12.6875 17 12.6875 17 12.6875 25 C-3.4825 25 -19.6525 25 -36.3125 25 C-35.318233 15.05732998 -33.97772421 10.14103886 -26.9375 3.6875 C-18.7691231 -2.74553503 -9.58032435 -4.270747 0 0 Z " fill="#9260FF" transform="translate(409.3125,358)"/>
<path d="M0 0 C5.96594208 3.34813601 9.25115292 7.86615182 12.0625 14 C12.6875 17 12.6875 17 12.6875 25 C-3.4825 25 -19.6525 25 -36.3125 25 C-35.318233 15.05732998 -33.97772421 10.14103886 -26.9375 3.6875 C-18.7691231 -2.74553503 -9.58032435 -4.270747 0 0 Z " fill="#9260FF" transform="translate(606.3125,129)"/>
<path d="M0 0 C5.82729726 3.26106301 8.84987828 7.74239786 12.0625 13.4375 C12.6875 16 12.6875 16 12.6875 25 C-3.1525 25 -18.9925 25 -35.3125 25 C-35.3125 16.54383286 -35.05677041 12.05290875 -29.51171875 6.05078125 C-20.92348842 -1.90375441 -11.03390977 -4.91873086 0 0 Z " fill="#925FFF" transform="translate(803.3125,358)"/>
<path d="M0 0 C1.640625 1.0390625 1.640625 1.0390625 3.890625 4.2890625 C4.59598534 8.39246827 4.75527242 12.20725291 3.890625 16.2890625 C2.00816751 18.55953674 0.52177874 19.97348563 -2.109375 21.2890625 C-4.22977326 21.46338096 -6.35730808 21.55615321 -8.484375 21.6015625 C-9.62648438 21.63894531 -10.76859375 21.67632812 -11.9453125 21.71484375 C-15.72512422 21.20620242 -16.7958984 20.24395323 -19.109375 17.2890625 C-21.1091029 13.2896067 -20.72838513 8.62838604 -20.109375 4.2890625 C-15.44234447 -2.32256408 -7.37391873 -2.48528372 0 0 Z " fill="#FDFCFF" transform="translate(997.109375,411.7109375)"/>
<path d="M0 0 C1.640625 1.06640625 1.640625 1.06640625 3.890625 4.25390625 C4.71671395 9.42461116 4.94008983 14.78722219 1.890625 19.25390625 C-1.41253203 21.61115922 -4.63483669 21.58332668 -8.609375 21.62890625 C-9.7334375 21.65726562 -10.8575 21.685625 -12.015625 21.71484375 C-15.72697784 21.16188967 -16.82211273 20.15613998 -19.109375 17.25390625 C-21.1091029 13.25445045 -20.72838513 8.59322979 -20.109375 4.25390625 C-15.46601682 -2.3241845 -7.329841 -2.59259191 0 0 Z " fill="#FDFCFF" transform="translate(997.109375,346.74609375)"/>
</svg>
