<?xml version="1.0" encoding="UTF-8"?>
<svg version="1.1" xmlns="http://www.w3.org/2000/svg" width="1080" height="1080">
<path d="M0 0 C356.4 0 712.8 0 1080 0 C1080 356.4 1080 712.8 1080 1080 C723.6 1080 367.2 1080 0 1080 C0 723.6 0 367.2 0 0 Z " fill="#915EFF" transform="translate(0,0)"/>
<path d="M0 0 C356.4 0 712.8 0 1080 0 C1080 356.4 1080 712.8 1080 1080 C723.6 1080 367.2 1080 0 1080 C0 723.6 0 367.2 0 0 Z M47 42 C47 370.68 47 699.36 47 1038 C374.03 1038 701.06 1038 1038 1038 C1038 709.32 1038 380.64 1038 42 C710.97 42 383.94 42 47 42 Z " fill="#FEFEFF" transform="translate(0,0)"/>
<path d="M0 0 C1.33514648 -0.01160156 1.33514648 -0.01160156 2.69726562 -0.0234375 C29.63420001 0.05526793 54.01594228 19.46786788 73.40625 36.48828125 C73.9326709 36.94468994 74.4590918 37.40109863 75.00146484 37.87133789 C76.057957 38.80440189 77.09458383 39.76036784 78.11181641 40.73608398 C80.52180964 42.96155607 81.93299136 44.22188074 85.2734375 44.37109375 C86.15257812 44.14550781 87.03171875 43.91992188 87.9375 43.6875 C88.81148437 43.47996094 89.68546875 43.27242187 90.5859375 43.05859375 C91.56820312 42.79175781 92.55046875 42.52492188 93.5625 42.25 C121.41714024 34.68860088 153.20164848 34.72140423 181.1953125 41.5859375 C182.55100342 41.90643066 182.55100342 41.90643066 183.93408203 42.23339844 C185.63504331 42.64860615 187.32768971 43.10026256 189.00732422 43.59472656 C191.36411671 44.17681088 193.14685774 44.52088904 195.5625 44.25 C198.38122346 42.31979115 200.36884001 39.84352199 202.5625 37.25 C204.58440381 35.41419966 206.71924402 33.73805474 208.875 32.0625 C209.76179443 31.37148193 209.76179443 31.37148193 210.66650391 30.66650391 C233.63220433 13.04662588 257.7305619 -3.18999206 287.9140625 0.6796875 C301.21873183 3.30177562 312.17337239 9.57275836 321.5625 19.25 C322.47902344 20.15298828 322.47902344 20.15298828 323.4140625 21.07421875 C343.8608752 42.59472252 353.00362352 76.50343964 358.99755859 104.61035156 C359.58980917 107.37760014 360.21022858 110.13769007 360.83203125 112.8984375 C371.83334419 162.57442635 374.70887932 214.49367725 375.5625 265.25 C375.58501831 266.51884033 375.60753662 267.78768066 375.6307373 269.0949707 C375.77191945 277.19181485 375.87969862 285.28826984 375.94094372 293.3861351 C375.96980418 297.1680944 376.00820208 300.94929813 376.07254028 304.73083496 C376.5298365 332.58976979 372.55867012 357.53372101 353.5625 379.25 C353.03398438 379.90871094 352.50546875 380.56742188 351.9609375 381.24609375 C340.05776111 395.71606885 323.49529948 405.25546305 305.74389648 410.58691406 C304.2521311 411.04037067 302.77217639 411.534096 301.30493164 412.06152344 C292.73226946 414.87310924 284.12141578 414.7738115 275.19213867 414.75097656 C272.50136449 414.75000049 269.81341409 414.79181303 267.12304688 414.8359375 C256.32120688 414.91214504 248.6157467 414.17854981 239.9765625 407.14453125 C233.25716799 399.32479921 229.64075524 391.82233618 230.05859375 381.3359375 C231.50296963 372.49053483 236.22737343 365.80197232 242.828125 359.96875 C252.8324829 353.68029646 262.12966625 353.73523498 273.6875 353.84960938 C285.19245538 353.7466703 294.66289211 350.69366228 303.58984375 343.2734375 C311.3797356 335.28301378 313.87501458 326.23768345 313.828125 315.40625 C313.83089951 314.42975494 313.83367401 313.45325989 313.83653259 312.44717407 C313.8407292 309.21464507 313.82795191 305.98249153 313.8125 302.75 C313.80973053 301.63220154 313.80696106 300.51440308 313.80410767 299.36273193 C316.34517441 176.27162329 316.34517441 176.27162329 277.5625 62.25 C272.78996834 62.79751797 269.22641142 64.97565713 265.25 67.5 C264.55575928 67.93820068 263.86151855 68.37640137 263.14624023 68.82788086 C242.39411794 82.24308763 227.40990558 98.66629569 215.5625 120.25 C212.31933424 119.0488275 209.23967423 117.6192259 206.1484375 116.078125 C194.54949703 110.31340227 183.11535241 105.49527664 170.5625 102.25 C169.56814941 101.98533936 169.56814941 101.98533936 168.55371094 101.71533203 C149.27840587 96.81145336 126.772697 97.23508927 107.5625 102.25 C106.79212402 102.44335938 106.02174805 102.63671875 105.22802734 102.8359375 C91.34032697 106.39928331 77.93760173 111.54943479 65.65234375 119.01953125 C63.5625 120.25 63.5625 120.25 61.5625 120.25 C61.16160156 119.45078125 60.76070312 118.6515625 60.34765625 117.828125 C48.8629144 95.63991626 31.75521551 79.95851246 11 66.5625 C9.98135864 65.89214722 9.98135864 65.89214722 8.94213867 65.20825195 C5.46076249 62.86323819 5.46076249 62.86323819 1.43896484 62.53149414 C-4.60380229 64.84529373 -8.27814598 76.55638924 -10.82910156 82.04248047 C-23.31000682 110.17611972 -26.78345674 141.98218507 -30.4375 172.25 C-30.56091766 173.26235718 -30.56091766 173.26235718 -30.68682861 174.29516602 C-32.08802027 185.79186674 -33.42449668 197.23612704 -33.875 208.8125 C-34.42935593 219.43939866 -37.52608218 227.01532261 -45.4375 234.25 C-53.13005053 240.30846164 -61.72973455 242.39902231 -71.4375 241.25 C-79.0019428 239.41408301 -85.61746292 235.3935352 -90.4375 229.25 C-94.66949653 221.91438634 -96.25718101 215.60005834 -96.0625 207.1875 C-96.05065674 206.10750732 -96.03881348 205.02751465 -96.02661133 203.91479492 C-95.61992421 188.33579636 -93.40078863 172.84463398 -91.36584473 157.41181946 C-90.77114947 152.89481652 -90.21638869 148.38059174 -89.75390625 143.84765625 C-85.03054875 98.9308922 -72.37105245 41.74099822 -36.1875 11.5 C-25.26439941 3.40810586 -13.39598166 -0.1158989 0 0 Z " fill="#FEFEFF" transform="translate(216.4375,506.75)"/>
<path d="M0 0 C0.73927734 -0.03673828 1.47855469 -0.07347656 2.24023438 -0.11132812 C11.42041566 -0.18236994 18.3397674 4.46240692 24.82569885 10.64143372 C27.43192235 13.21552622 29.96987452 15.85139372 32.5 18.5 C34.5511805 20.61797955 36.60914293 22.72929832 38.66796875 24.83984375 C39.41487221 25.60863609 39.41487221 25.60863609 40.17686462 26.39295959 C42.7341456 29.01041817 45.32306286 31.52666781 48.109375 33.8984375 C54.14353153 39.0371479 59.72244347 44.67289287 65.34887695 50.2487793 C66.69606726 51.57941178 68.0486002 52.90465747 69.40649414 54.22436523 C82.50664851 66.95987776 91.95854143 78.642947 92.5625 97.75 C92.27769701 120.85068683 76.57531392 134.48508154 61.38647461 149.61889648 C59.61258997 151.38737219 57.84418223 153.16120044 56.07617188 154.93554688 C50.92338509 160.09085609 45.76363344 165.13757605 40.21069336 169.86499023 C37.94382013 171.89220175 35.84090609 174.04084312 33.7265625 176.2265625 C32.94023437 177.03867187 32.15390625 177.85078125 31.34375 178.6875 C29.73941867 180.35433775 28.14302994 182.02885682 26.5546875 183.7109375 C19.85043691 190.59046262 12.86743552 196.11122607 2.89550781 196.25683594 C2.20811523 196.23395508 1.52072266 196.21107422 0.8125 196.1875 C-0.28433105 196.16864746 -0.28433105 196.16864746 -1.40332031 196.14941406 C-7.70043064 195.87902021 -12.48683749 194.17261784 -17.6875 190.5625 C-18.615625 189.964375 -19.54375 189.36625 -20.5 188.75 C-26.83396777 182.41603223 -29.70221588 175.1086158 -30 166.1875 C-29.62840917 151.07613952 -19.50795357 142.05673224 -9.3449707 132.01416016 C-7.75085909 130.43834922 -6.16494074 128.85463871 -4.58007812 127.26953125 C0.31369565 122.39319123 5.26262219 117.63493268 10.51391602 113.140625 C13.58733055 110.44393007 16.44435364 107.53660313 19.3125 104.625 C19.89644531 104.03654297 20.48039062 103.44808594 21.08203125 102.84179688 C22.49454805 101.41770207 23.9038781 99.9904475 25.3125 98.5625 C21.43692694 93.80108166 17.26735835 89.40733408 12.9375 85.0625 C12.40874268 84.52923096 11.87998535 83.99596191 11.33520508 83.4465332 C8.51869822 80.64028529 5.64249559 77.95319363 2.62890625 75.359375 C-2.37044102 71.02420959 -7.12836967 66.45172783 -11.84301758 61.81201172 C-12.86352206 60.81313705 -13.89024484 59.82057565 -14.9230957 58.83447266 C-22.65291838 51.44904196 -28.45875735 44.47503546 -30.38671875 33.62890625 C-30.35368424 23.75158716 -28.68875629 15.56375629 -21.49609375 8.37109375 C-19.28651837 6.58025347 -17.12746802 5.0224142 -14.6875 3.5625 C-13.78386719 3.01851562 -12.88023438 2.47453125 -11.94921875 1.9140625 C-7.83451177 0.2090462 -4.40998999 0.01124042 0 0 Z " fill="#FEFEFF" transform="translate(132.6875,793.4375)"/>
<path d="M0 0 C49.46859903 0 49.46859903 0 60 10 C60.81210938 10.76957031 60.81210938 10.76957031 61.640625 11.5546875 C72.97687155 23.52072553 74.56523799 41.12911368 74.4375 56.8125 C74.42992676 58.12331543 74.42235352 59.43413086 74.41455078 60.78466797 C74.14151029 76.89007082 71.5841007 93.25449043 60.125 105.5 C43.82123705 120.43995008 20.76034821 115 0 115 C0 77.05 0 39.1 0 0 Z " fill="#FCFBFF" transform="translate(68,317)"/>
<path d="M0 0 C49.46859903 0 49.46859903 0 60 10 C60.81210938 10.76957031 60.81210938 10.76957031 61.640625 11.5546875 C72.97687155 23.52072553 74.56523799 41.12911368 74.4375 56.8125 C74.42992676 58.12331543 74.42235352 59.43413086 74.41455078 60.78466797 C74.14151029 76.89007082 71.5841007 93.25449043 60.125 105.5 C43.82123705 120.43995008 20.76034821 115 0 115 C0 77.05 0 39.1 0 0 Z " fill="#FCFBFF" transform="translate(68,88)"/>
<path d="M0 0 C1.7343807 -0.00015525 3.46876175 -0.0016485 5.20314026 -0.00440979 C8.82674622 -0.00578917 12.44995417 0.00668523 16.07348633 0.02954102 C20.6943415 0.05790292 25.31453515 0.05518788 29.93543911 0.0424509 C33.51391648 0.03546072 37.09224378 0.04332128 40.67070198 0.05570793 C42.37336716 0.06019156 44.07604862 0.06058656 45.77871513 0.05664253 C58.54377151 0.04091303 70.18703781 0.63945401 80.19140625 9.49609375 C87.44995056 18.3089302 89.18786276 26.16928429 88.19140625 37.49609375 C86.17864503 45.6194534 80.62422091 51.77844881 74.19140625 56.87109375 C68.30048423 60.06200985 62.57675339 60.79817711 55.96801758 60.81835938 C55.17672455 60.82828918 54.38543152 60.83821899 53.57015991 60.84844971 C50.97121606 60.87748344 48.3725164 60.89126223 45.7734375 60.90234375 C44.87913214 60.9079985 43.98482677 60.91365326 43.06342125 60.91947937 C38.32929698 60.94938191 33.59529328 60.96789117 28.86108398 60.9765625 C24.00018525 60.98751138 19.14041276 61.03554368 14.27986622 61.09250641 C10.51603595 61.12997525 6.752471 61.14018173 2.98847008 61.14323425 C1.19807476 61.1492414 -0.59231849 61.16514148 -2.38252831 61.19160461 C-14.10498938 61.35250149 -23.75241292 60.69086892 -33.02482605 52.55041504 C-39.0254087 46.48069025 -41.93691676 39.07563991 -42.43359375 30.62109375 C-42.07289385 21.56868983 -38.0085077 14.16574907 -31.49609375 7.99609375 C-22.0435918 -0.21407937 -11.87936612 -0.08689397 0 0 Z " fill="#FEFDFF" transform="translate(312.80859375,860.50390625)"/>
<path d="M0 0 C9.40354262 7.56371906 13.9647957 16.52319004 15.875 28.3125 C16.16272071 31.92174742 16.20921742 35.50542926 16.1875 39.125 C16.18012817 40.5785791 16.18012817 40.5785791 16.17260742 42.06152344 C15.96223526 54.92551128 13.07524468 66.97548867 4.1875 76.6875 C-2.97347324 83.2873522 -10.41650042 84.9855305 -20.015625 84.625 C-28.6415333 83.75807454 -34.16379042 80.58390827 -40.125 74.3125 C-41.115 72.9925 -42.105 71.6725 -43.125 70.3125 C-43.455 85.1625 -43.785 100.0125 -44.125 115.3125 C-48.415 115.3125 -52.705 115.3125 -57.125 115.3125 C-57.125 76.3725 -57.125 37.4325 -57.125 -2.6875 C-52.835 -2.6875 -48.545 -2.6875 -44.125 -2.6875 C-43.795 1.2725 -43.465 5.2325 -43.125 9.3125 C-41.97 7.91 -40.815 6.5075 -39.625 5.0625 C-28.99694493 -6.92232806 -13.63088205 -7.36067631 0 0 Z " fill="#FDFCFF" transform="translate(717.125,349.6875)"/>
<path d="M0 0 C9.34986005 6.35719651 13.33493978 15.97054615 15.6875 26.71484375 C16.18526598 32.25514027 16.15811138 37.73953667 16.078125 43.296875 C16.07064313 44.84770469 16.06495944 46.39854398 16.06097412 47.9493866 C16.04587041 51.98547544 16.00672558 56.0209671 15.9621582 60.05682373 C15.92087114 64.19339932 15.90289254 68.33007361 15.8828125 72.46679688 C15.8402121 80.54974994 15.77215237 88.63222208 15.6875 96.71484375 C11.7275 96.71484375 7.7675 96.71484375 3.6875 96.71484375 C3.1925 92.75484375 3.1925 92.75484375 2.6875 88.71484375 C2.15125 89.62234375 1.615 90.52984375 1.0625 91.46484375 C-1.31983796 94.93155623 -3.41574646 96.90563675 -7.3125 98.71484375 C-13.45015042 99.73048918 -18.81291274 99.5402697 -24.25 96.33984375 C-31.06135713 91.10793175 -33.90054544 82.96894873 -35.3125 74.71484375 C-36.47545964 60.55161097 -37.26072596 45.59026502 -27.8125 34.08984375 C-24.59029125 30.61864614 -22.05280778 28.90821128 -17.2890625 28.37890625 C-6.02123786 28.24757962 -6.02123786 28.24757962 -1.3125 32.71484375 C1.0625 35.46484375 1.0625 35.46484375 2.6875 37.71484375 C3.0365695 28.28996714 2.1701521 19.06298081 -4.3125 11.71484375 C-11.5141358 6.14407166 -19.54141682 5.96993118 -28.3125 6.71484375 C-34.02275904 8.30607836 -38.2378227 11.62344263 -41.3125 16.71484375 C-48.2374791 29.79267884 -47.63773418 45.0380698 -47.57324219 59.4284668 C-47.56250471 62.27609478 -47.57320419 65.12309397 -47.5859375 67.97070312 C-47.83114568 90.71235577 -47.83114568 90.71235577 -38.55859375 110.9140625 C-30.25112633 118.9194402 -19.66059186 119.18826448 -8.6875 119.40234375 C-7.49253906 119.43650391 -6.29757812 119.47066406 -5.06640625 119.50585938 C-2.14853149 119.58755987 0.76907218 119.65696128 3.6875 119.71484375 C3.6875 123.01484375 3.6875 126.31484375 3.6875 129.71484375 C-0.66831651 129.81491553 -5.02349593 129.88686823 -9.38012695 129.93457031 C-10.85713378 129.95448862 -12.33406384 129.98163382 -13.81079102 130.01660156 C-25.06552478 130.27612069 -35.74132987 129.76655957 -44.5625 121.83984375 C-56.31789686 110.43953837 -60.14724721 93.15518318 -60.45776367 77.24926758 C-60.47095391 75.64017298 -60.47827091 74.03102216 -60.48046875 72.421875 C-60.48379715 71.55398849 -60.48712555 70.68610199 -60.49055481 69.79191589 C-60.49559015 67.9640658 -60.49796419 66.13620663 -60.49780273 64.30834961 C-60.49998019 61.55241231 -60.51814756 58.79688186 -60.53710938 56.04101562 C-60.59729613 37.46752831 -59.19447113 18.42674276 -46.5703125 3.6796875 C-34.14356229 -8.46346468 -14.51152764 -8.06468343 0 0 Z " fill="#FCFBFF" transform="translate(616.3125,91.28515625)"/>
<path d="M0 0 C8.2867572 6.82292884 12.77372633 15.71204553 15.171875 26.0859375 C15.46657997 29.29942314 15.50561819 32.48535923 15.484375 35.7109375 C15.47700317 37.03218628 15.47700317 37.03218628 15.46948242 38.38012695 C15.27407909 49.34175286 13.31709097 58.87780631 7.171875 68.0859375 C6.594375 68.9728125 6.016875 69.8596875 5.421875 70.7734375 C-2.71808884 79.13951145 -12.20843312 82.32917857 -23.703125 82.5859375 C-34.3996434 82.52329684 -43.17280321 78.88344141 -50.859375 71.43359375 C-60.61218032 59.80376043 -63.06889483 43.82220389 -61.828125 29.0859375 C-60.0393676 17.61847729 -55.20947189 7.06905568 -46.0546875 -0.3515625 C-32.04048531 -9.96130115 -13.88865027 -9.39977711 0 0 Z " fill="#FCFAFF" transform="translate(617.828125,351.9140625)"/>
<path d="M0 0 C8.2867572 6.82292884 12.77372633 15.71204553 15.171875 26.0859375 C15.46657997 29.29942314 15.50561819 32.48535923 15.484375 35.7109375 C15.47700317 37.03218628 15.47700317 37.03218628 15.46948242 38.38012695 C15.27407909 49.34175286 13.31709097 58.87780631 7.171875 68.0859375 C6.594375 68.9728125 6.016875 69.8596875 5.421875 70.7734375 C-2.71808884 79.13951145 -12.20843312 82.32917857 -23.703125 82.5859375 C-34.3996434 82.52329684 -43.17280321 78.88344141 -50.859375 71.43359375 C-60.61218032 59.80376043 -63.06889483 43.82220389 -61.828125 29.0859375 C-60.0393676 17.61847729 -55.20947189 7.06905568 -46.0546875 -0.3515625 C-32.04048531 -9.96130115 -13.88865027 -9.39977711 0 0 Z " fill="#FCFAFF" transform="translate(420.828125,122.9140625)"/>
<path d="M0 0 C8.85916132 6.11441424 13.71566878 13.77000576 17.375 23.75 C18.30907838 30.10173295 18 36.57995219 18 43 C-2.79 43 -23.58 43 -45 43 C-42.88938859 57.79184461 -42.88938859 57.79184461 -33.8125 68.625 C-26.57658713 72.42195578 -17.92331377 72.34844908 -10 71 C-2.93928342 68.54895953 1.21810598 64.30315671 5 58 C7.97 59.65 10.94 61.3 14 63 C14 68.5503378 11.70528399 71.03496414 8 75 C-2.04016355 83.54848211 -13.26818767 85.01821877 -26.015625 84.19824219 C-35.81381756 83.21938732 -42.49380657 78.08832653 -49 71 C-58.4076963 59.46862543 -60.27300169 45.5302563 -59 31 C-56.56228708 18.22638431 -50.66514936 7.59541065 -40 0 C-27.14881423 -7.1052229 -12.95408943 -7.10063695 0 0 Z " fill="#FCFBFF" transform="translate(221,350)"/>
<path d="M0 0 C6.63532003 4.14707502 9.57655504 9.72966512 12 17 C12.0878506 18.73345807 12.11764814 20.47013269 12.11352539 22.20581055 C12.11341209 23.79712044 12.11341209 23.79712044 12.11329651 25.420578 C12.10813522 26.56440445 12.10297394 27.7082309 12.09765625 28.88671875 C12.0962413 30.05886429 12.09482635 31.23100983 12.09336853 32.43867493 C12.08776388 36.18830907 12.07521056 39.93788385 12.0625 43.6875 C12.0574856 46.22721268 12.05292259 48.7669263 12.04882812 51.30664062 C12.03779294 57.53778335 12.02052515 63.7688816 12 70 C15.96 70 19.92 70 24 70 C24 73.96 24 77.92 24 82 C21.60347472 82.08139142 19.20974564 82.14067009 16.8125 82.1875 C16.13896484 82.21263672 15.46542969 82.23777344 14.77148438 82.26367188 C10.28109527 82.32938489 7.58731789 81.70865623 4 79 C1.0245841 75.91831925 0.47809239 73.20721299 0 69 C-0.66 69 -1.32 69 -2 69 C-2.3403125 70.0828125 -2.3403125 70.0828125 -2.6875 71.1875 C-5.2578283 76.69534636 -9.87591487 79.94735354 -15 83 C-23.40432433 85.90401138 -35.05156175 84.99635365 -42.953125 81.19140625 C-50.15688029 76.99838075 -53.4019025 71.79429249 -56 64 C-56.67298989 56.55298071 -56.61549059 50.12651429 -52 44 C-46.34308218 37.39001451 -38.56991269 34.36610803 -30.01391602 33.68066406 C-25.61099699 33.56052847 -21.21490788 33.64911248 -16.8125 33.75 C-15.2728099 33.77011183 -13.7330942 33.78835426 -12.19335938 33.8046875 C-8.46169792 33.84827539 -4.73101842 33.91703884 -1 34 C-1.12470023 31.76255395 -1.25945568 29.52566685 -1.3984375 27.2890625 C-1.47239746 26.04334473 -1.54635742 24.79762695 -1.62255859 23.51416016 C-2.09243742 19.13936338 -2.96735087 15.28148188 -6 12 C-11.24929648 8.33403325 -15.09420389 7.33611437 -21.4375 7.5 C-22.18813721 7.51281006 -22.93877441 7.52562012 -23.7121582 7.53881836 C-30.41227397 7.78480801 -35.00657489 8.96761491 -39.80078125 13.82421875 C-41.27068274 15.49010711 -42.64542708 17.2390552 -44 19 C-46.97 17.02 -49.94 15.04 -53 13 C-50.01875149 5.54687873 -45.39627922 1.25771058 -38.1875 -2.17578125 C-25.18448384 -7.07513198 -12.26204785 -6.52712941 0 0 Z " fill="#FCFAFF" transform="translate(218,121)"/>
<path d="M0 0 C7.69300838 5.93460647 12.00775455 14.52711194 14.32421875 23.79296875 C14.32421875 29.40296875 14.32421875 35.01296875 14.32421875 40.79296875 C-6.13578125 40.79296875 -26.59578125 40.79296875 -47.67578125 40.79296875 C-46.7767012 54.31596393 -46.7767012 54.31596393 -39.23828125 64.16796875 C-32.05778967 70.13227498 -23.48532386 69.47931379 -14.67578125 68.79296875 C-7.83692805 67.21984412 -3.60669444 63.49279287 0.32421875 57.79296875 C0.81921875 56.80296875 0.81921875 56.80296875 1.32421875 55.79296875 C5.31922493 57.16268515 8.12431367 59.05019297 11.32421875 61.79296875 C10.22989952 67.87252005 5.72723584 72.03972748 0.8828125 75.57421875 C-9.82790863 82.24593512 -21.6450684 83.69190001 -33.9453125 81.10546875 C-43.76392317 77.80971132 -51.37365633 71.69847954 -56.67578125 62.79296875 C-62.97105199 50.01166148 -64.63973131 33.17428033 -60.05078125 19.54296875 C-59.30993478 17.93522901 -58.51865287 16.34964726 -57.67578125 14.79296875 C-57.26328125 13.93832031 -56.85078125 13.08367187 -56.42578125 12.203125 C-51.67476918 3.22749141 -44.84556576 -2.44374934 -35.23828125 -5.70703125 C-22.38233217 -9.10208823 -11.19365099 -7.11684247 0 0 Z " fill="#FCFBFF" transform="translate(815.67578125,352.20703125)"/>
<path d="M0 0 C3.04236887 2.05148277 5.52760612 4.2956424 8 7 C8.82951172 7.89332031 8.82951172 7.89332031 9.67578125 8.8046875 C18.29263588 19.11070222 18 29.58692853 18 43 C-2.79 43 -23.58 43 -45 43 C-43.79550614 54.1298156 -43.79550614 54.1298156 -39.0234375 62.51171875 C-38 64 -38 64 -38 66 C-36.68922893 66.710001 -35.3465266 67.36039986 -34 68 C-32.9275 68.53625 -31.855 69.0725 -30.75 69.625 C-23.64726431 72.21023588 -14.28655679 72.40571295 -7.10546875 70.05078125 C-2.77838012 67.77600995 0.28847366 65.12152004 3 61 C3.99 59.515 3.99 59.515 5 58 C8.99500618 59.3697164 11.80009492 61.25722422 15 64 C13.1716011 70.50097388 8.6869761 75.3702524 3.01171875 78.8125 C-7.9648927 84.38792169 -19.37771777 85.97273198 -31.5 83.19921875 C-42.61262465 78.98857582 -49.8732478 71.65564862 -54.84375 60.9921875 C-59.64760086 48.56060048 -60.51586684 32.25843174 -55.9375 19.5625 C-51.59731799 10.39447508 -45.19856972 2.02910112 -35.6328125 -1.99609375 C-33.43388536 -2.74949666 -31.24840278 -3.41254138 -29 -4 C-28.36449219 -4.18175781 -27.72898437 -4.36351562 -27.07421875 -4.55078125 C-17.39653556 -6.64670134 -8.65076294 -4.48977998 0 0 Z " fill="#FCFBFF" transform="translate(418,350)"/>
<path d="M0 0 C28.78763298 0 28.78763298 0 37.20703125 7.8984375 C42.13445224 13.67393313 45.06049474 20.72089674 45.19287109 28.30273438 C45.20893402 29.14461304 45.22499695 29.9864917 45.24154663 30.85388184 C45.2865044 34.71637802 45.32710541 38.57870853 45.35009766 42.44140625 C45.36658356 44.46626335 45.39377502 46.49106405 45.43212891 48.515625 C45.67900935 61.63678377 45.66851065 72.4578948 37.6875 83.5 C26.70401984 93.71719084 15.41039999 91 0 91 C0 60.97 0 30.94 0 0 Z " fill="#925FFF" transform="translate(82,329)"/>
<path d="M0 0 C28.78763298 0 28.78763298 0 37.20703125 7.8984375 C42.13445224 13.67393313 45.06049474 20.72089674 45.19287109 28.30273438 C45.20893402 29.14461304 45.22499695 29.9864917 45.24154663 30.85388184 C45.2865044 34.71637802 45.32710541 38.57870853 45.35009766 42.44140625 C45.36658356 44.46626335 45.39377502 46.49106405 45.43212891 48.515625 C45.67900935 61.63678377 45.66851065 72.4578948 37.6875 83.5 C26.70401984 93.71719084 15.41039999 91 0 91 C0 60.97 0 30.94 0 0 Z " fill="#925FFF" transform="translate(82,100)"/>
<path d="M0 0 C3.92993542 2.65042156 6.08786238 5.91304358 8.6875 9.8125 C9.20699219 9.18601562 9.72648437 8.55953125 10.26171875 7.9140625 C10.95910156 7.09679687 11.65648437 6.27953125 12.375 5.4375 C13.05949219 4.62539062 13.74398437 3.81328125 14.44921875 2.9765625 C18.03882974 -0.49402125 21.57914596 -1.48985538 26.5 -1.625 C31.9405317 -1.47905429 35.8062771 -0.05975934 39.6875 3.8125 C43.98494284 10.5887577 44.81593133 17.74389641 44.80102539 25.64404297 C44.80117142 26.29840836 44.80131744 26.95277374 44.8014679 27.62696838 C44.80077647 29.76957626 44.79302052 31.91209499 44.78515625 34.0546875 C44.78328933 35.54826815 44.78186672 37.04184942 44.78086853 38.53543091 C44.77706494 42.45135207 44.76725324 46.36723568 44.75616455 50.28314209 C44.74590388 54.28511039 44.74136096 58.28708481 44.73632812 62.2890625 C44.72562889 70.13022742 44.70804973 77.9713547 44.6875 85.8125 C40.3975 85.8125 36.1075 85.8125 31.6875 85.8125 C31.657771 82.76189331 31.657771 82.76189331 31.62744141 79.6496582 C31.56048217 72.92408277 31.48284342 66.198661 31.39997292 59.47326374 C31.35006431 55.39635421 31.30373389 51.3194699 31.265625 47.24243164 C31.22870338 43.30657626 31.18232495 39.37093475 31.12943649 35.43526268 C31.11092903 33.9350377 31.09580763 32.43476693 31.08415604 30.93447304 C31.06723077 28.83019823 31.0381817 26.72640933 31.00634766 24.62231445 C30.99302399 23.42540482 30.97970032 22.22849518 30.9659729 20.99531555 C30.69009036 17.84210662 30.10492717 15.62820746 28.6875 12.8125 C25.32552679 10.19763195 21.80070994 10.52385369 17.6875 10.8125 C14.86117074 11.27537521 14.86117074 11.27537521 12.6875 12.8125 C10.86018783 17.16314578 10.42176192 20.95269734 10.36865234 25.64404297 C10.35358391 26.62559105 10.35358391 26.62559105 10.33821106 27.62696838 C10.30755338 29.76953325 10.29039317 31.9119742 10.2734375 34.0546875 C10.25471177 35.54827935 10.23513731 37.04186078 10.2147522 38.53543091 C10.16357322 42.45127194 10.12387173 46.36714721 10.08660889 50.28314209 C10.0464796 54.28520073 9.99542812 58.28711866 9.9453125 62.2890625 C9.84872193 70.13011197 9.76426365 77.97123147 9.6875 85.8125 C5.7275 85.8125 1.7675 85.8125 -2.3125 85.8125 C-2.31836624 84.98644257 -2.32423248 84.16038513 -2.33027649 83.30929565 C-2.38826261 75.51141904 -2.46037315 67.71382704 -2.54821491 59.91622734 C-2.59287715 55.90771381 -2.63214218 51.89930095 -2.65893555 47.890625 C-2.68501025 44.01952626 -2.7254415 40.14881573 -2.77568626 36.27795792 C-2.79232694 34.80369025 -2.80385864 33.32935548 -2.81011391 31.85500717 C-2.819786 29.78427515 -2.8478794 27.71453 -2.88012695 25.64404297 C-2.89678154 23.87865677 -2.89678154 23.87865677 -2.91377258 22.0776062 C-3.36514968 18.38136138 -4.36652361 15.97442329 -6.3125 12.8125 C-10.03829089 10.32863941 -11.89961402 10.4320788 -16.3125 10.8125 C-19.08404486 12.04429771 -20.75250249 12.96464586 -22.42929077 15.50335693 C-23.6064319 18.58098248 -23.59473861 21.21397524 -23.63134766 24.50878906 C-23.64139328 25.17261597 -23.6514389 25.83644287 -23.66178894 26.52038574 C-23.69258633 28.70629033 -23.7096461 30.89207263 -23.7265625 33.078125 C-23.74527696 34.59699554 -23.76485059 36.11585572 -23.7852478 37.63470459 C-23.83654579 41.62619919 -23.87618388 45.61772749 -23.91339111 49.609375 C-23.95344546 53.68498047 -24.00453126 57.76044604 -24.0546875 61.8359375 C-24.15141914 69.82802938 -24.23583264 77.82019058 -24.3125 85.8125 C-28.2725 85.8125 -32.2325 85.8125 -36.3125 85.8125 C-36.3125 57.7625 -36.3125 29.7125 -36.3125 0.8125 C-32.3525 0.8125 -28.3925 0.8125 -24.3125 0.8125 C-23.9825 3.4525 -23.6525 6.0925 -23.3125 8.8125 C-22.796875 7.905 -22.28125 6.9975 -21.75 6.0625 C-16.48462543 -1.70668905 -8.43264223 -3.02302269 0 0 Z " fill="#FCFAFF" transform="translate(295.3125,117.1875)"/>
<path d="M0 0 C1.9921875 1.12109375 1.9921875 1.12109375 3.875 2.4375 C4.93074219 3.16646484 4.93074219 3.16646484 6.0078125 3.91015625 C11.85799775 8.47589124 16.02036658 13.89706957 17.17333984 21.37158203 C18.17662182 31.2505805 17.22572701 39.41848047 10.875 47.4375 C5.80459203 53.06340721 -1.46990664 57.69066162 -9.125 58.4375 C-9.75792969 58.50066406 -10.39085937 58.56382812 -11.04296875 58.62890625 C-19.83571185 59.11133994 -27.36694613 56.28708579 -34.0625 50.625 C-40.52312417 44.40664924 -44.08369531 37.34508579 -44.5625 28.3125 C-44.384967 20.16817354 -41.45246176 12.4934962 -35.875 6.5 C-34.65515404 5.44331815 -33.40439255 4.4212456 -32.125 3.4375 C-31.52558594 2.9321875 -30.92617188 2.426875 -30.30859375 1.90625 C-22.33626738 -3.71026173 -8.893673 -3.56366688 0 0 Z " fill="#FDFDFF" transform="translate(445.125,712.5625)"/>
<path d="M0 0 C8.08612255 3.78973663 12.97360306 8.49245411 16.7421875 16.5234375 C19.88654581 25.2166634 19.51414125 34.31421985 15.62109375 42.68359375 C10.95862772 50.91916459 4.6148205 54.93057513 -4.1328125 58.2109375 C-12.72578978 59.89884375 -19.76942953 58.92077317 -27.6328125 54.8984375 C-35.03884928 49.81968472 -40.89108343 42.89455271 -42.6328125 33.8984375 C-43.73908033 24.60018636 -41.95625638 17.61688681 -36.6328125 9.8984375 C-26.63738868 -1.16601561 -14.26430176 -4.3253044 0 0 Z " fill="#FDFDFF" transform="translate(290.6328125,712.1015625)"/>
<path d="M0 0 C5.46033476 3.17461323 7.94501583 8.19235428 10 14 C10.64611449 18.68895511 10.61106588 23.27465163 10.5 28 C10.50386719 29.80984375 10.50386719 29.80984375 10.5078125 31.65625 C10.41709547 40.00221684 9.93567712 48.60993092 4.625 55.4375 C-1.93046019 61.83687781 -8.11724183 62.33770798 -16.92114258 62.38720703 C-22.93930145 62.26529599 -26.6710076 61.13122117 -31 57 C-32.3921875 55.700625 -32.3921875 55.700625 -33.8125 54.375 C-39.25936516 47.20124651 -39.53017468 37.13612157 -39.4375 28.5 C-39.42847656 27.49259766 -39.41945313 26.48519531 -39.41015625 25.44726562 C-39.21993015 17.30453188 -38.69742456 10.20688181 -33.12890625 3.87109375 C-23.95223387 -4.7157736 -11.15453678 -5.67867327 0 0 Z " fill="#915FFF" transform="translate(609,360)"/>
<path d="M0 0 C5.46033476 3.17461323 7.94501583 8.19235428 10 14 C10.64611449 18.68895511 10.61106588 23.27465163 10.5 28 C10.50386719 29.80984375 10.50386719 29.80984375 10.5078125 31.65625 C10.41709547 40.00221684 9.93567712 48.60993092 4.625 55.4375 C-1.93046019 61.83687781 -8.11724183 62.33770798 -16.92114258 62.38720703 C-22.93930145 62.26529599 -26.6710076 61.13122117 -31 57 C-32.3921875 55.700625 -32.3921875 55.700625 -33.8125 54.375 C-39.25936516 47.20124651 -39.53017468 37.13612157 -39.4375 28.5 C-39.42847656 27.49259766 -39.41945313 26.48519531 -39.41015625 25.44726562 C-39.21993015 17.30453188 -38.69742456 10.20688181 -33.12890625 3.87109375 C-23.95223387 -4.7157736 -11.15453678 -5.67867327 0 0 Z " fill="#915FFF" transform="translate(412,131)"/>
<path d="M0 0 C8.59454938 6.17870501 11.94736533 12.73488757 14 23 C14.37830323 27.73972105 14.35157078 32.44692766 14.29296875 37.19921875 C14.28872391 38.51541702 14.28447906 39.8316153 14.28010559 41.18769836 C14.2687759 44.64832378 14.23941508 48.10855764 14.20599365 51.56903076 C14.17503284 55.11562812 14.16154531 58.66229017 14.14648438 62.20898438 C14.11453063 69.13949774 14.06186361 76.06968963 14 83 C9.38 83 4.76 83 0 83 C-0.0093457 81.19402344 -0.01869141 79.38804687 -0.02832031 77.52734375 C-0.06395367 71.5360939 -0.11781831 65.54523608 -0.18390274 59.55426025 C-0.22328102 55.9246652 -0.25551619 52.29530923 -0.27099609 48.66552734 C-0.28622717 45.15740773 -0.32078433 41.64994583 -0.36830902 38.14212036 C-0.39019599 36.16377797 -0.39246818 34.18524967 -0.39434814 32.20678711 C-0.51030315 25.02871004 -1.01978299 20.05441461 -5 14 C-11.26570737 8.90911276 -17.15126639 8.33905401 -25 9 C-30.57978617 10.31516624 -35.92530325 12.75792719 -39.11288452 17.73907471 C-40.26001704 20.6626861 -40.28116066 23.09672135 -40.31884766 26.23730469 C-40.33871735 27.49830994 -40.35858704 28.75931519 -40.37905884 30.05853271 C-40.3909343 31.42964503 -40.40259721 32.8007592 -40.4140625 34.171875 C-40.43277869 35.57864513 -40.45235245 36.98540409 -40.4727478 38.39215088 C-40.52402761 42.08772183 -40.56367534 45.78332917 -40.60089111 49.47906494 C-40.64095693 53.25306161 -40.69203748 57.02690749 -40.7421875 60.80078125 C-40.83889767 68.20042513 -40.92229944 75.60012762 -41 83 C-45.29 83 -49.58 83 -54 83 C-54 54.95 -54 26.9 -54 -2 C-49.71 -2 -45.42 -2 -41 -2 C-40.67 2.29 -40.34 6.58 -40 11 C-39.360625 9.80375 -38.72125 8.6075 -38.0625 7.375 C-34.79955586 2.12632129 -29.97676238 -1.67710136 -24.07421875 -3.640625 C-15.50720782 -5.12492821 -7.57523497 -4.35416867 0 0 Z " fill="#FBFAFF" transform="translate(517,120)"/>
<path d="M0 0 C5.5664436 4.64850998 8.58474464 10.73255084 9.28588867 17.93798828 C9.40278107 21.27639473 9.40921927 24.59731872 9.375 27.9375 C9.38660156 29.06607422 9.39820313 30.19464844 9.41015625 31.35742188 C9.37523189 41.36324976 7.93956365 48.99243605 0.859375 56.3359375 C-5.21555042 61.7727405 -11.50560568 61.52677302 -19.39453125 61.34765625 C-25.74234975 60.73556974 -29.73779864 58.68138802 -33.9375 53.9375 C-38.56501065 47.34680302 -37.33760147 38.8924747 -37.4050293 31.12329102 C-37.4265752 29.25819342 -37.46063779 27.393196 -37.50756836 25.52856445 C-37.57488135 22.82718158 -37.60207906 20.12788671 -37.62109375 17.42578125 C-37.64892441 16.60153152 -37.67675507 15.7772818 -37.70542908 14.92805481 C-37.68553883 9.26070577 -36.22704778 6.0739167 -32.6934967 1.6627655 C-24.03639062 -6.83724357 -9.83233245 -5.94146293 0 0 Z " fill="#925FFF" transform="translate(710,361)"/>
<path d="M0 0 C14.19 0 28.38 0 43 0 C43 36.63 43 73.26 43 111 C52.57 111 62.14 111 72 111 C72 114.63 72 118.26 72 122 C48.24 122 24.48 122 0 122 C0 118.37 0 114.74 0 111 C9.9 111 19.8 111 30 111 C30 78.33 30 45.66 30 12 C20.1 12 10.2 12 0 12 C0 8.04 0 4.08 0 0 Z " fill="#FDFCFF" transform="translate(460,310)"/>
<path d="M0 0 C12.54 0 25.08 0 38 0 C38.495 8.91 38.495 8.91 39 18 C39.66 16.824375 40.32 15.64875 41 14.4375 C45.61208211 7.11013575 51.55049218 2.12491129 60 0 C63.34826558 -0.32461288 66.64039369 -0.28813337 70 -0.1875 C71.30517578 -0.16719727 71.30517578 -0.16719727 72.63671875 -0.14648438 C74.75808627 -0.11151678 76.87912974 -0.0577253 79 0 C79 4.29 79 8.58 79 13 C77.60007812 13.02578125 76.20015625 13.0515625 74.7578125 13.078125 C58.91130252 13.27477363 58.91130252 13.27477363 45.125 20.3125 C39.72379289 27.14343841 38.40201849 31.71860286 38.390625 40.30859375 C38.37408875 41.27531509 38.35755249 42.24203644 38.34051514 43.23805237 C38.29220082 46.30460062 38.27070079 49.37065353 38.25 52.4375 C38.2218265 54.52541532 38.19189715 56.61330774 38.16015625 58.70117188 C38.08316234 63.80100547 38.04248815 68.89929707 38 74 C48.89 74 59.78 74 71 74 C71 77.63 71 81.26 71 85 C47.57 85 24.14 85 0 85 C0 81.37 0 77.74 0 74 C8.25 74 16.5 74 25 74 C25 53.21 25 32.42 25 11 C16.75 11 8.5 11 0 11 C0 7.37 0 3.74 0 0 Z " fill="#FDFCFF" transform="translate(854,347)"/>
<path d="M0 0 C4.62 0 9.24 0 14 0 C22.37928808 23.98424281 30.74760366 47.97174796 39 72 C45.02037716 56.51286262 50.21093962 40.7433626 55.48828125 24.99145508 C56.68113483 21.43443196 57.87931866 17.87923922 59.078125 14.32421875 C59.44270813 13.23058517 59.80729126 12.1369516 60.18292236 11.01017761 C60.52377869 10.00094742 60.86463501 8.99171722 61.21582031 7.9519043 C61.51304993 7.0652861 61.81027954 6.17866791 62.11651611 5.2651825 C63 3 63 3 65 0 C68.0390625 -0.29296875 68.0390625 -0.29296875 71.625 -0.1875 C72.81351562 -0.16042969 74.00203125 -0.13335937 75.2265625 -0.10546875 C76.14179688 -0.07066406 77.05703125 -0.03585937 78 0 C75.47319901 7.69168158 72.78254963 15.32128859 70.0703125 22.94921875 C69.5932612 24.29284665 69.11628308 25.63650053 68.63937378 26.98017883 C67.38938337 30.50132252 66.13833949 34.02209101 64.88708496 37.54278564 C63.87773482 40.38337146 62.86912083 43.22421836 61.86055183 46.0650816 C57.25151381 59.04737887 52.63623537 72.02738676 48 85 C42.06 85 36.12 85 30 85 C28.60201172 80.97039062 28.60201172 80.97039062 27.17578125 76.859375 C20.24677533 56.91307042 13.25272325 36.99447651 6.03833008 17.14941406 C5.77984283 16.43797745 5.52135559 15.72654083 5.2550354 14.99354553 C4.56525226 13.09645073 3.87387942 11.19993415 3.18237305 9.3034668 C2.07788459 6.21760405 1.0364576 3.10937281 0 0 Z " fill="#FCFAFF" transform="translate(260,347)"/>
<path d="M0 0 C3.22454166 1.64257667 5.35896375 3.7179275 7 7 C7.13525457 9.55584504 7.2126283 12.08316441 7.23828125 14.640625 C7.25038887 15.78032745 7.25038887 15.78032745 7.26274109 16.9430542 C7.27658138 18.55364705 7.28730379 20.16426922 7.29516602 21.77490234 C7.3123376 24.2268111 7.35621634 26.6773566 7.40039062 29.12890625 C7.41052156 30.6953026 7.41903641 32.26171041 7.42578125 33.828125 C7.44328934 34.55646545 7.46079742 35.28480591 7.47883606 36.03521729 C7.45719541 41.16743981 6.2349149 44.05207886 3 48 C-1.18447568 50.63024185 -6.20340297 50.78674343 -11 50 C-15.54281001 47.47621666 -17.12064695 45.41799896 -18.640625 40.49609375 C-20.20857021 34.93196066 -20.44715997 29.69025312 -20.375 23.9375 C-20.38660156 23.00873047 -20.39820313 22.07996094 -20.41015625 21.12304688 C-20.37999328 13.95934214 -19.47384591 7.27186071 -15.0625 1.4375 C-10.14007652 -0.87302531 -5.32754962 -0.85672757 0 0 Z " fill="#9260FF" transform="translate(613,130)"/>
<path d="M0 0 C6.95535861 3.5458691 11.15602725 9.061906 13.875 16.3125 C14.24724773 19.29048188 14.125 22.31134282 14.125 25.3125 C-2.045 25.3125 -18.215 25.3125 -34.875 25.3125 C-34.875 16.80266872 -32.90835785 10.52330955 -26.875 4.3125 C-18.58892654 -1.85798024 -9.83855894 -4.0637526 0 0 Z " fill="#9260FF" transform="translate(210.875,357.6875)"/>
<path d="M0 0 C5.96594208 3.34813601 9.25115292 7.86615182 12.0625 14 C12.6875 17 12.6875 17 12.6875 25 C-3.4825 25 -19.6525 25 -36.3125 25 C-35.318233 15.05732998 -33.97772421 10.14103886 -26.9375 3.6875 C-18.7691231 -2.74553503 -9.58032435 -4.270747 0 0 Z " fill="#9260FF" transform="translate(409.3125,358)"/>
<path d="M0 0 C5.82729726 3.26106301 8.84987828 7.74239786 12.0625 13.4375 C12.6875 16 12.6875 16 12.6875 25 C-3.1525 25 -18.9925 25 -35.3125 25 C-35.3125 16.54383286 -35.05677041 12.05290875 -29.51171875 6.05078125 C-20.92348842 -1.90375441 -11.03390977 -4.91873086 0 0 Z " fill="#925FFF" transform="translate(803.3125,358)"/>
<path d="M0 0 C1.19044922 0.01804688 2.38089844 0.03609375 3.60742188 0.0546875 C6.50999031 0.10131511 9.41079111 0.16673719 12.3125 0.25 C12.39402344 2.79232342 12.45323716 5.33199202 12.5 7.875 C12.52513672 8.58785156 12.55027344 9.30070313 12.57617188 10.03515625 C12.66232409 16.29555063 11.15967502 20.31271889 6.75 24.9375 C-0.11688048 30.1806846 -9.30740527 31.36317676 -17.6875 30.25 C-22.08428607 28.96579021 -24.86252805 27.30699531 -27.6875 23.6875 C-29.39049488 17.83345509 -29.90207493 11.96833437 -27.375 6.3125 C-19.20413497 0.04183614 -9.92046714 -0.28964868 0 0 Z " fill="#9462FF" transform="translate(204.6875,163.75)"/>
<path d="M0 0 C1.640625 1.0390625 1.640625 1.0390625 3.890625 4.2890625 C4.59598534 8.39246827 4.75527242 12.20725291 3.890625 16.2890625 C2.00816751 18.55953674 0.52177874 19.97348563 -2.109375 21.2890625 C-4.22977326 21.46338096 -6.35730808 21.55615321 -8.484375 21.6015625 C-9.62648438 21.63894531 -10.76859375 21.67632812 -11.9453125 21.71484375 C-15.72512422 21.20620242 -16.7958984 20.24395323 -19.109375 17.2890625 C-21.1091029 13.2896067 -20.72838513 8.62838604 -20.109375 4.2890625 C-15.44234447 -2.32256408 -7.37391873 -2.48528372 0 0 Z " fill="#FDFCFF" transform="translate(997.109375,411.7109375)"/>
<path d="M0 0 C1.640625 1.06640625 1.640625 1.06640625 3.890625 4.25390625 C4.71671395 9.42461116 4.94008983 14.78722219 1.890625 19.25390625 C-1.41253203 21.61115922 -4.63483669 21.58332668 -8.609375 21.62890625 C-9.7334375 21.65726562 -10.8575 21.685625 -12.015625 21.71484375 C-15.72697784 21.16188967 -16.82211273 20.15613998 -19.109375 17.25390625 C-21.1091029 13.25445045 -20.72838513 8.59322979 -20.109375 4.25390625 C-15.46601682 -2.3241845 -7.329841 -2.59259191 0 0 Z " fill="#FDFCFF" transform="translate(997.109375,346.74609375)"/>
</svg>
