<?xml version="1.0" encoding="UTF-8"?>
<svg version="1.1" xmlns="http://www.w3.org/2000/svg" width="1080" height="1080">
<path d="M0 0 C356.4 0 712.8 0 1080 0 C1080 356.4 1080 712.8 1080 1080 C723.6 1080 367.2 1080 0 1080 C0 723.6 0 367.2 0 0 Z " fill="#FEFEFE" transform="translate(0,0)"/>
<path d="M0 0 C8.47159061 6.44802626 16.47534107 13.54565357 24.00390625 21.07421875 C28.44929861 21.35934596 31.90362703 20.64780019 36.12890625 19.32421875 C55.03931616 14.03036082 74.2202584 12.69649588 93.75390625 12.69921875 C95.01411087 12.69649963 95.01411087 12.69649963 96.29977417 12.69372559 C111.88948885 12.69753944 126.72999455 14.39125327 142.00390625 17.63671875 C145.09420955 18.28541767 148.18416551 18.92727973 151.28320312 19.53295898 C152.96427151 19.86739264 154.63985704 20.23313891 156.30273438 20.64868164 C159.01683531 21.22384033 161.19802582 21.53436798 163.671875 20.12182617 C165.41460952 18.63992162 166.94943299 17.06482481 168.50390625 15.38671875 C169.71778216 14.17218106 170.93806189 12.96401615 172.1640625 11.76171875 C173.10596436 10.83552734 173.10596436 10.83552734 174.06689453 9.890625 C179.5718986 4.72838272 185.85330411 0.42538602 192.00390625 -3.92578125 C192.93372314 -4.58489502 192.93372314 -4.58489502 193.88232422 -5.25732422 C203.82993318 -12.24260347 214.25721281 -18.25958382 225.00390625 -23.92578125 C226.01324219 -24.46460938 227.02257812 -25.0034375 228.0625 -25.55859375 C245.07730424 -34.0027908 265.97981043 -34.29324698 283.91601562 -28.65771484 C305.61221723 -21.05186681 319.78559893 -5.60901824 331.00390625 14.07421875 C331.64972656 15.17894531 332.29554688 16.28367187 332.9609375 17.421875 C348.84842956 45.33095505 356.86762315 78.04965272 363.06640625 109.32421875 C363.23821411 110.18517151 363.41002197 111.04612427 363.58703613 111.9331665 C366.57840095 127.0094651 368.85278392 142.04708675 370.56835938 157.32519531 C371.00080297 161.04750688 371.48714987 164.7590192 371.98828125 168.47265625 C377.57070571 210.80022112 379.22685697 253.49519994 380.25390625 296.13671875 C380.27466469 296.99221565 380.29542313 297.84771255 380.31681061 298.72913361 C380.71873386 315.42657573 381.06047919 332.12548109 381.1171875 348.828125 C381.12329041 349.8400441 381.12939331 350.8519632 381.13568115 351.89454651 C381.11690123 384.50465913 367.15848688 413.81815293 344.62890625 436.88671875 C323.62016679 457.64771364 293.50458413 470.03363488 264.04296875 470.3125 C263.21235931 470.32057175 262.38174988 470.32864349 261.52597046 470.33695984 C259.77970405 470.35070198 258.0334119 470.36146759 256.28710938 470.36938477 C254.51847339 470.38091794 252.74987258 470.40139093 250.98144531 470.4309082 C232.11938412 470.74480825 232.11938412 470.74480825 224.00390625 466.07421875 C222.95203125 465.47609375 221.90015625 464.87796875 220.81640625 464.26171875 C211.96034029 457.37366745 206.206843 449.28916948 204.00390625 438.07421875 C202.78948726 427.23786467 206.52884008 417.99360387 212.9609375 409.3671875 C219.83045065 401.65704558 228.33738652 397.62964796 238.57006836 396.77709961 C242.57032913 396.62815775 246.56389963 396.54828216 250.56640625 396.51171875 C266.98754024 396.3193519 280.49330705 394.59955098 293.00390625 383.07421875 C303.16008976 372.65291398 305.77315641 360.3852099 305.59765625 346.234375 C305.59708191 344.80819148 305.5984125 343.38200613 305.60148621 341.95582581 C305.6021898 338.14066127 305.56934161 334.32651356 305.52755356 330.51160431 C305.50374313 328.12033655 305.48921249 325.72918629 305.47769165 323.33782959 C305.26207226 279.86927481 303.61963718 236.31227103 299.00390625 193.07421875 C298.86157415 191.68204064 298.71999393 190.28978549 298.57910156 188.89746094 C291.8344786 113.89707945 291.8344786 113.89707945 262.765625 45.75390625 C261.00390625 43.07421875 261.00390625 43.07421875 261.00390625 41.07421875 C246.19288303 48.5050917 232.87800241 57.76462722 220.49462891 68.75976562 C219.06016971 70.02460813 217.6007967 71.26102356 216.140625 72.49609375 C203.55699017 83.38885827 191.76282298 98.28941589 186.00390625 114.07421875 C185.40707031 113.73390625 184.81023437 113.39359375 184.1953125 113.04296875 C141.73310454 89.31965494 93.91009839 80.23425365 46.40795898 93.40869141 C33.15690513 97.33467162 20.22467615 102.86016916 8.2578125 109.78515625 C5.55959996 111.32832807 2.79230118 112.70208772 0.00390625 114.07421875 C-0.54136719 112.98625 -1.08664062 111.89828125 -1.6484375 110.77734375 C-11.33961257 91.75561567 -24.05700339 76.088113 -40.99609375 63.07421875 C-42.00285156 62.26339844 -43.00960937 61.45257812 -44.046875 60.6171875 C-53.10076801 53.37490922 -63.02602501 46.06333466 -73.99609375 42.07421875 C-91.11019206 63.48059895 -97.49862381 91.86284548 -102.99609375 118.07421875 C-103.18800293 118.98671387 -103.37991211 119.89920898 -103.57763672 120.83935547 C-108.01221859 142.25778394 -110.88685415 163.89173953 -113.12109375 185.63671875 C-113.25017624 186.89069962 -113.25017624 186.89069962 -113.38186646 188.17001343 C-114.22283418 196.41505149 -115.0059566 204.65305842 -115.515625 212.92578125 C-115.62656494 214.68039673 -115.62656494 214.68039673 -115.73974609 216.47045898 C-115.86312351 218.56523344 -115.96833353 220.66121526 -116.04931641 222.75805664 C-116.61360687 232.63143497 -119.99202991 242.03416629 -126.9140625 249.2578125 C-135.9232833 257.11763927 -144.35585296 260.61023712 -156.20703125 260.31640625 C-166.27209438 259.44240917 -175.47860956 254.94206887 -182.36328125 247.5234375 C-190.44794632 237.05483273 -191.50819056 228.01746556 -190.99609375 215.07421875 C-190.96428314 213.72657562 -190.93305255 212.37891869 -190.90234375 211.03125 C-190.21059584 188.34242363 -187.47818721 165.33121141 -183.63671875 142.96875 C-183.00593628 139.13405415 -182.5471649 135.31147483 -182.12109375 131.44921875 C-176.27044429 82.93758368 -160.83875261 15.51938069 -120.99609375 -16.92578125 C-78.67079298 -46.89253167 -37.14862449 -27.55880765 0 0 Z " fill="#D74413" transform="translate(273.99609375,489.92578125)"/>
<path d="M0 0 C356.4 0 712.8 0 1080 0 C1080 356.4 1080 712.8 1080 1080 C723.6 1080 367.2 1080 0 1080 C0 723.6 0 367.2 0 0 Z M20 20 C20 363.2 20 706.4 20 1060 C363.2 1060 706.4 1060 1060 1060 C1060 716.8 1060 373.6 1060 20 C716.8 20 373.6 20 20 20 Z " fill="#D74413" transform="translate(0,0)"/>
<path d="M0 0 C6.63955452 4.27202441 12.01710123 9.80938802 17.5 15.4375 C19.11206628 17.08449869 20.726621 18.72906568 22.34375 20.37109375 C23.39852539 21.4528186 23.39852539 21.4528186 24.47460938 22.55639648 C26.48210954 24.4988819 28.51303913 26.32264247 30.62866211 28.1418457 C35.83253638 32.66147759 40.70842897 37.50492257 45.59765625 42.359375 C46.08908049 42.84672371 46.58050472 43.33407242 47.0868206 43.83618927 C49.68490955 46.41358237 52.27982545 48.99412326 54.87231445 51.57714844 C57.52184633 54.21561394 60.18286032 56.84217693 62.84661198 59.46627426 C64.9202404 61.51353833 66.98472422 63.56984925 69.04699516 65.62854767 C70.02304308 66.59978556 71.00240953 67.56770226 71.98539925 68.53191376 C83.91120902 80.24380816 93.05097737 93.53488446 93.43115234 110.67675781 C93.47226948 128.9643971 88.70680941 142.89176007 76.3203125 156.69921875 C74.48867876 158.51543469 72.65472157 160.14848777 70.68847656 161.80761719 C65.02372232 166.74942105 59.8060404 172.13166939 54.53325272 177.48327827 C52.62635907 179.41714296 50.7148402 181.34632207 48.80184937 183.27415466 C43.36807344 188.75035365 37.93708445 194.22922028 32.52246094 199.72436523 C29.19574641 203.09987286 25.8591143 206.46530255 22.51600266 209.82456779 C21.25337671 211.09701957 19.99439551 212.37309976 18.73933792 213.65301704 C8.96928575 223.61233336 -0.66028823 233.08317817 -15.41967773 233.38134766 C-28.43408244 233.34589721 -35.920527 230.96477899 -45.57421875 221.734375 C-53.90556983 212.343158 -54.70151592 202.05357309 -54.16601562 190.03369141 C-52.98941823 175.62037335 -38.16782191 165.0245332 -28.52734375 155.4296875 C-27.35171345 154.25592744 -26.17630756 153.08194258 -25.00111389 151.90774536 C-21.94070959 148.85111862 -18.87731221 145.79750956 -15.81323242 142.74456787 C-12.67376736 139.61542059 -9.53721024 136.48336131 -6.40039062 133.3515625 C-0.26973297 127.23155796 5.864097 121.11474554 12 115 C8.56568458 110.92523683 5.0883627 106.96117535 1.3203125 103.1875 C0.04994141 101.91519531 0.04994141 101.91519531 -1.24609375 100.6171875 C-2.11363281 99.75351562 -2.98117188 98.88984375 -3.875 98 C-4.73480469 97.13632812 -5.59460938 96.27265625 -6.48046875 95.3828125 C-10.17698899 91.69190155 -13.87211118 88.04816764 -17.83984375 84.6484375 C-23.12611042 80.10176929 -28.06445238 75.1951654 -33.01000977 70.28515625 C-34.12926878 69.17746285 -35.25299223 68.07426257 -36.38110352 66.97558594 C-42.64875926 60.87064381 -48.40132648 55.12218096 -52 47 C-52.32307129 46.34040283 -52.64614258 45.68080566 -52.97900391 45.0012207 C-56.64157516 37.30595896 -56.00057485 28.09718156 -53.375 20.1875 C-49.19489549 10.09658105 -42.28037501 2.79154233 -32.4375 -1.875 C-21.73683221 -6.00297297 -10.23305374 -5.1302441 0 0 Z " fill="#D74413" transform="translate(116,809)"/>
<path d="M0 0 C1.39702148 -0.00788544 1.39702148 -0.00788544 2.82226562 -0.01593018 C5.87460534 -0.0290408 8.92641554 -0.02042308 11.97875977 -0.01025391 C14.11670531 -0.01227738 16.25465019 -0.01519109 18.39259338 -0.01895142 C22.86352133 -0.02336283 27.33426889 -0.01698242 31.80517578 -0.00292969 C37.5155879 0.01415092 43.2255766 0.00432038 48.93597317 -0.01364708 C53.34824267 -0.02452572 57.76041302 -0.02101969 62.17268562 -0.0132637 C64.2772737 -0.01127243 66.38187098 -0.01368297 68.48644829 -0.02070236 C71.43651798 -0.02838303 74.3859173 -0.01662001 77.3359375 0 C78.19286697 -0.00607269 79.04979645 -0.01214539 79.93269348 -0.0184021 C91.5941528 0.10235712 101.06821823 4.14122886 109.27563477 12.45849609 C116.17590739 20.66820212 119.00411853 29.4976701 118.61157227 40.18505859 C117.39829591 50.44162157 112.68573039 58.67746916 104.90844727 65.39599609 C96.46847434 71.72928818 87.88775382 73.85133591 77.44360352 73.77636719 C76.5218634 73.78162415 75.60012329 73.7868811 74.65045166 73.79229736 C71.63601188 73.80538561 68.62211016 73.7967991 65.60766602 73.78662109 C63.49356994 73.78864504 61.37947456 73.79155914 59.26538086 73.7953186 C54.84750685 73.79972684 50.42981556 73.79335931 46.01196289 73.77929688 C40.36995904 73.76220606 34.72838344 73.77205529 29.08639526 73.79001427 C24.72473975 73.80089269 20.36318454 73.79738716 16.00152588 73.78963089 C13.92205758 73.7876401 11.84257996 73.79004844 9.76312256 73.79706955 C6.8490817 73.80475107 3.93571929 73.79298654 1.02172852 73.77636719 C0.17572083 73.78243988 -0.67028687 73.78851257 -1.54193115 73.79476929 C-13.22773127 73.67227968 -22.47834953 69.54489495 -30.81030273 61.38818359 C-37.56069882 53.55829986 -40.60973741 43.3623306 -40.14624023 33.07568359 C-38.73593074 23.07266366 -34.07275836 14.9030646 -26.40795898 8.38037109 C-18.08935866 2.20600625 -10.2851664 -0.07271481 0 0 Z " fill="#D74413" transform="translate(304.767333984375,886.61181640625)"/>
<path d="M0 0 C0.86197495 -0.00945648 1.72394989 -0.01891296 2.61204529 -0.02865601 C3.54323685 -0.02258331 4.47442841 -0.01651062 5.43383789 -0.01025391 C6.39995499 -0.01312408 7.36607208 -0.01599426 8.36146545 -0.01895142 C10.41171858 -0.02099483 12.46199109 -0.01544568 14.51220703 -0.00292969 C17.61349651 0.01296325 20.71345127 -0.00268722 23.81469727 -0.02197266 C39.03996742 -0.03858162 54.60441698 0.66111958 66.46899414 11.51318359 C75.80207285 21.61850285 78.06230725 32.58299755 77.96899414 45.82568359 C77.9805957 47.46633789 77.9805957 47.46633789 77.99243164 49.14013672 C77.96307229 61.33160533 75.02097322 72.97084236 66.59399414 82.26318359 C56.86298307 91.10759143 45.04980258 93.70360889 32.38696289 93.65380859 C31.31400467 93.65572205 30.24104645 93.6576355 29.13557434 93.65960693 C26.87895471 93.66096285 24.62232713 93.65730805 22.36572266 93.64892578 C18.90062161 93.63816536 15.43603284 93.64886828 11.97094727 93.66162109 C9.77628466 93.66030042 7.58162237 93.65773995 5.38696289 93.65380859 C3.82766304 93.65988129 3.82766304 93.65988129 2.23686218 93.66607666 C1.27859024 93.65977234 0.3203183 93.65346802 -0.66699219 93.64697266 C-1.93437981 93.64458588 -1.93437981 93.64458588 -3.22737122 93.64215088 C-5.28100586 93.38818359 -5.28100586 93.38818359 -7.28100586 91.38818359 C-7.54663086 88.63818359 -7.54663086 88.63818359 -7.53100586 85.38818359 C-7.53616211 84.31568359 -7.54131836 83.24318359 -7.54663086 82.13818359 C-7.28100586 79.38818359 -7.28100586 79.38818359 -5.28100586 77.38818359 C-1.98100586 77.38818359 1.31899414 77.38818359 4.71899414 77.38818359 C4.71899414 57.25818359 4.71899414 37.12818359 4.71899414 16.38818359 C1.41899414 16.38818359 -1.88100586 16.38818359 -5.28100586 16.38818359 C-7.42653963 13.16988294 -7.57684454 12.12031852 -7.59350586 8.38818359 C-7.61026367 7.52193359 -7.62702148 6.65568359 -7.64428711 5.76318359 C-6.94671019 1.20268075 -4.3449936 0.01370743 0 0 Z " fill="#D74616" transform="translate(41.281005859375,299.61181640625)"/>
<path d="M0 0 C0.86197495 -0.00945648 1.72394989 -0.01891296 2.61204529 -0.02865601 C3.54323685 -0.02258331 4.47442841 -0.01651062 5.43383789 -0.01025391 C6.39995499 -0.01312408 7.36607208 -0.01599426 8.36146545 -0.01895142 C10.41171858 -0.02099483 12.46199109 -0.01544568 14.51220703 -0.00292969 C17.61349651 0.01296325 20.71345127 -0.00268722 23.81469727 -0.02197266 C39.03996742 -0.03858162 54.60441698 0.66111958 66.46899414 11.51318359 C75.80207285 21.61850285 78.06230725 32.58299755 77.96899414 45.82568359 C77.9805957 47.46633789 77.9805957 47.46633789 77.99243164 49.14013672 C77.96307229 61.33160533 75.02097322 72.97084236 66.59399414 82.26318359 C56.86298307 91.10759143 45.04980258 93.70360889 32.38696289 93.65380859 C31.31400467 93.65572205 30.24104645 93.6576355 29.13557434 93.65960693 C26.87895471 93.66096285 24.62232713 93.65730805 22.36572266 93.64892578 C18.90062161 93.63816536 15.43603284 93.64886828 11.97094727 93.66162109 C9.77628466 93.66030042 7.58162237 93.65773995 5.38696289 93.65380859 C3.82766304 93.65988129 3.82766304 93.65988129 2.23686218 93.66607666 C1.27859024 93.65977234 0.3203183 93.65346802 -0.66699219 93.64697266 C-1.93437981 93.64458588 -1.93437981 93.64458588 -3.22737122 93.64215088 C-5.28100586 93.38818359 -5.28100586 93.38818359 -7.28100586 91.38818359 C-7.54663086 88.63818359 -7.54663086 88.63818359 -7.53100586 85.38818359 C-7.53616211 84.31568359 -7.54131836 83.24318359 -7.54663086 82.13818359 C-7.28100586 79.38818359 -7.28100586 79.38818359 -5.28100586 77.38818359 C-1.98100586 77.38818359 1.31899414 77.38818359 4.71899414 77.38818359 C4.71899414 57.25818359 4.71899414 37.12818359 4.71899414 16.38818359 C1.41899414 16.38818359 -1.88100586 16.38818359 -5.28100586 16.38818359 C-7.42653963 13.16988294 -7.57684454 12.12031852 -7.59350586 8.38818359 C-7.61026367 7.52193359 -7.62702148 6.65568359 -7.64428711 5.76318359 C-6.94671019 1.20268075 -4.3449936 0.01370743 0 0 Z " fill="#D74616" transform="translate(41.281005859375,75.61181640625)"/>
<path d="M0 0 C3.70776184 2.01133382 6.50877567 4.15501598 9.375 7.25 C9.684375 6.115625 9.99375 4.98125 10.3125 3.8125 C11.375 0.25 11.375 0.25 12.375 -0.75 C16.34775815 -1.00256877 20.33266175 -0.93522451 24.3125 -0.9375 C25.43591797 -0.94974609 26.55933594 -0.96199219 27.71679688 -0.97460938 C29.32458008 -0.97750977 29.32458008 -0.97750977 30.96484375 -0.98046875 C32.44778931 -0.98663208 32.44778931 -0.98663208 33.96069336 -0.99291992 C36.375 -0.75 36.375 -0.75 38.375 1.25 C38.640625 4 38.640625 4 38.625 7.25 C38.63273437 8.85875 38.63273437 8.85875 38.640625 10.5 C38.375 13.25 38.375 13.25 36.375 15.25 C34.2109375 15.4453125 34.2109375 15.4453125 31.75 15.375 C30.93273437 15.35695313 30.11546875 15.33890625 29.2734375 15.3203125 C28.64695312 15.29710938 28.02046875 15.27390625 27.375 15.25 C27.38610306 15.99787277 27.39720612 16.74574554 27.40864563 17.51628113 C27.50950303 24.62004301 27.58529348 31.72355024 27.63406086 38.82783031 C27.65997731 42.47887808 27.69503756 46.1293264 27.75219727 49.7800293 C27.80717045 53.31384848 27.83655487 56.84709711 27.84938622 60.38131142 C27.86290273 62.36248753 27.90182781 64.3434392 27.94148254 66.32426453 C27.94481464 77.26762196 25.69897916 86.85067493 18.375 95.25 C7.82326052 104.13320161 -5.91924558 104.1268319 -19.00537109 103.47900391 C-27.03235487 102.7772974 -35.32574979 100.65810579 -42.625 97.25 C-44.36755906 93.76488188 -43.34608421 89.97774784 -42.625 86.25 C-41.375 83.25 -41.375 83.25 -39.625 81.25 C-35.31133389 79.80200311 -32.64071166 80.6960378 -28.4375 82.1875 C-22.55857049 83.97538986 -17.26548951 84.6679864 -11.125 84.6875 C-9.9954187 84.7018811 -9.9954187 84.7018811 -8.84301758 84.71655273 C-4.0850159 84.64484008 -0.72785601 83.88400877 3.375 81.25 C6.9931319 75.46098895 6.70110937 69.92920295 6.375 63.25 C4.828125 64.425625 4.828125 64.425625 3.25 65.625 C-4.16280836 71.25873435 -13.69614545 71.41620849 -22.625 70.25 C-26.35754463 69.06558951 -29.39824332 67.44802831 -32.625 65.25 C-33.5325 64.6725 -34.44 64.095 -35.375 63.5 C-44.73466369 54.14033631 -46.96346227 43.71180848 -47.0078125 30.86132812 C-46.79704082 20.6301197 -42.93320181 12.54564011 -35.8828125 5.16015625 C-25.77376628 -3.39230672 -12.02666409 -5.87279907 0 0 Z " fill="#D74717" transform="translate(371.625,97.75)"/>
<path d="M0 0 C2.50252995 1.68901402 4.47630064 3.49260163 6.5234375 5.703125 C6.8328125 4.56875 7.1421875 3.434375 7.4609375 2.265625 C8.5234375 -1.296875 8.5234375 -1.296875 9.5234375 -2.296875 C13.49619565 -2.54944377 17.48109925 -2.48209951 21.4609375 -2.484375 C22.58435547 -2.49662109 23.70777344 -2.50886719 24.86523438 -2.52148438 C26.47301758 -2.52438477 26.47301758 -2.52438477 28.11328125 -2.52734375 C29.59622681 -2.53350708 29.59622681 -2.53350708 31.10913086 -2.53979492 C33.5234375 -2.296875 33.5234375 -2.296875 35.5234375 -0.296875 C35.7890625 1.9453125 35.7890625 1.9453125 35.7734375 4.578125 C35.78117188 5.87363281 35.78117188 5.87363281 35.7890625 7.1953125 C35.5234375 9.703125 35.5234375 9.703125 33.5234375 13.703125 C30.2234375 13.703125 26.9234375 13.703125 23.5234375 13.703125 C23.53231995 14.49746445 23.54120239 15.29180389 23.550354 16.11021423 C23.63078575 23.6273262 23.69154604 31.144227 23.73068619 38.66165829 C23.75148568 42.52568484 23.77966138 46.3893533 23.82519531 50.25317383 C23.8689288 53.98795104 23.89263193 57.72238568 23.90294647 61.45739937 C23.91028893 62.87626087 23.92462619 64.29510543 23.94635773 65.7138195 C24.1172777 77.34362693 22.46791481 85.37208111 14.44140625 93.98046875 C6.75852945 100.8809752 -3.41495068 102.09666518 -13.3515625 102.078125 C-14.71172485 102.07570801 -14.71172485 102.07570801 -16.09936523 102.07324219 C-22.39149146 101.96144062 -28.38919718 101.28230996 -34.5390625 99.953125 C-35.2820459 99.79634277 -36.0250293 99.63956055 -36.79052734 99.47802734 C-41.07265298 98.43766931 -43.81454284 97.2705016 -46.4765625 93.703125 C-47.46803001 87.97464608 -45.69931904 84.78754916 -42.5703125 80.20703125 C-42.209375 79.71074219 -41.8484375 79.21445313 -41.4765625 78.703125 C-37.59778061 79.28721058 -33.97583702 80.13097613 -30.2265625 81.265625 C-24.81283607 82.6360169 -19.65777069 83.06317277 -14.1015625 83.140625 C-13.34069336 83.16261963 -12.57982422 83.18461426 -11.79589844 83.20727539 C-6.57648927 83.18831453 -3.6186829 82.12978824 0.5234375 78.703125 C4.3764588 73.43732923 3.82339323 67.94664795 3.5234375 61.703125 C2.4715625 62.486875 1.4196875 63.270625 0.3359375 64.078125 C-7.32107312 69.7833486 -16.28315826 69.91961957 -25.4765625 68.703125 C-33.57687617 66.26855559 -39.8631298 61.80368762 -44.4765625 54.703125 C-50.45901549 43.56401775 -51.14184071 30.88465889 -48.8984375 18.515625 C-46.14813125 10.71475637 -39.86540335 3.44892951 -32.7890625 -0.796875 C-21.34441802 -5.97935552 -11.11802456 -6.03114757 0 0 Z " fill="#D74616" transform="translate(758.4765625,99.296875)"/>
<path d="M0 0 C6.76718731 5.46282487 11.48145292 13.13404461 13.671875 21.52734375 C15.00469931 34.64334421 14.28694601 47.33202941 6.546875 58.40234375 C0.57263092 65.46631047 -7.68466291 69.87821158 -16.88671875 70.77734375 C-26.36254653 71.19790754 -32.01093198 68.38109817 -39.328125 62.52734375 C-39.658125 69.12734375 -39.988125 75.72734375 -40.328125 82.52734375 C-35.52621508 82.40899254 -35.52621508 82.40899254 -30.7253418 82.25708008 C-27.89618298 82.22184347 -25.81337271 82.23058868 -23.3671875 83.7265625 C-21.99214151 86.10963093 -21.96260175 87.78644985 -22.015625 90.52734375 C-22.01949219 91.39359375 -22.02335938 92.25984375 -22.02734375 93.15234375 C-22.328125 95.52734375 -22.328125 95.52734375 -24.328125 98.52734375 C-26.2635498 98.90829468 -26.2635498 98.90829468 -28.65429688 98.91552734 C-29.54862427 98.92498383 -30.44295166 98.93444031 -31.36437988 98.94418335 C-32.33210327 98.93811066 -33.29982666 98.93203796 -34.296875 98.92578125 C-35.28812378 98.92865143 -36.27937256 98.93152161 -37.30065918 98.93447876 C-39.3988502 98.93652253 -41.49706014 98.93097088 -43.59521484 98.91845703 C-46.81521016 98.90240812 -50.03395018 98.91829549 -53.25390625 98.9375 C-55.28906528 98.93551762 -57.32422353 98.93167407 -59.359375 98.92578125 C-60.32709839 98.93185394 -61.29482178 98.93792664 -62.29187012 98.94418335 C-63.18619751 98.93472687 -64.0805249 98.92527039 -65.00195312 98.91552734 C-66.18537292 98.91194717 -66.18537292 98.91194717 -67.3927002 98.90829468 C-68.03139038 98.78258087 -68.67008057 98.65686707 -69.328125 98.52734375 C-71.47365877 95.3090431 -71.62396368 94.25947868 -71.640625 90.52734375 C-71.65738281 89.66109375 -71.67414062 88.79484375 -71.69140625 87.90234375 C-71.328125 85.52734375 -71.328125 85.52734375 -68.328125 82.52734375 C-65.358125 82.52734375 -62.388125 82.52734375 -59.328125 82.52734375 C-59.328125 59.42734375 -59.328125 36.32734375 -59.328125 12.52734375 C-62.628125 12.52734375 -65.928125 12.52734375 -69.328125 12.52734375 C-71.57046509 9.16383362 -71.59910715 7.90424319 -71.578125 3.96484375 C-71.58328125 2.99417969 -71.5884375 2.02351563 -71.59375 1.0234375 C-71.328125 -1.47265625 -71.328125 -1.47265625 -69.328125 -3.47265625 C-66.9296875 -3.73144531 -66.9296875 -3.73144531 -63.953125 -3.73828125 C-62.88578125 -3.74085938 -61.8184375 -3.7434375 -60.71875 -3.74609375 C-59.04039062 -3.73449219 -59.04039062 -3.73449219 -57.328125 -3.72265625 C-56.20921875 -3.73039062 -55.0903125 -3.738125 -53.9375 -3.74609375 C-52.87015625 -3.74351562 -51.8028125 -3.7409375 -50.703125 -3.73828125 C-49.72085938 -3.73602539 -48.73859375 -3.73376953 -47.7265625 -3.73144531 C-45.328125 -3.47265625 -45.328125 -3.47265625 -43.328125 -1.47265625 C-42.92765056 0.85009552 -42.5884146 3.18473732 -42.328125 5.52734375 C-41.78285156 4.98464844 -41.23757813 4.44195312 -40.67578125 3.8828125 C-28.89498309 -7.29384216 -14.10215868 -8.92032521 0 0 Z " fill="#D74615" transform="translate(679.328125,324.47265625)"/>
<path d="M0 0 C7.03706122 6.13059232 13.34509374 15.6327191 14.19287109 25.16967773 C14.97721017 49.64343364 14.97721017 49.64343364 6.5625 60 C5.2940625 60.99 5.2940625 60.99 4 62 C2.7625 63.1446875 2.7625 63.1446875 1.5 64.3125 C-3.91329811 66.92248302 -9.10909411 66.99647164 -15 66 C-17.89569295 64.40639717 -19.88385877 62.51332466 -22 60 C-22.99 59.01 -22.99 59.01 -24 58 C-24.721875 58.928125 -25.44375 59.85625 -26.1875 60.8125 C-29.07945392 64.22001117 -31.50581358 66.62517792 -36.10546875 67.31640625 C-40.09172451 67.52339776 -42.63659481 67.16456084 -46.3125 65.5 C-51.96843209 60.23866782 -53.26839919 55.52271035 -53.5625 47.8125 C-53.18753566 36.0245585 -49.32411386 27.5477404 -41.28125 19.0234375 C-36.4262028 14.71707714 -32.80530467 13.35230661 -26.3828125 13.49609375 C-23.59372873 14.08591638 -22.67219457 14.82796199 -20.875 17 C-19.946875 18.485 -19.946875 18.485 -19 20 C-18.46375 19.319375 -17.9275 18.63875 -17.375 17.9375 C-15 16 -15 16 -11.9375 16.125 C-9 17 -9 17 -6 19 C-6.64424333 22.25031727 -7.29067263 25.50019606 -7.9375 28.75 C-8.11990234 29.67039063 -8.30230469 30.59078125 -8.49023438 31.5390625 C-8.66748047 32.42851563 -8.84472656 33.31796875 -9.02734375 34.234375 C-9.27085571 35.45979004 -9.27085571 35.45979004 -9.51928711 36.70996094 C-9.83060907 38.1930488 -10.17391136 39.66992616 -10.5546875 41.13671875 C-11.12988451 43.54346415 -11.09500655 45.77950247 -11.0625 48.25 C-11.05347656 49.14203125 -11.04445313 50.0340625 -11.03515625 50.953125 C-11.02355469 51.62859375 -11.01195312 52.3040625 -11 53 C-8.16848027 53.41809201 -8.16848027 53.41809201 -5 53 C-0.68414412 48.92391389 0.80708783 44.2773657 1.30078125 38.44921875 C1.32355534 31.13873746 1.31266247 24.62532495 -2 18 C-2.31710937 17.36578125 -2.63421875 16.7315625 -2.9609375 16.078125 C-6.76193099 9.77009325 -13.24169773 7.25276742 -20 5 C-28.7165277 4.3624602 -36.41543021 4.22231824 -44 9 C-44.69609375 9.4125 -45.3921875 9.825 -46.109375 10.25 C-54.55572205 15.83856045 -58.3114247 24.54163076 -61 34 C-61.33 34.99 -61.66 35.98 -62 37 C-62.70162004 47.25444676 -62.56327428 59.03476026 -55.75 67.4296875 C-48.57993102 73.86354404 -40.8393816 75.7611452 -31.40625 75.34375 C-27.34530798 74.93393016 -23.38673145 74.32155521 -19.40234375 73.4375 C-16.84164146 72.97116072 -14.59548428 72.7760242 -12 73 C-9.76244567 75.61048005 -9 77.17545006 -9 80.625 C-10.39889079 83.94736563 -11.69921021 84.55590447 -15 86 C-27.5566822 89.62353632 -43.29367657 90.34585209 -55 84 C-56.21042969 83.34644531 -56.21042969 83.34644531 -57.4453125 82.6796875 C-67.53305484 76.58709064 -72.72013684 66.85972138 -75.6171875 55.6015625 C-77.90335536 40.06495238 -74.82380131 25.07813409 -66 12 C-60.42825096 4.6000208 -54.18327642 -0.6740389 -46 -5 C-45.31808594 -5.3609375 -44.63617187 -5.721875 -43.93359375 -6.09375 C-30.07041511 -11.95372375 -11.94206805 -8.11225031 0 0 Z " fill="#D74818" transform="translate(875,93)"/>
<path d="M0 0 C7.71102009 5.68180428 14.29349837 12.78814202 16.25 22.375 C17.53418465 34.25370799 16.19767123 44.04361058 10.5 54.625 C3.72605403 62.90426729 -4.9979346 68.78150528 -15.75 70.375 C-27.90218367 71.23997457 -39.25280178 70.13578791 -48.94140625 62.05859375 C-57.66721567 53.93586403 -61.77033655 46.38529438 -62.22119141 34.32910156 C-62.3641531 21.84054997 -60.05644394 13.85262885 -51.25 4.640625 C-37.45442959 -7.86161069 -16.01219082 -9.83684077 0 0 Z " fill="#D74616" transform="translate(579.75,324.625)"/>
<path d="M0 0 C3.79071255 2.63701743 5.9662319 5.81084523 7.875 10 C7.875 10.99 7.875 11.98 7.875 13 C8.535 13 9.195 13 9.875 13 C10.1534375 11.9790625 10.1534375 11.9790625 10.4375 10.9375 C13.00882559 5.68305205 17.40482094 1.21993675 22.875 -1 C28.17963316 -1.5217672 31.80900093 -1.24411127 36.3359375 1.66015625 C40.01252787 4.86084279 41.96991198 9.25892074 42.875 14 C42.97068583 15.88312078 43.0130597 17.7692487 43.02026367 19.65478516 C43.02664352 20.78921051 43.03302338 21.92363586 43.03959656 23.09243774 C43.04070938 24.31232391 43.0418222 25.53221008 43.04296875 26.7890625 C43.04796135 28.67121964 43.04796135 28.67121964 43.05305481 30.59140015 C43.05811646 33.2426102 43.06089599 35.89371768 43.06030273 38.54492188 C43.06020079 41.94581826 43.07389205 45.34650738 43.09107494 48.74735451 C43.1048418 51.99041623 43.10428262 55.2334755 43.10546875 58.4765625 C43.11265427 59.70049713 43.11983978 60.92443176 43.12724304 62.18545532 C43.12416641 63.31357635 43.12108978 64.44169739 43.11791992 65.60400391 C43.11934494 66.60009674 43.12076996 67.59618958 43.12223816 68.62246704 C42.875 71 42.875 71 40.875 73 C38.1627875 73.22504349 35.58626815 73.32434995 32.875 73.3125 C32.13765625 73.32861328 31.4003125 73.34472656 30.640625 73.36132812 C28.5 73.36328125 28.5 73.36328125 24.875 73 C22.73262657 69.78643985 22.6133475 68.86952936 22.55615234 65.16137695 C22.53628265 64.1805867 22.51641296 63.19979645 22.49594116 62.18928528 C22.48438995 61.13295395 22.47283875 60.07662262 22.4609375 58.98828125 C22.44157135 57.90491989 22.4222052 56.82155853 22.4022522 55.70536804 C22.34241656 52.24115907 22.2960547 48.77691695 22.25 45.3125 C22.21182393 42.96548021 22.17277242 40.61847448 22.1328125 38.27148438 C22.03671176 32.51444766 21.95167587 26.75732641 21.875 21 C20.225 20.67 18.575 20.34 16.875 20 C12.27522157 26.89966764 11.57196166 33.37127468 11.4609375 41.43359375 C11.44157135 42.31153091 11.4222052 43.18946808 11.4022522 44.0940094 C11.34287262 46.8750767 11.29623883 49.65618633 11.25 52.4375 C11.21178184 54.33269951 11.17272792 56.22788236 11.1328125 58.12304688 C11.03720571 62.74856129 10.95302245 67.37415692 10.875 72 C7.84076019 73.5171199 4.69995206 73.18439257 1.375 73.1875 C0.68535156 73.19974609 -0.00429688 73.21199219 -0.71484375 73.22460938 C-2.51977494 73.22988695 -4.32417842 73.12184458 -6.125 73 C-8.6133351 70.5116649 -8.38300223 69.73983688 -8.41210938 66.30664062 C-8.42552368 65.33223022 -8.43893799 64.35781982 -8.45275879 63.35388184 C-8.45803589 62.29866333 -8.46331299 61.24344482 -8.46875 60.15625 C-8.4833728 59.07621704 -8.49799561 57.99618408 -8.51306152 56.88342285 C-8.5755178 52.24776034 -8.6149851 47.61196191 -8.65673828 42.97607422 C-8.69038618 39.59848819 -8.73552209 36.2211905 -8.78125 32.84375 C-8.7865271 31.78853149 -8.7918042 30.73331299 -8.79724121 29.64611816 C-8.81065552 28.67170776 -8.82406982 27.69729736 -8.83789062 26.69335938 C-8.84518188 25.83335327 -8.85247314 24.97334717 -8.85998535 24.08728027 C-8.93641277 21.78031292 -8.93641277 21.78031292 -11.125 20 C-13.14577346 19.94098078 -13.14577346 19.94098078 -15.125 21 C-19.8418295 26.93971123 -19.27533227 34.68934522 -19.37109375 41.92578125 C-19.40398724 43.62565706 -19.43719953 45.32552673 -19.47070312 47.02539062 C-19.51834977 49.68298721 -19.56291053 52.34055125 -19.60180664 54.99829102 C-19.6413568 57.5785243 -19.69288442 60.15829867 -19.74609375 62.73828125 C-19.7545079 63.53720291 -19.76292206 64.33612457 -19.77159119 65.15925598 C-19.89817839 70.77317839 -19.89817839 70.77317839 -22.125 73 C-24.8372125 73.22504349 -27.41373185 73.32434995 -30.125 73.3125 C-30.86234375 73.32861328 -31.5996875 73.34472656 -32.359375 73.36132812 C-34.5 73.36328125 -34.5 73.36328125 -38.125 73 C-40.34217015 69.67424478 -40.37043438 68.6639376 -40.35205078 64.79418945 C-40.35182419 63.20287956 -40.35182419 63.20287956 -40.35159302 61.579422 C-40.34127045 60.43559555 -40.33094788 59.2917691 -40.3203125 58.11328125 C-40.3174826 56.94113571 -40.31465271 55.76899017 -40.31173706 54.56132507 C-40.30052753 50.81161357 -40.27542128 47.06213951 -40.25 43.3125 C-40.23997121 40.7727899 -40.23084519 38.23307607 -40.22265625 35.69335938 C-40.20058567 29.46215835 -40.16710039 23.23109614 -40.125 17 C-41.23875 17.061875 -42.3525 17.12375 -43.5 17.1875 C-44.69625 17.125625 -45.8925 17.06375 -47.125 17 C-49.36734009 13.63648987 -49.39598215 12.37689944 -49.375 8.4375 C-49.38015625 7.46683594 -49.3853125 6.49617188 -49.390625 5.49609375 C-49.125 3 -49.125 3 -47.125 1 C-45.07788086 0.75708008 -45.07788086 0.75708008 -42.58984375 0.76953125 C-41.69845703 0.77146484 -40.80707031 0.77339844 -39.88867188 0.77539062 C-38.95603516 0.78763672 -38.02339844 0.79988281 -37.0625 0.8125 C-35.65774414 0.8134668 -35.65774414 0.8134668 -34.22460938 0.81445312 C-27.26519224 0.85980776 -27.26519224 0.85980776 -26.125 2 C-25.89018307 4.18292774 -25.71136677 6.37203174 -25.5625 8.5625 C-25.43681641 10.35880859 -25.43681641 10.35880859 -25.30859375 12.19140625 C-25.24800781 13.11824219 -25.18742187 14.04507813 -25.125 15 C-24.84527344 14.41992188 -24.56554687 13.83984375 -24.27734375 13.2421875 C-19.11358837 3.18033619 -12.04683341 -3.85498669 0 0 Z " fill="#D74616" transform="translate(461.125,96)"/>
<path d="M0 0 C7.71257711 6.38114275 12.80473641 14.75005045 13.98046875 24.73828125 C14.38564133 35.45892877 12.13490087 44.20903082 5.25 52.5625 C-2.8703617 60.98037495 -10.50580494 65.09224753 -22.33935547 65.59057617 C-34.3531737 65.78768443 -41.46441795 62.69486511 -50.2109375 54.50390625 C-57.57308678 46.84468778 -60.58740361 38.83248691 -61 28.1875 C-60.65481282 18.08799135 -56.92718467 9.54713075 -49.95703125 2.23046875 C-34.73541534 -10.11201981 -16.27515438 -11.31510733 0 0 Z " fill="#D74515" transform="translate(483.4375,711.8125)"/>
<path d="M0 0 C2.0385903 1.44317998 3.8336384 2.96053591 5.64453125 4.6796875 C6.27101563 5.26621094 6.8975 5.85273437 7.54296875 6.45703125 C15.26151026 14.41983041 17.31409683 23.53309862 17.25805664 34.32739258 C16.94103382 41.4007172 14.59671539 46.8151562 10.64453125 52.6796875 C10.18820312 53.36546875 9.731875 54.05125 9.26171875 54.7578125 C4.50606236 61.00810375 -3.24065518 65.92482522 -10.96875 67.4296875 C-23.42527004 68.7344621 -32.84165495 67.82348307 -43.10546875 60.4921875 C-47.55938559 56.80944354 -50.59134872 52.72952218 -53.35546875 47.6796875 C-53.69578125 47.08929687 -54.03609375 46.49890625 -54.38671875 45.890625 C-58.23538024 37.80130871 -57.50592475 26.15025202 -54.91796875 17.8046875 C-50.71893292 8.00693724 -42.8187305 1.21317638 -33.35546875 -3.3203125 C-22.47510827 -7.67245669 -10.07257027 -5.64598466 0 0 Z " fill="#D74514" transform="translate(294.35546875,709.3203125)"/>
<path d="M0 0 C6.41571792 6.15690976 11.3219477 16.3538404 11.79296875 25.2265625 C11.79941406 26.36867188 11.80585937 27.51078125 11.8125 28.6875 C11.82667969 29.83476562 11.84085938 30.98203125 11.85546875 32.1640625 C11.625 35.0625 11.625 35.0625 9.625 37.0625 C7.41036987 37.3409729 7.41036987 37.3409729 4.62451172 37.38134766 C3.58358368 37.40121735 2.54265564 37.42108704 1.47018433 37.44155884 C0.34307037 37.45311005 -0.78404358 37.46466125 -1.9453125 37.4765625 C-3.09667694 37.49592865 -4.24804138 37.5152948 -5.43429565 37.5352478 C-9.12278769 37.59517372 -12.81131072 37.64148126 -16.5 37.6875 C-18.99610759 37.72566777 -21.49220185 37.76471878 -23.98828125 37.8046875 C-30.11706937 37.90088588 -36.24593738 37.98589506 -42.375 38.0625 C-40.06682256 43.06925878 -38.26502539 45.36799622 -33.375 48.0625 C-23.88634824 51.20443767 -13.04134389 49.18829019 -3.74316406 46.39770508 C0.04026703 45.29105633 2.88338425 44.58215112 6.625 46.0625 C8.92788545 49.35570478 9.53448526 53.46283982 10.125 57.375 C9.625 60.0625 9.625 60.0625 7.8125 61.75 C-6.65140675 67.70572631 -25.97917425 71.416664 -41.0703125 66.09765625 C-49.38028306 62.36521184 -56.85162523 56.66147746 -60.66015625 48.2109375 C-61.65311614 45.51321852 -62.54792199 42.81498006 -63.375 40.0625 C-63.87 38.5775 -63.87 38.5775 -64.375 37.0625 C-65.10654111 24.77941437 -63.93133742 15.04135748 -56.375 5.0625 C-41.5704372 -10.56306718 -17.64460383 -13.34351998 0 0 Z " fill="#D74616" transform="translate(775.375,326.9375)"/>
<path d="M0 0 C6.41571792 6.15690976 11.3219477 16.3538404 11.79296875 25.2265625 C11.79941406 26.36867187 11.80585937 27.51078125 11.8125 28.6875 C11.82667969 29.83476562 11.84085938 30.98203125 11.85546875 32.1640625 C11.625 35.0625 11.625 35.0625 9.625 37.0625 C7.41036987 37.3409729 7.41036987 37.3409729 4.62451172 37.38134766 C3.58358368 37.40121735 2.54265564 37.42108704 1.47018433 37.44155884 C0.34307037 37.45311005 -0.78404358 37.46466125 -1.9453125 37.4765625 C-3.09667694 37.49592865 -4.24804138 37.5152948 -5.43429565 37.5352478 C-9.12278769 37.59517372 -12.81131072 37.64148126 -16.5 37.6875 C-18.99610759 37.72566777 -21.49220185 37.76471878 -23.98828125 37.8046875 C-30.11706937 37.90088588 -36.24593738 37.98589506 -42.375 38.0625 C-40.06682256 43.06925878 -38.26502539 45.36799622 -33.375 48.0625 C-23.88634824 51.20443767 -13.04134389 49.18829019 -3.74316406 46.39770508 C0.04026703 45.29105633 2.88338425 44.58215112 6.625 46.0625 C8.92788545 49.35570478 9.53448526 53.46283982 10.125 57.375 C9.625 60.0625 9.625 60.0625 7.8125 61.75 C-6.65140675 67.70572631 -25.97917425 71.416664 -41.0703125 66.09765625 C-49.38028306 62.36521184 -56.85162523 56.66147746 -60.66015625 48.2109375 C-61.65311614 45.51321852 -62.54792199 42.81498006 -63.375 40.0625 C-63.87 38.5775 -63.87 38.5775 -64.375 37.0625 C-65.10654111 24.77941437 -63.93133742 15.04135748 -56.375 5.0625 C-41.5704372 -10.56306718 -17.64460383 -13.34351998 0 0 Z " fill="#D74616" transform="translate(583.375,102.9375)"/>
<path d="M0 0 C7.91905525 5.75545622 13.40909451 13.47740282 15.1875 23.25 C15.28151394 25.82432301 15.32718883 28.36450645 15.3125 30.9375 C15.31636719 31.62650391 15.32023437 32.31550781 15.32421875 33.02539062 C15.31419335 38.12330665 15.31419335 38.12330665 14.1875 39.25 C12.53011557 39.34346915 10.86875356 39.36744977 9.20874023 39.36352539 C8.14771591 39.36344986 7.08669159 39.36337433 5.99351501 39.36329651 C4.839366 39.35813522 3.68521698 39.35297394 2.49609375 39.34765625 C1.32111832 39.3462413 0.14614288 39.34482635 -1.06443787 39.34336853 C-4.83465064 39.33774992 -8.60480504 39.32519426 -12.375 39.3125 C-14.92382727 39.3074874 -17.47265547 39.30292408 -20.02148438 39.29882812 C-26.28517633 39.28777444 -32.54883399 39.27101821 -38.8125 39.25 C-38.22388586 40.53603501 -37.62238647 41.81617684 -37.015625 43.09375 C-36.68208008 43.80724609 -36.34853516 44.52074219 -36.00488281 45.25585938 C-34.3105777 48.08941469 -32.47761502 49.36657192 -29.46484375 50.62890625 C-19.83115815 52.88480612 -10.08999164 51.41513788 -0.67578125 48.91796875 C3.07294568 48.04343627 6.35961926 48.02483054 10.1875 48.25 C13.17759569 53.23349281 13.93195097 56.57356134 13.1875 62.25 C5.09847588 70.06938998 -12.45749759 70.28954738 -22.9375 70.625 C-35.12456288 70.40639798 -43.94089198 65.985059 -52.5 57.625 C-60.13278694 47.42198889 -61.27107464 36.11138869 -60.18945312 23.75 C-58.85178916 14.87844622 -53.96049318 7.0225691 -46.8515625 1.57421875 C-32.67937084 -7.62956089 -14.69144344 -9.15766641 0 0 Z " fill="#D74615" transform="translate(387.8125,324.75)"/>
<path d="M0 0 C7.91905525 5.75545622 13.40909451 13.47740282 15.1875 23.25 C15.28151394 25.82432301 15.32718883 28.36450645 15.3125 30.9375 C15.31636719 31.62650391 15.32023437 32.31550781 15.32421875 33.02539062 C15.31419335 38.12330665 15.31419335 38.12330665 14.1875 39.25 C12.53011557 39.34346915 10.86875356 39.36744977 9.20874023 39.36352539 C8.14771591 39.36344986 7.08669159 39.36337433 5.99351501 39.36329651 C4.839366 39.35813522 3.68521698 39.35297394 2.49609375 39.34765625 C1.32111832 39.3462413 0.14614288 39.34482635 -1.06443787 39.34336853 C-4.83465064 39.33774992 -8.60480504 39.32519426 -12.375 39.3125 C-14.92382727 39.3074874 -17.47265547 39.30292408 -20.02148438 39.29882812 C-26.28517633 39.28777444 -32.54883399 39.27101821 -38.8125 39.25 C-38.22388586 40.53603501 -37.62238647 41.81617684 -37.015625 43.09375 C-36.68208008 43.80724609 -36.34853516 44.52074219 -36.00488281 45.25585938 C-34.3105777 48.08941469 -32.47761502 49.36657192 -29.46484375 50.62890625 C-19.83115815 52.88480612 -10.08999164 51.41513788 -0.67578125 48.91796875 C3.07294568 48.04343627 6.35961926 48.02483054 10.1875 48.25 C13.17759569 53.23349281 13.93195097 56.57356134 13.1875 62.25 C5.09847588 70.06938998 -12.45749759 70.28954738 -22.9375 70.625 C-35.12456288 70.40639798 -43.94089198 65.985059 -52.5 57.625 C-60.13278694 47.42198889 -61.27107464 36.11138869 -60.18945312 23.75 C-58.85178916 14.87844622 -53.96049318 7.0225691 -46.8515625 1.57421875 C-32.67937084 -7.62956089 -14.69144344 -9.15766641 0 0 Z " fill="#D74615" transform="translate(195.8125,324.75)"/>
<path d="M0 0 C7.91905525 5.75545622 13.40909451 13.47740282 15.1875 23.25 C15.28151394 25.82432301 15.32718883 28.36450645 15.3125 30.9375 C15.31636719 31.62650391 15.32023437 32.31550781 15.32421875 33.02539062 C15.31419335 38.12330665 15.31419335 38.12330665 14.1875 39.25 C12.53011557 39.34346915 10.86875356 39.36744977 9.20874023 39.36352539 C8.14771591 39.36344986 7.08669159 39.36337433 5.99351501 39.36329651 C4.839366 39.35813522 3.68521698 39.35297394 2.49609375 39.34765625 C1.32111832 39.3462413 0.14614288 39.34482635 -1.06443787 39.34336853 C-4.83465064 39.33774992 -8.60480504 39.32519426 -12.375 39.3125 C-14.92382727 39.3074874 -17.47265547 39.30292408 -20.02148438 39.29882812 C-26.28517633 39.28777444 -32.54883399 39.27101821 -38.8125 39.25 C-38.22388586 40.53603501 -37.62238647 41.81617684 -37.015625 43.09375 C-36.68208008 43.80724609 -36.34853516 44.52074219 -36.00488281 45.25585938 C-34.3105777 48.08941469 -32.47761502 49.36657192 -29.46484375 50.62890625 C-19.83115815 52.88480612 -10.08999164 51.41513788 -0.67578125 48.91796875 C3.07294568 48.04343627 6.35961926 48.02483054 10.1875 48.25 C13.17759569 53.23349281 13.93195097 56.57356134 13.1875 62.25 C5.09847588 70.06938998 -12.45749759 70.28954738 -22.9375 70.625 C-35.12456288 70.40639798 -43.94089198 65.985059 -52.5 57.625 C-60.13278694 47.42198889 -61.27107464 36.11138869 -60.18945312 23.75 C-58.85178916 14.87844622 -53.96049318 7.0225691 -46.8515625 1.57421875 C-32.67937084 -7.62956089 -14.69144344 -9.15766641 0 0 Z " fill="#D74615" transform="translate(195.8125,100.75)"/>
<path d="M0 0 C4.97666413 3.78659227 8.04915377 8.19732089 9.875 14.1875 C10.25481337 17.34139384 10.22653689 20.44822439 10.16796875 23.62109375 C10.16372391 24.49903091 10.15947906 25.37696808 10.15510559 26.2815094 C10.1384229 29.0629958 10.10079085 31.84373564 10.0625 34.625 C10.04743968 36.52017177 10.03375364 38.41535498 10.02148438 40.31054688 C9.9885536 44.93648197 9.93684428 49.56186477 9.875 54.1875 C10.81472656 54.13529297 10.81472656 54.13529297 11.7734375 54.08203125 C12.59070313 54.05496094 13.40796875 54.02789062 14.25 54 C15.46816406 53.94779297 15.46816406 53.94779297 16.7109375 53.89453125 C17.42507813 53.99121094 18.13921875 54.08789062 18.875 54.1875 C20.94824138 57.29736207 21.14892186 58.07858387 21.125 61.625 C21.13273437 62.76775391 21.13273437 62.76775391 21.140625 63.93359375 C20.84870457 66.41062442 20.03187708 68.00040493 18.875 70.1875 C13.92711686 70.26154737 8.97955476 70.31605246 4.03125 70.35229492 C2.3472736 70.36740003 0.66333665 70.38788546 -1.02050781 70.41381836 C-3.43824993 70.45012721 -5.85547292 70.46720847 -8.2734375 70.48046875 C-9.0286972 70.49595261 -9.78395691 70.51143646 -10.56210327 70.52738953 C-12.68505859 70.52807617 -12.68505859 70.52807617 -16.125 70.1875 C-18.36734009 66.82398987 -18.39598215 65.56439944 -18.375 61.625 C-18.38273437 60.16900391 -18.38273437 60.16900391 -18.390625 58.68359375 C-18.125 56.1875 -18.125 56.1875 -16.125 54.1875 C-13 54.0625 -13 54.0625 -10.125 54.1875 C-10.16916951 49.27554631 -10.23901757 44.36487609 -10.33251953 39.45361328 C-10.36071718 37.78346989 -10.38193779 36.11319335 -10.39599609 34.44287109 C-10.41744337 32.03934628 -10.46409845 29.63742017 -10.515625 27.234375 C-10.51685364 26.48943787 -10.51808228 25.74450073 -10.51934814 24.97698975 C-10.61600443 21.54366759 -10.8757655 19.52869297 -12.92480469 16.72363281 C-15.59768728 14.8574791 -17.78872769 14.49832278 -21.03515625 14.6796875 C-25.77511552 15.8314533 -28.84313324 19.19477986 -31.4140625 23.19140625 C-34.13541688 28.35023271 -35.17847848 33.22880916 -35.44140625 39.05078125 C-35.50424805 40.38012695 -35.50424805 40.38012695 -35.56835938 41.73632812 C-35.60767578 42.64833984 -35.64699219 43.56035156 -35.6875 44.5 C-35.75227539 45.89702148 -35.75227539 45.89702148 -35.81835938 47.32226562 C-35.92397225 49.61054454 -36.02607752 51.89892372 -36.125 54.1875 C-35.17625 54.14625 -34.2275 54.105 -33.25 54.0625 C-30.125 54.1875 -30.125 54.1875 -28.125 56.1875 C-27.859375 58.9375 -27.859375 58.9375 -27.875 62.1875 C-27.86726563 63.79625 -27.86726563 63.79625 -27.859375 65.4375 C-28.125 68.1875 -28.125 68.1875 -30.125 70.1875 C-32.77791757 70.36260386 -35.32486174 70.41905483 -37.9765625 70.3828125 C-38.75059418 70.3799826 -39.52462585 70.37715271 -40.32211304 70.37423706 C-42.79823157 70.36302754 -45.2739905 70.33792203 -47.75 70.3125 C-49.42707812 70.30247118 -51.10416189 70.29334516 -52.78125 70.28515625 C-56.89597223 70.26308574 -61.01042511 70.22855102 -65.125 70.1875 C-66.73615917 67.14157719 -67.39847563 65.09352376 -67.375 61.625 C-67.38273438 60.47837891 -67.38273438 60.47837891 -67.390625 59.30859375 C-67.125 57.1875 -67.125 57.1875 -65.125 54.1875 C-62.155 54.1875 -59.185 54.1875 -56.125 54.1875 C-56.125 40.9875 -56.125 27.7875 -56.125 14.1875 C-59.425 14.1875 -62.725 14.1875 -66.125 14.1875 C-68.125 12.1875 -68.125 12.1875 -68.390625 9.4375 C-68.38546875 8.365 -68.3803125 7.2925 -68.375 6.1875 C-68.38015625 5.115 -68.3853125 4.0425 -68.390625 2.9375 C-68.125 0.1875 -68.125 0.1875 -66.125 -1.8125 C-63.63476562 -2.07128906 -63.63476562 -2.07128906 -60.53125 -2.078125 C-59.41878906 -2.08070312 -58.30632812 -2.08328125 -57.16015625 -2.0859375 C-55.99355469 -2.07820313 -54.82695312 -2.07046875 -53.625 -2.0625 C-52.45839844 -2.07023437 -51.29179687 -2.07796875 -50.08984375 -2.0859375 C-48.97738281 -2.08335938 -47.86492187 -2.08078125 -46.71875 -2.078125 C-45.69458984 -2.07586914 -44.67042969 -2.07361328 -43.61523438 -2.07128906 C-41.125 -1.8125 -41.125 -1.8125 -39.125 0.1875 C-38.7109375 2.7890625 -38.7109375 2.7890625 -38.5 5.8125 C-38.42523438 6.81539062 -38.35046875 7.81828125 -38.2734375 8.8515625 C-38.19996094 10.00785156 -38.19996094 10.00785156 -38.125 11.1875 C-37.45404297 10.39085938 -37.45404297 10.39085938 -36.76953125 9.578125 C-26.53581306 -2.37939646 -14.86861013 -8.62379388 0 0 Z " fill="#D74616" transform="translate(294.125,98.8125)"/>
<path d="M0 0 C6.74955742 3.46501343 10.4264668 7.1465082 13.125 14.25 C14.29509782 18.75805536 14.25311396 23.20831361 14.22265625 27.83203125 C14.2212413 28.64621017 14.21982635 29.4603891 14.21836853 30.29924011 C14.21279317 32.88703156 14.20024524 35.47473492 14.1875 38.0625 C14.18248181 39.82226437 14.17791946 41.58203011 14.17382812 43.34179688 C14.16283181 47.64456494 14.14558421 51.94726756 14.125 56.25 C16.0438501 56.21217407 16.0438501 56.21217407 18.00146484 56.17358398 C21.87792969 56.09716797 21.87792969 56.09716797 24.1015625 57.47265625 C25.37663165 59.68699389 25.52579758 61.13783902 25.5 63.6875 C25.51160156 64.83025391 25.51160156 64.83025391 25.5234375 65.99609375 C24.99823615 68.96708571 24.30813382 70.14051933 22.125 72.25 C19.43261729 72.63136818 17.15376327 72.76446271 14.46484375 72.7109375 C13.71916641 72.71002106 12.97348907 72.70910461 12.20521545 72.7081604 C10.63080469 72.70212403 9.05640543 72.68637664 7.48217773 72.66162109 C5.06776817 72.62507973 2.65489174 72.62060192 0.24023438 72.62109375 C-1.28907581 72.61126372 -2.81837557 72.59960721 -4.34765625 72.5859375 C-5.07163101 72.58371185 -5.79560577 72.58148621 -6.54151917 72.57919312 C-11.6428318 72.4821682 -11.6428318 72.4821682 -13.875 70.25 C-14.140625 67.5 -14.140625 67.5 -14.125 64.25 C-14.13273438 62.64125 -14.13273438 62.64125 -14.140625 61 C-13.875 58.25 -13.875 58.25 -11.875 56.25 C-8.75 56.125 -8.75 56.125 -5.875 56.25 C-5.96867845 51.48077702 -6.07480386 46.7120531 -6.19238281 41.94335938 C-6.23062358 40.32169141 -6.26548503 38.69994004 -6.296875 37.078125 C-6.34263257 34.74448883 -6.40060816 32.41142438 -6.4609375 30.078125 C-6.47248871 29.35506165 -6.48403992 28.63199829 -6.49594116 27.88702393 C-6.63552403 22.74565348 -6.63552403 22.74565348 -8.875 18.25 C-12.58102135 17.01465955 -14.97253614 16.79471255 -18.875 17.25 C-25.01510592 20.72383863 -28.46846516 26.40911604 -30.40063477 33.05908203 C-30.92462726 35.47921001 -31.08582098 37.76066287 -31.19140625 40.234375 C-31.25424805 41.63623047 -31.25424805 41.63623047 -31.31835938 43.06640625 C-31.35767578 44.03449219 -31.39699219 45.00257813 -31.4375 46 C-31.50227539 47.47533203 -31.50227539 47.47533203 -31.56835938 48.98046875 C-31.67422052 51.40351275 -31.77630171 53.8266554 -31.875 56.25 C-30.92625 56.20875 -29.9775 56.1675 -29 56.125 C-25.875 56.25 -25.875 56.25 -23.875 58.25 C-23.609375 61 -23.609375 61 -23.625 64.25 C-23.61726562 65.85875 -23.61726562 65.85875 -23.609375 67.5 C-23.875 70.25 -23.875 70.25 -25.875 72.25 C-28.50419303 72.46187981 -31.02546415 72.55398254 -33.65625 72.55078125 C-34.8101825 72.55720894 -34.8101825 72.55720894 -35.98742676 72.56376648 C-37.61481745 72.56951257 -39.24223384 72.57000798 -40.86962891 72.56567383 C-43.36535213 72.56251222 -45.85989207 72.58597358 -48.35546875 72.61132812 C-49.93489433 72.61360087 -51.51432311 72.61430473 -53.09375 72.61328125 C-54.21722839 72.62709587 -54.21722839 72.62709587 -55.36340332 72.64118958 C-57.46679688 72.62231445 -57.46679688 72.62231445 -60.875 72.25 C-63.03442819 69.01085771 -63.14732978 68.00140267 -63.125 64.25 C-63.13015625 63.38375 -63.1353125 62.5175 -63.140625 61.625 C-62.875 59.25 -62.875 59.25 -60.875 56.25 C-57.905 56.25 -54.935 56.25 -51.875 56.25 C-51.875 43.05 -51.875 29.85 -51.875 16.25 C-55.175 16.25 -58.475 16.25 -61.875 16.25 C-63.875 14.25 -63.875 14.25 -64.10546875 11.5 C-64.09128906 10.4275 -64.07710937 9.355 -64.0625 8.25 C-64.05605469 7.1775 -64.04960938 6.105 -64.04296875 5 C-63.875 2.25 -63.875 2.25 -62.875 0.25 C-58.56251391 0.22113463 -54.25005238 0.20324745 -49.9375 0.1875 C-48.70580078 0.17912109 -47.47410156 0.17074219 -46.20507812 0.16210938 C-45.03525391 0.15888672 -43.86542969 0.15566406 -42.66015625 0.15234375 C-41.03412476 0.14448853 -41.03412476 0.14448853 -39.37524414 0.13647461 C-36.875 0.25 -36.875 0.25 -35.875 1.25 C-35.64018307 3.43292774 -35.46136677 5.62203174 -35.3125 7.8125 C-35.18681641 9.60880859 -35.18681641 9.60880859 -35.05859375 11.44140625 C-34.99800781 12.36824219 -34.93742188 13.29507813 -34.875 14.25 C-34.45089844 13.65832031 -34.02679687 13.06664063 -33.58984375 12.45703125 C-25.25898546 1.23325954 -14.09890661 -5.98849879 0 0 Z " fill="#D74616" transform="translate(673.875,96.75)"/>
<path d="M0 0 C2.8846524 -0.30398975 5.55085861 -0.4199567 8.4375 -0.3984375 C9.27337646 -0.40130768 10.10925293 -0.40417786 10.97045898 -0.40713501 C12.73910194 -0.40917804 14.50776736 -0.4036315 16.27636719 -0.39111328 C18.98944439 -0.37506245 21.70103184 -0.39095331 24.4140625 -0.41015625 C26.13021163 -0.40817386 27.84635984 -0.40433027 29.5625 -0.3984375 C30.7844104 -0.40754654 30.7844104 -0.40754654 32.03100586 -0.4168396 C34.31640625 -0.38818359 34.31640625 -0.38818359 38 0 C40.69791024 4.04686536 40.53108385 7.25450886 40 12 C38.9375 14.5625 38.9375 14.5625 37 16 C34.66738453 16.05787503 32.33250893 16.06202047 30 16 C30.35827881 16.86278564 30.71655762 17.72557129 31.08569336 18.61450195 C32.41529969 21.817772 33.743975 25.02142491 35.07202148 28.2253418 C35.64684406 29.61156413 36.22203659 30.99763311 36.79760742 32.38354492 C37.62516182 34.37638732 38.45138133 36.3697786 39.27734375 38.36328125 C39.77484131 39.56251221 40.27233887 40.76174316 40.78491211 41.99731445 C41.58495549 43.97435555 42.32555498 45.97666493 43 48 C46.67131089 40.9365801 49.84929142 33.76083436 52.8125 26.375 C53.42254883 24.86873047 53.42254883 24.86873047 54.04492188 23.33203125 C55.03358142 20.8894606 56.01853938 18.44547003 57 16 C56.04867187 16.02964844 55.09734375 16.05929687 54.1171875 16.08984375 C51 16 51 16 49.125 14.5625 C47.46900803 10.7905183 47.42402597 7.06173896 48 3 C48.66 2.01 49.32 1.02 50 0 C52.74285469 -0.2917727 55.25657539 -0.39605798 58 -0.36328125 C59.18722656 -0.36402901 59.18722656 -0.36402901 60.3984375 -0.36479187 C62.07294219 -0.36244989 63.74745029 -0.35271402 65.421875 -0.33618164 C67.9899024 -0.31259275 70.55689186 -0.31561887 73.125 -0.32226562 C74.75000621 -0.31668888 76.37500804 -0.30957902 78 -0.30078125 C79.15628906 -0.30214836 79.15628906 -0.30214836 80.3359375 -0.30354309 C85.76897453 -0.23102547 85.76897453 -0.23102547 88 2 C88.23046875 4.27734375 88.23046875 4.27734375 88.1875 6.9375 C88.18105469 7.81277344 88.17460937 8.68804687 88.16796875 9.58984375 C88 12 88 12 87 15 C83.78548731 16.60725635 80.56387464 16.05748185 77 16 C76.81133865 17.09175537 76.81133865 17.09175537 76.61886597 18.20556641 C76.02079441 20.90610472 75.19916625 23.17943522 74.09814453 25.7109375 C73.7074881 26.61537598 73.31683167 27.51981445 72.91433716 28.45166016 C72.49143402 29.4163623 72.06853088 30.38106445 71.6328125 31.375 C71.19742157 32.37708496 70.76203064 33.37916992 70.31344604 34.41162109 C69.39281684 36.52740217 68.46975476 38.64212608 67.54443359 40.75585938 C66.13132411 43.98554614 64.72720239 47.21902871 63.32421875 50.453125 C62.42761677 52.5106492 61.53049849 54.56794851 60.6328125 56.625 C60.21395782 57.58970215 59.79510315 58.5544043 59.36355591 59.54833984 C54.18553684 71.34597884 54.18553684 71.34597884 50.65625 73.29296875 C47.83927481 74.04278126 45.41334645 74.30022466 42.5 74.3125 C41.5821875 74.32925781 40.664375 74.34601563 39.71875 74.36328125 C36.40203045 73.9200989 34.7097459 72.95889071 32 71 C30.50537109 68.59350586 30.50537109 68.59350586 29.2734375 65.71484375 C28.80389648 64.638396 28.33435547 63.56194824 27.85058594 62.45288086 C27.36364258 61.29280518 26.87669922 60.13272949 26.375 58.9375 C25.86227539 57.74842041 25.34955078 56.55934082 24.82128906 55.33422852 C23.47016239 52.19907556 22.13841731 49.05603758 20.81018066 45.91113281 C19.73929712 43.38502874 18.65426974 40.86513004 17.56838989 38.34544373 C16.29028923 35.37839453 15.01985315 32.40808666 13.75 29.4375 C13.27224121 28.32044678 12.79448242 27.20339355 12.30224609 26.05249023 C11.86734863 25.02325439 11.43245117 23.99401855 10.984375 22.93359375 C10.59991211 22.02665771 10.21544922 21.11972168 9.81933594 20.18530273 C9 18 9 18 9 16 C7.1128125 16.12375 7.1128125 16.12375 5.1875 16.25 C1.29996104 16.215597 1.29996104 16.215597 -1 14.5625 C-2.4804678 10.76880126 -2.5703765 7.02226547 -2 3 C-1.34 2.01 -0.68 1.02 0 0 Z " fill="#D74616" transform="translate(226,321)"/>
<path d="M0 0 C0.8098938 0.00091644 1.6197876 0.00183289 2.45422363 0.0027771 C4.16566838 0.00881609 5.87710241 0.02457119 7.58837891 0.04931641 C10.20905469 0.08580252 12.82831562 0.09033594 15.44921875 0.08984375 C17.11199139 0.09967589 18.77475445 0.11133332 20.4375 0.125 C21.61415222 0.12833847 21.61415222 0.12833847 22.8145752 0.13174438 C26.63042682 0.19836352 28.47007592 0.29515478 31.71875 2.4609375 C32.00503303 5.2125142 32.09702044 7.73814381 32.05932617 10.49072266 C32.05998329 11.73474098 32.05998329 11.73474098 32.06065369 13.00389099 C32.05855898 15.75283118 32.03519613 18.501166 32.01171875 21.25 C32.00612521 23.15285916 32.00185397 25.05572263 31.99885559 26.95858765 C31.98738772 31.97285845 31.9579039 36.98686957 31.92474365 42.0010376 C31.89408455 47.11523932 31.88035916 52.22948291 31.86523438 57.34375 C31.83303601 67.38292675 31.78181628 77.42191055 31.71875 87.4609375 C32.83902588 87.43737183 32.83902588 87.43737183 33.98193359 87.41333008 C37.35246261 87.35112673 40.72287112 87.3119933 44.09375 87.2734375 C45.269375 87.24830078 46.445 87.22316406 47.65625 87.19726562 C48.77773438 87.18759766 49.89921875 87.17792969 51.0546875 87.16796875 C52.61002197 87.14440308 52.61002197 87.14440308 54.19677734 87.12036133 C55.02902832 87.23275146 55.8612793 87.3451416 56.71875 87.4609375 C58.79199138 90.57079957 58.99267186 91.35202137 58.96875 94.8984375 C58.97648437 96.04119141 58.97648437 96.04119141 58.984375 97.20703125 C58.71875 99.4609375 58.71875 99.4609375 56.71875 103.4609375 C33.94875 103.4609375 11.17875 103.4609375 -12.28125 103.4609375 C-14.09531528 99.83280695 -14.55687126 98.68397816 -14.53125 94.8984375 C-14.53898437 93.75181641 -14.53898437 93.75181641 -14.546875 92.58203125 C-14.28125 90.4609375 -14.28125 90.4609375 -12.28125 87.4609375 C-4.36125 87.4609375 3.55875 87.4609375 11.71875 87.4609375 C11.71875 64.3609375 11.71875 41.2609375 11.71875 17.4609375 C5.11875 17.4609375 -1.48125 17.4609375 -8.28125 17.4609375 C-11.69679054 12.90688345 -11.69679054 12.90688345 -11.65625 8.9609375 C-11.66398437 8.208125 -11.67171875 7.4553125 -11.6796875 6.6796875 C-10.45425905 -0.14426699 -6.03291061 -0.11052436 0 0 Z " fill="#D74818" transform="translate(439.28125,289.5390625)"/>
<path d="M0 0 C5.28127914 3.0896552 5.28127914 3.0896552 6.5625 6.25 C6.69279406 11.58203385 5.83352501 15.93224699 2.5625 20.25 C1.9025 20.91 1.2425 21.57 0.5625 22.25 C-5.52445652 21.70652174 -5.52445652 21.70652174 -8.4375 20.25 C-14.94943747 19.14128651 -19.66845965 20.69541993 -25.1328125 24.26171875 C-29.89748921 28.37226188 -33.95457195 34.77846525 -34.64282227 41.15112305 C-34.67947998 41.84761963 -34.7161377 42.54411621 -34.75390625 43.26171875 C-34.81674805 44.39770508 -34.81674805 44.39770508 -34.88085938 45.55664062 C-34.92017578 46.34232422 -34.95949219 47.12800781 -35 47.9375 C-35.06477539 49.13342773 -35.06477539 49.13342773 -35.13085938 50.35351562 C-35.23677368 52.31881447 -35.33762551 54.28438496 -35.4375 56.25 C-34.69064941 56.23428955 -33.94379883 56.2185791 -33.17431641 56.20239258 C-29.80378739 56.14018923 -26.43337888 56.1010558 -23.0625 56.0625 C-21.886875 56.03736328 -20.71125 56.01222656 -19.5 55.98632812 C-17.81777344 55.97182617 -17.81777344 55.97182617 -16.1015625 55.95703125 C-15.06467285 55.9413208 -14.0277832 55.92561035 -12.95947266 55.90942383 C-11.71109619 56.07800903 -11.71109619 56.07800903 -10.4375 56.25 C-8.36425862 59.35986207 -8.16357814 60.14108387 -8.1875 63.6875 C-8.17976562 64.83025391 -8.17976562 64.83025391 -8.171875 65.99609375 C-8.46379543 68.47312442 -9.28062292 70.06290493 -10.4375 72.25 C-18.09557215 72.29629168 -25.75362984 72.33185303 -33.41180992 72.35362434 C-36.96762399 72.36407224 -40.5233425 72.37824959 -44.07910156 72.40087891 C-48.164723 72.42671832 -52.25024369 72.43646444 -56.3359375 72.4453125 C-57.61616791 72.45563507 -58.89639832 72.46595764 -60.21542358 72.47659302 C-61.98703354 72.47681961 -61.98703354 72.47681961 -63.79443359 72.47705078 C-64.83812103 72.481492 -65.88180847 72.48593323 -66.9571228 72.49050903 C-69.4375 72.25 -69.4375 72.25 -71.4375 70.25 C-71.703125 67.5 -71.703125 67.5 -71.6875 64.25 C-71.69265625 63.1775 -71.6978125 62.105 -71.703125 61 C-71.4375 58.25 -71.4375 58.25 -69.4375 56.25 C-64.8175 56.25 -60.1975 56.25 -55.4375 56.25 C-55.4375 43.05 -55.4375 29.85 -55.4375 16.25 C-59.3975 16.25 -63.3575 16.25 -67.4375 16.25 C-69.67984009 12.88648987 -69.70848215 11.62689944 -69.6875 7.6875 C-69.69265625 6.71683594 -69.6978125 5.74617188 -69.703125 4.74609375 C-69.4375 2.25 -69.4375 2.25 -67.4375 0.25 C-64.76367188 0.00708008 -64.76367188 0.00708008 -61.40625 0.01953125 C-59.60220703 0.02243164 -59.60220703 0.02243164 -57.76171875 0.02539062 C-56.49972656 0.03763672 -55.23773437 0.04988281 -53.9375 0.0625 C-52.67550781 0.06314453 -51.41351562 0.06378906 -50.11328125 0.06445312 C-40.71796368 0.10976816 -40.71796368 0.10976816 -38.4375 1.25 C-37.9425 10.655 -37.9425 10.655 -37.4375 20.25 C-36.2309375 18.0225 -36.2309375 18.0225 -35 15.75 C-27.70103655 3.62513365 -14.39246375 -6.65486397 0 0 Z " fill="#D74515" transform="translate(878.4375,320.75)"/>
<path d="M0 0 C18.5049505 0 18.5049505 0 24.7734375 5.578125 C31.31785849 12.66525407 32.50767693 19.45344962 32.4375 28.8125 C32.4674707 30.21338867 32.4674707 30.21338867 32.49804688 31.64257812 C32.49249994 39.63571536 30.72920391 46.51268389 25.75 52.875 C16.87908007 59.72980176 12.85073556 59 0 59 C0 39.53 0 20.06 0 0 Z " fill="#FEFEFD" transform="translate(66,317)"/>
<path d="M0 0 C18.5049505 0 18.5049505 0 24.7734375 5.578125 C31.31785849 12.66525407 32.50767693 19.45344962 32.4375 28.8125 C32.4674707 30.21338867 32.4674707 30.21338867 32.49804688 31.64257812 C32.49249994 39.63571536 30.72920391 46.51268389 25.75 52.875 C16.87908007 59.72980176 12.85073556 59 0 59 C0 39.53 0 20.06 0 0 Z " fill="#FEFEFD" transform="translate(66,93)"/>
<path d="M0 0 C4.5830476 2.70391305 7.50437117 5.64957115 9.08984375 10.84765625 C10.5282429 17.85365209 10.4854568 25.10644279 6.8203125 31.3671875 C4.03554763 35.04614293 0.97167067 37.57845353 -3.45703125 39.0546875 C-8.66944935 39.55383586 -13.0607336 39.72697896 -17.83203125 37.4296875 C-22.87495902 32.86703857 -26.14884361 29.25670749 -26.66015625 22.28515625 C-26.78243501 14.34722659 -26.36314317 9.40789356 -21.01953125 3.2421875 C-15.04051548 -1.86185035 -7.43334161 -2.8598866 0 0 Z " fill="#FEFCFC" transform="translate(565.45703125,337.9453125)"/>
<path d="M0 0 C4.3328726 2.42110594 7.2312429 5.19948994 9.1875 9.78125 C10.85501218 16.38716364 11.41459305 24.178908 9.01953125 30.6484375 C6.22118586 35.2807754 3.18623962 38.27125346 -2 40 C-6.66694522 40.54225459 -10.07771048 40.4698456 -14.3125 38.3125 C-19.29195203 34.02785523 -22.60184649 29.79538541 -23.30078125 23.1328125 C-23.33146014 15.25856328 -22.86234453 10.30270523 -17.5625 4.1875 C-12.17357605 -0.41280094 -6.96316136 -1.25817123 0 0 Z " fill="#FEFCFC" transform="translate(662,337)"/>
<path d="M0 0 C4.41762888 2.56454111 7.63936684 5.31439469 9.6484375 10.0859375 C10.46949361 17.12478313 10.7357183 24.29148167 6.9921875 30.53515625 C3.26215617 34.83987264 -2.07243065 36.91392755 -7.6640625 37.3359375 C-12.94094298 36.97818289 -16.01348493 35.53552153 -19.6015625 31.6484375 C-24.27083167 24.81129335 -24.18123315 18.14559527 -23.3515625 10.0859375 C-21.82741414 5.80320657 -19.49305093 3.16027955 -16.2265625 0.0859375 C-10.9118476 -1.76265899 -5.30210708 -2.06095192 0 0 Z " fill="#FEFCFB" transform="translate(369.3515625,113.9140625)"/>
<path d="M0 0 C4.88491902 1.80055693 9.02679121 4.95162147 11.375 9.7109375 C13.16766015 16.27655532 13.1844576 23.45560959 10.3125 29.625 C5.27607249 34.79754717 2.0356966 37.16320139 -5.1875 37.4375 C-10.81650378 37.40636613 -13.7612994 36.68234288 -17.73046875 32.703125 C-22.35906672 26.49368281 -21.50772594 19.4096255 -21 12 C-19.92597583 6.84804031 -17.36818845 3.91212563 -13 1 C-9.01033143 -0.99483429 -4.33712721 -0.50921736 0 0 Z " fill="#FEFDFC" transform="translate(751,113)"/>
<path d="M0 0 C1.19625 0.00386719 2.3925 0.00773437 3.625 0.01171875 C8.00821146 0.40235218 10.86982784 1.18232784 14 4.3125 C14.44626783 7.43796156 14.32410302 10.5962984 14.3125 13.75 C14.32861328 14.62205078 14.34472656 15.49410156 14.36132812 16.39257812 C14.36197266 17.23111328 14.36261719 18.06964844 14.36328125 18.93359375 C14.36626221 19.7011499 14.36924316 20.46870605 14.37231445 21.25952148 C13.90532079 23.83457049 13.01771684 24.69987862 11 26.3125 C7.48233071 27.66002588 3.79162066 27.51474178 0.0625 27.5625 C-1.14277344 27.58828125 -2.34804688 27.6140625 -3.58984375 27.640625 C-9.27469674 27.09362884 -9.27469674 27.09362884 -12 24.3125 C-12.75406604 20.80275159 -12.69682068 17.38917007 -12.625 13.8125 C-12.64433594 12.84957031 -12.66367187 11.88664062 -12.68359375 10.89453125 C-12.63522429 3.95835072 -12.63522429 3.95835072 -9.8984375 1.17578125 C-6.46515023 0.15319838 -3.58359134 -0.05020117 0 0 Z " fill="#D8491A" transform="translate(940,366.6875)"/>
<path d="M0 0 C0.75087891 -0.01160156 1.50175781 -0.02320313 2.27539062 -0.03515625 C5.60930516 -0.01756303 8.35608925 0.31318428 11.5625 1.2734375 C14.37909578 4.23306354 14.18849544 6.61405078 14.19726562 10.6015625 C14.17341797 11.51679688 14.14957031 12.43203125 14.125 13.375 C14.13595703 14.29023438 14.14691406 15.20546875 14.15820312 16.1484375 C14.08448761 22.85163492 14.08448761 22.85163492 11.8046875 25.13745117 C9.32855325 26.50412414 7.92609494 26.74934222 5.12109375 26.73828125 C4.29029297 26.73763672 3.45949219 26.73699219 2.60351562 26.73632812 C1.31477539 26.7121582 1.31477539 26.7121582 0 26.6875 C-1.29454102 26.69233398 -1.29454102 26.69233398 -2.61523438 26.69726562 C-9.03642451 26.64238366 -9.03642451 26.64238366 -12.4375 24.375 C-13.09662126 20.93761293 -12.90049666 17.43054275 -12.875 13.9375 C-12.89498047 12.97005859 -12.91496094 12.00261719 -12.93554688 11.00585938 C-12.93490234 10.07708984 -12.93425781 9.14832031 -12.93359375 8.19140625 C-12.93544678 7.34006104 -12.9372998 6.48871582 -12.93920898 5.61157227 C-12.4375 3.375 -12.4375 3.375 -10.65234375 1.59887695 C-7.23983197 -0.28680664 -3.79469897 -0.05833013 0 0 Z " fill="#D74818" transform="translate(940.4375,319.625)"/>
<path d="M0 0 C2.7365793 4.10486895 2.60060509 7.18032955 2 12 C0.27321158 18.21643832 -2.24316338 23.5912246 -7 28 C-9.6875 28.5625 -9.6875 28.5625 -12 28 C-15.14567646 23.28148531 -14.66310032 18.51913801 -14 13 C-11.71974101 6.24098532 -8.28523298 -1.30819468 0 0 Z " fill="#FEFAF9" transform="translate(850,119)"/>
<path d="M0 0 C4.43011019 1.64761814 7.19476265 3.91796231 10 7.6875 C11 10 11 10 11 12 C-0.22 12 -11.44 12 -23 12 C-21.87308642 6.3654321 -21.87308642 6.3654321 -18.5625 3.75 C-17.94503906 3.24984375 -17.32757812 2.7496875 -16.69140625 2.234375 C-11.81359823 -1.32541099 -5.78364158 -0.60133657 0 0 Z " fill="#FDF8F6" transform="translate(756,337)"/>
<path d="M0 0 C3.24868201 2.51938605 5.10549494 4.77411069 7.0625 8.375 C7.0625 9.035 7.0625 9.695 7.0625 10.375 C-4.1575 10.375 -15.3775 10.375 -26.9375 10.375 C-25.80501918 4.71259591 -25.80501918 4.71259591 -22.625 2.125 C-21.73361328 1.37476563 -21.73361328 1.37476563 -20.82421875 0.609375 C-15.19585996 -3.07294669 -5.87798997 -3.06622421 0 0 Z " fill="#FDF8F7" transform="translate(375.9375,338.625)"/>
<path d="M0 0 C3.24868201 2.51938605 5.10549494 4.77411069 7.0625 8.375 C7.0625 9.035 7.0625 9.695 7.0625 10.375 C-4.1575 10.375 -15.3775 10.375 -26.9375 10.375 C-25.80501918 4.71259591 -25.80501918 4.71259591 -22.625 2.125 C-21.73361328 1.37476563 -21.73361328 1.37476563 -20.82421875 0.609375 C-15.19585996 -3.07294669 -5.87798997 -3.06622421 0 0 Z " fill="#FDF8F7" transform="translate(183.9375,338.625)"/>
<path d="M0 0 C4.43011019 1.64761814 7.19476265 3.91796231 10 7.6875 C11 10 11 10 11 12 C-0.22 12 -11.44 12 -23 12 C-21.87308642 6.3654321 -21.87308642 6.3654321 -18.5625 3.75 C-17.94503906 3.24984375 -17.32757812 2.7496875 -16.69140625 2.234375 C-11.81359823 -1.32541099 -5.78364158 -0.60133657 0 0 Z " fill="#FDF8F6" transform="translate(564,113)"/>
<path d="M0 0 C3.24868201 2.51938605 5.10549494 4.77411069 7.0625 8.375 C7.0625 9.035 7.0625 9.695 7.0625 10.375 C-4.1575 10.375 -15.3775 10.375 -26.9375 10.375 C-25.80501918 4.71259591 -25.80501918 4.71259591 -22.625 2.125 C-21.73361328 1.37476562 -21.73361328 1.37476562 -20.82421875 0.609375 C-15.19585996 -3.07294669 -5.87798997 -3.06622421 0 0 Z " fill="#FDF8F7" transform="translate(183.9375,114.625)"/>
</svg>
